/* XPM */
static char *c24b7b2f4ff44d3f8d9a68548b846c4eZZ8g4RQuhDFmL4Mg[] = {
/* columns rows colors chars-per-pixel */
"64 64 186 2 ",
"   c #020202",
".  c #060B04",
"X  c #070807",
"o  c #0A0B05",
"O  c #050708",
"+  c #090C0A",
"@  c #130E06",
"#  c #0B1707",
"$  c #1A1406",
"%  c #1C1608",
"&  c #1F1809",
"*  c #0B0E11",
"=  c #0D1216",
"-  c #151C12",
";  c #12191D",
":  c #221B0A",
">  c #0F2408",
",  c #102708",
"<  c #132E09",
"1  c #15340B",
"2  c #193A0D",
"3  c #1A2416",
"4  c #1D2917",
"5  c #1F2C1A",
"6  c #2F250D",
"7  c #31260D",
"8  c #382B0E",
"9  c #3A2D10",
"0  c #21301C",
"q  c #161F25",
"w  c #182027",
"e  c #19232B",
"r  c #1F2C37",
"t  c #273821",
"y  c #263638",
"u  c #4A3812",
"i  c #503C13",
"p  c #1A430B",
"a  c #1E4C0E",
"s  c #1F540D",
"d  c #1F4815",
"f  c #22590E",
"g  c #234A1B",
"h  c #225711",
"j  c #245D10",
"k  c #2A6D11",
"l  c #296816",
"z  c #2F7F13",
"x  c #317C18",
"c  c #24432B",
"v  c #31472A",
"b  c #344B2B",
"n  c #37532D",
"m  c #3A592F",
"M  c #2A4137",
"N  c #395234",
"B  c #3D5A33",
"V  c #3D573A",
"C  c #2B6122",
"Z  c #36623C",
"A  c #5B4517",
"S  c #664E1A",
"D  c #694F1A",
"F  c #6B521B",
"G  c #7E5F1F",
"H  c #5E701B",
"J  c #405D35",
"K  c #7A5F21",
"L  c #46693A",
"P  c #486C3C",
"I  c #4B743C",
"U  c #7E6324",
"Y  c #293743",
"T  c #2A3A46",
"R  c #2C3E4B",
"E  c #2C414E",
"W  c #2E4351",
"Q  c #324755",
"!  c #344B5B",
"~  c #384D5E",
"^  c #375555",
"/  c #3E6B5A",
"(  c #375063",
")  c #385060",
"_  c #4B6A4C",
"`  c #4F7740",
"'  c #507A42",
"]  c #44785D",
"[  c #415D6F",
"{  c #415E74",
"}  c #446667",
"|  c #46657B",
" . c #4E757F",
".. c #826421",
"X. c #8A6A25",
"o. c #8D742D",
"O. c #9B7526",
"+. c #9F7827",
"@. c #987529",
"#. c #A57D28",
"$. c #348A15",
"%. c #348816",
"&. c #3B951C",
"*. c #3E8833",
"=. c #459D28",
"-. c #498F30",
";. c #6F8220",
":. c #46A625",
">. c #48B123",
",. c #59B838",
"<. c #4DCF1F",
"1. c #4ECF20",
"2. c #56C32E",
"3. c #4FD022",
"4. c #53D126",
"5. c #55D12A",
"6. c #59D22E",
"7. c #5FCF37",
"8. c #5DD333",
"9. c #5FD038",
"0. c #61CE3B",
"q. c #63D43C",
"w. c #558445",
"e. c #5A8C49",
"r. c #5B9647",
"t. c #60974C",
"y. c #609B4C",
"u. c #61945C",
"i. c #5DB243",
"p. c #65A64F",
"a. c #69B24E",
"s. c #69BB4C",
"d. c #66A551",
"f. c #6DAF5B",
"g. c #6BB751",
"h. c #70BF59",
"j. c #608E65",
"k. c #65C543",
"l. c #66CB43",
"z. c #69CD46",
"x. c #6CC54D",
"c. c #6CCA4C",
"v. c #66D240",
"b. c #6AD445",
"n. c #6CC251",
"m. c #71C559",
"M. c #75D653",
"N. c #B98C2D",
"B. c #A78231",
"V. c #C49530",
"C. c #CD9C33",
"Z. c #CE9F38",
"A. c #D7A537",
"S. c #E5AE36",
"D. c #E4AE38",
"F. c #EBB239",
"G. c #F5BA3C",
"H. c #FCBE3E",
"J. c #FFC13E",
"K. c #FEC341",
"L. c #4A6B83",
"P. c #4D6F89",
"I. c #4E728D",
"U. c #51738B",
"Y. c #557A94",
"T. c #557A95",
"R. c #587E99",
"E. c #5A8595",
"W. c #5A829B",
"Q. c #5D87A4",
"!. c #5F8BAA",
"~. c #628DAB",
"^. c #6195A2",
"/. c #6593B2",
"(. c #6996B7",
"). c #6C9CBD",
"_. c #6AABA1",
"`. c #6D9FC0",
"'. c #6EA2C5",
"]. c #71A3C5",
"[. c #74A9CD",
"{. c #77AED3",
"}. c #78AFD5",
"|. c #77B0D5",
" X c #79B0D6",
".X c #7CB1D8",
/* pixels */
"<.<.<.<.<.<.<.<.<.<.<.<.<.<.<.<.<.<.<.<.<.<.<.<.<.0.t.p.6.<.<.<.<.<.x.y.a.<.<.<.<.<.<.<.<.<.<.<.<.<.<.<.<.<.<.<.<.<.<.<.<.<.<.<.",
"<.<.<.<.<.<.<.<.<.<.<.<.<.<.<.<.<.<.<.<.<.<.<.<.<.k.  0 7.<.<.<.<.<.r.  n <.<.<.<.<.<.<.<.<.<.<.<.<.<.<.<.<.<.<.<.<.<.<.<.<.<.<.",
"<.<.<.<.<.<.<.<.<.<.<.<.<.<.<.<.<.<.<.<.<.<.<.<.<.l.  3 s.l.<.<.q.l.w.  m <.<.<.<.<.<.<.<.<.<.<.<.<.<.<.<.<.<.<.<.<.<.<.<.<.<.<.",
"<.<.<.<.<.<.<.<.<.<.<.<.<.<.<.<.<.<.<.<.<.<.<.<.<.<.<.<.B   0.<.L   s.<.<.<.<.<.<.<.<.<.<.<.<.<.<.<.<.<.<.<.<.<.<.<.<.<.<.<.<.<.",
"<.<.<.<.<.<.<.<.<.<.<.<.<.<.<.<.<.<.<.<.<.<.<.<.<.<.<.<.B   0.<.P   s.<.<.<.<.<.<.<.<.<.<.<.<.<.<.<.<.<.<.<.<.<.<.<.<.<.<.<.<.<.",
"<.<.<.<.<.<.<.<.<.<.<.<.<.<.<.<.<.<.<.<.<.<.<.<.<.<.<.1.B   0.<.P   s.<.<.<.<.<.<.<.<.<.<.<.<.<.<.<.<.<.<.<.<.<.<.<.<.<.<.<.<.<.",
"<.<.<.<.<.<.<.<.<.<.<.<.<.<.<.<.<.<.<.<.<.<.<.<.<.<.<.<.B   0.<.P   s.<.<.<.<.<.<.<.<.<.<.<.<.<.<.<.<.<.<.<.<.<.<.<.<.<.<.<.<.<.",
"<.<.<.<.<.<.<.<.<.<.<.<.<.<.<.<.<.<.<.<.<.<.<.<.<.6.x.a.t   p.a.v   w.s.9.<.<.<.<.<.<.<.<.<.<.<.<.<.<.<.<.<.<.<.<.<.<.<.<.<.<.<.",
"<.<.<.<.<.<.<.<.<.<.<.<.<.<.<.<.<.<.<.<.<.<.<.<.<.q..                   s.<.<.<.<.<.<.<.<.<.<.<.<.<.<.<.<.<.<.<.<.<.<.<.<.<.<.<.",
"<.<.<.<.<.<.<.<.<.<.<.<.<.<.<.<.<.<.<.<.<.<.<.<.<.v..   $ $ $ $ $ $ o   a.4.1.<.<.<.<.<.<.<.<.<.<.<.<.<.<.<.<.<.<.<.<.<.<.<.<.<.",
"<.<.<.<.<.<.<.<.<.<.<.<.<.<.<.<.<.<.<.<.<.<.<.z.2 <   $ N.S.S.S.D.D.A   - 5 t <.<.<.<.<.<.<.<.<.<.<.<.<.<.<.<.<.<.<.<.<.<.<.<.<.",
"<.<.<.<.<.<.<.<.<.<.<.<.<.<.<.<.<.<.<.<.<.<.<.k       $ C.J.J.J.J.J.S       . <.<.<.<.<.<.<.<.<.<.<.<.<.<.<.<.<.<.<.<.<.<.<.<.<.",
"<.<.<.<.<.<.<.<.<.<.<.<.<.<.<.<.<.<.<.<.<.=.%.;.O.O.O.#.F.J.J.J.J.J.V.O.O.O.U e.w.g.<.<.<.<.<.<.<.<.<.<.<.<.<.<.<.<.<.<.<.<.<.<.",
"<.<.<.<.<.<.<.<.<.<.<.<.<.<.<.<.<.<.<.<.<..   O.J.J.J.J.J.J.J.J.J.J.J.J.J.J.A.    L <.<.<.<.<.<.<.<.<.<.<.<.<.<.<.<.<.<.<.<.<.<.",
"<.<.<.<.<.<.<.<.<.<.<.<.<.<.<.<.<.<.<.<.<..   O.J.J.J.J.J.J.J.J.J.J.J.K.K.K.A.    L <.<.<.<.<.<.<.<.<.<.<.<.<.<.<.<.<.<.<.<.<.<.",
"<.<.<.<.<.<.<.<.<.<.<.<.<.<.<.<.<.<.<.<.<.+   @.J.J.J.J.J.J.J.J.J.J.J.J.J.J.Z.    P <.<.<.<.<.<.<.<.<.<.<.<.<.<.<.<.<.<.<.<.<.<.",
"<.<.<.<.<.<.<.<.<.<.<.<.<.<.<.<.<.<.<.<.<..   @.J.J.J.J.J.J.J.J.J.J.J.J.J.J.Z.    ` <.<.<.<.<.<.<.<.<.<.<.<.<.<.<.<.<.<.<.<.<.<.",
"<.<.<.<.<.<.<.<.<.<.<.<.<.<.<.<.<.<.<.<.<..   @.J.J.J.J.J.J.J.J.J.J.J.J.K.K.Z.    ' <.<.<.<.<.<.<.<.<.<.<.<.<.<.<.<.<.<.<.<.<.<.",
"<.<.<.<.<.<.<.<.<.<.<.<.<.<.<.<.<.<.<.<.q..   O.J.J.J.J.J.J.J.J.J.J.J.J.J.J.Z.    I <.<.<.<.<.<.<.<.<.<.<.<.<.<.<.<.<.<.<.<.<.<.",
"<.<.<.<.<.<.<.<.<.<.<.<.<.<.<.<.<.<.<.<.q..   O.J.J.J.J.J.J.J.J.J.J.J.J.J.K.Z.    ' <.<.<.<.<.<.<.<.<.<.<.<.<.<.<.<.<.<.<.<.<.<.",
"<.<.<.<.<.<.<.<.<.<.<.<.<.<.<.<.<.<.<.<.q..   O.J.J.J.J.J.J.J.J.J.J.J.J.J.J.Z.    ' <.<.<.<.<.<.<.<.<.<.<.<.<.<.<.<.<.<.<.<.<.<.",
"<.<.<.<.<.<.<.<.<.<.<.<.<.<.<.<.<.<.<.<.q..   O.J.J.J.J.J.J.J.J.J.J.J.J.J.J.Z.    ' <.<.<.<.<.<.<.<.<.<.<.<.<.<.<.<.<.<.<.<.<.<.",
"<.<.<.<.<.<.<.<.<.<.<.<.<.<.<.<.<.<.<.<.6.+   O.K.K.K.K.K.J.J.J.J.J.J.J.J.K.Z.    ` <.<.<.<.<.<.<.<.<.<.<.<.<.<.<.<.<.<.<.<.<.<.",
"<.<.<.<.<.<.<.<.<.<.<.<.<.<.<.<.<.<.<.<.<.+   @.J.J.J.J.J.J.J.J.J.J.J.J.J.J.Z.    ` <.<.<.<.<.<.<.<.<.<.<.<.<.<.<.<.<.<.<.<.<.<.",
"<.<.<.<.<.<.<.<.<.<.<.<.<.<.<.<.<.<.<.<.<..   X.H.J.J.J.J.J.J.J.J.J.J.J.D.C.B.    B v.q.9.<.<.<.<.<.<.<.<.<.<.<.<.<.<.<.<.<.<.<.",
"<.<.<.<.<.<.<.<.<.<.<.<.<.<.<.<.<.,.r.d.d.    9 S S D.J.J.J.J.J.J.J.J.J.F X X     + - 3 J q.<.<.<.<.<.<.<.<.<.<.<.<.<.<.<.<.<.<.",
"<.<.<.<.<.<.<.<.<.<.<.<.<.<.<.<.<.<                 C.J.J.J.J.J.J.J.J.J.D               3 z.1.<.<.<.<.<.<.<.<.<.<.<.<.<.<.<.<.<.",
"<.<.<.<.<.<.<.<.<.<.<.<.<.<.<.<.1.1   O   O         N.D.D.D.D.D.F.D.D.D.A     + e q q q y z.4.1.<.<.<.<.<.<.<.<.<.<.<.<.<.<.<.<.",
"<.<.<.<.<.<.<.<.<.<.<.<.<.<.<.a d E././././.=       @ $ $ $ $ % % % $ $ o     R [.[.[.[.W.v B c.<.<.<.<.<.<.<.<.<.<.<.<.<.<.<.<.",
"<.<.<.<.<.<.<.<.<.<.<.<.<.<.<.  * /.|..X|.}.;                                 E {.|.|.|.R.  O h.<.<.<.<.<.<.<.<.<.<.<.<.<.<.<.<.",
"<.<.<.<.<.<.<.<.<.<.<.<.<.<.*.W ! `.|..X|.}.;       o & & : 7 6 7 7 %         Q {.|.|.{.Q.r y u.g.s.1.<.<.<.<.<.<.<.<.<.<.<.<.<.",
"<.<.<.<.<.<.<.<.<.<.<.<., . ~ {.{.|.|..X|.|.;       A A.A.A.S.D.D.S.K         ~ {.|.|.{.{.'.(.y . N 4.<.<.<.<.<.<.<.<.<.<.<.<.<.",
"<.<.<.<.<.<.<.<.<.<.<.<.#   ~ |.|.|.|..X|.|.;       S J.J.K.J.J.K.J.X.        ) {.|.|.|.|.}.[.R   V 4.<.<.1.<.<.<.<.<.<.<.<.<.<.",
"<.<.<.<.<.<.<.<.<.<.%.x ^ Q T.|.|.|.|..X|.|.(./.L.  A J.J.K.J.J.K.J.X.    Q.~.'.{.|.|.|.|.|.{.!.I. ._ _ z.1.<.<.<.<.<.<.<.<.<.<.",
"<.<.<.<.<.<.<.<.1.&.  = ).|..X|.|.|.|..X|.|..X|.R.  i J.J.K.J.J.K.J.X.  O [.|.|.{.|..X|..X|.|.|..X~.    n.<.<.<.<.<.<.<.<.<.<.<.",
"<.<.<.<.<.<.<.<.5.%.  = ).|..X|.|.|.|..X|.|..X|.R.  i J.J.K.J.J.K.J.X.  O [.|..X|.|..X|..X|.|.|.|.~.    n.<.<.<.<.<.<.<.<.<.<.<.",
"<.<.<.<.<.<.<.<.5.%.  = `.|..X|.|..X|..X|.|..X|.R.  u J.J.K.J.J.K.J.X.  O [.|.|.|.|..X|.|.|.|.|.|.~.    m.<.<.<.<.<.<.<.<.<.<.<.",
"<.<.<.<.<.<.<.<.5.z   = ).|..X|.|..X|..X|.|.|.|.R.  9 H.J.K.J.J.K.J.X.  O [.|.|.|.|..X|.|.|.|.|.|.~.    m.1.<.<.<.<.<.<.<.<.<.<.",
"<.<.<.<.<.<.<.e.n M L.U.[.|..X|.|.|.|..X|.|..X|.T.  8 H.J.J.J.J.K.J.X.  O [.|.|.|.|..X|.|.|.|.|.|.].P.P.j.d.n.<.<.<.<.<.<.<.<.<.",
"<.<.<.<.<.<.<.B   Q |.|.|.|..X|.|.|.|..X|.|..X|.T.  7 G.J.J.J.J.K.J.X.  O [.|.|.|.|..X|.|.|.|.|.|.|.|.}.T   V 5.<.<.<.<.<.<.<.<.",
"<.<.<.<.<.<.<.B   Q |.|.|.|..X|.|.|.|..X|.|.|.|.W.  7 G.J.J.J.J.J.J...  O [.|.|.|.|..X|.|.|.|.|.|..X|.}.T   V 8.<.<.<.<.<.<.<.<.",
"<.<.<.<.<.<.<.n   Q |.|.|.|..X|.|.|.|..X|.|..X|.W.  @ F G ......X.G 7   O [.|.|.|.|..X|.|.|.|.|.|.|.|.}.T   V 8.<.<.<.<.<.<.<.<.",
"<.<.<.<.<.<.<.b   Q |.|.|.|..X|.|.|.|..X|.|..X|.R.                      O [.|.|.|.|..X|.|.|.|.|.|..X|.}.T   N q.<.<.<.<.<.<.<.<.",
"<.<.<.<.9.t.r.M e { |.|.|.|..X|.|.|.|..X|.|.| ( T                         | | R.|.|..X|.|.|.|.|.|.|.|.|.P.( } f.n.5.<.<.<.<.<.<.",
"<.<.<.<.c.    ^.{.|.|.|.|.|..X|.|.|.|..X|.|.e                                 T |.|..X|..X|.|..X|.|.|.|..X|.~.=   n.<.<.<.<.<.<.",
"<.<.<.<.x.    /.|..X|.|.|.|..X|.|.|.|..X|.|.e                                 T |.|..X|.|.|.|..X|.|.|.|..X|.~.=   n.<.<.<.<.<.<.",
"<.<.<.<.x.    /.|..X|.|.|.|..X|.|.|.|.|.|.|.e                                 T |.|..X|.|.|.|..X|.|.|.|.|.|.~.=   x.<.<.<.<.<.<.",
"<.<.<.<.x.    /.|.|.|.|.|.|..X|.|.|.|.|.|.|.e                                 Y |.|..X|.|.|.|..X|.|.|.|.|.|.~.=   n.<.<.<.<.<.<.",
"<.<.<.<.x.    /.|.|.|.|.|.|..X|.|.|.|.~.! ) B.O.O.O.+.O.O.O.+.+.+.O.O.O.@.O.O.o.{ { ].|.|.|.|..X|..X|.|.|.|.~.=   n.<.<.<.<.<.<.",
"<.<.<.<.x.    /.|.|.|.|.|.|..X|.|.|.|.U.    H.H.H.J.J.J.J.J.J.J.J.J.J.J.J.J.J.C.    /.|.|.|.|..X|..X|.|.|.|.~.=   n.<.<.<.<.<.<.",
"<.<.<.<.x.    /.|.|.|.|.|.|..X|.|.|.|.U.    H.H.H.J.J.J.J.J.J.J.J.J.J.J.J.J.J.C.    (.|.|.|.|.|.|..X|.|.|.|.~.=   n.<.<.<.<.<.<.",
"<.<.<.<.x.    /.|..X|.|.|.|..X|.|.|.|.U.  . J.J.J.J.J.K.J.J.J.J.J.J.K.J.J.K.J.C.    /.|.|.|.|.|.|.|.|.|.|.|.~.=   x.<.<.<.<.<.<.",
"<.<.<.<.x.    (.|..X|.|.|.|..X|.|.|..XU.    J.J.J.J.J.K.J.K.J.J.J.J.K.J.J.K.J.C.    /.|.|.|.|.|.|..X|.|.|.|.~.=   x.<.<.<.<.<.<.",
"<.<.<.<.x.    T.~.).|.|.|.|..X|.{.T.L.} g g O.O.A.J.J.J.J.K.J.J.J.J.K.J.J.+.O.o.a a  .T.~.|.|.|.|..X|.|.~.T.| *   k.<.<.<.<.<.<.",
"<.<.<.<.x.    X   ! |.|.|.|..X}.].w   l <.1.    O.J.J.J.J.J.J.J.J.J.K.J.H..   a <.<.1   R |.|.|.|.|.|.|.T   X     k.<.<.<.<.<.<.",
"<.<.<.<.k.        Q |.|.|.|..X}._.e O C q.q.    O.J.J.J.J.J.J.J.J.J.J.J.G.    a M.b.1   R |.|.|.|..X|.|.T         x.<.<.<.<.<.<.",
"<.<.<.<.<.<.<.w.  Q |.|.|.|.[   + l.8.4.4.8.q.c.H F F F F F F F F F F D F M.q.8.4.1.4.q.i.q e W.|.|.|.}.T   1 ,.q.<.<.<.<.<.<.<.",
"<.<.<.<.<.<.<.e.  ! |.|.|. X/     <.<.<.<.<.<.<.j                       . <.<.<.<.<.<.<.<.  O T.|.|.|.}.T   2 v.<.<.<.<.<.<.<.<.",
"<.<.<.<.<.<.<.a.n c ^ ~ ~ / Z r.r.<.<.<.<.<.<.<.l.a p X             > f j <.<.<.<.<.<.<.<.f h ] I.U.U.I.Z s z <.<.<.<.<.<.<.<.<.",
"<.<.<.<.<.<.<.<.5.k.        m <.<.<.<.<.<.<.<.<.<.<.1.>             j <.<.<.<.<.<.<.<.<.<.<.<.h         :.8.9.<.<.<.<.<.<.<.<.<.",
"<.<.<.<.<.<.<.<.1.3.5 5 5 4 I <.<.<.<.<.<.<.<.<.<.<.<.<             k <.<.<.<.<.<.<.<.<.<.<.<.-.. + . . 9.5.<.<.<.<.<.<.<.<.<.<.",
"<.<.<.<.<.<.<.<.<.<.<.<.<.<.<.<.<.<.<.<.<.<.<.<.<.<.<.0.%.f     k &.<.<.<.<.<.<.<.<.<.<.<.<.<.<.<.<.<.<.<.<.<.<.<.<.<.<.<.<.<.<.",
"<.<.<.<.<.<.<.<.<.<.<.<.<.<.<.<.<.<.<.<.<.<.<.<.<.<.<.<.5.%.    >.<.<.<.<.<.<.<.<.<.<.<.<.<.<.<.<.<.<.<.<.<.<.<.<.<.<.<.<.<.<.<.",
"<.<.<.<.<.<.<.<.<.<.<.<.<.<.<.<.<.<.<.<.<.<.<.<.<.<.<.<.5.:.< 1 2.<.<.<.<.<.<.<.<.<.<.<.<.<.<.<.<.<.<.<.<.<.<.<.<.<.<.<.<.<.<.<."
};
