/* XPM */
static char *d976c9362f044b73e1619802c29b2af1lGJKpfhVAOf5fdW8[] = {
/* columns rows colors chars-per-pixel */
"64 64 184 2 ",
"   c #020202",
".  c #0C0603",
"X  c #070803",
"o  c #0B0A05",
"O  c #04070A",
"+  c #0C0408",
"@  c #05080B",
"#  c #0A0A0A",
"$  c #110607",
"%  c #130D05",
"&  c #120D0A",
"*  c #091106",
"=  c #0C1D05",
"-  c #0C140A",
";  c #0E1A0A",
":  c #141106",
">  c #1B1306",
",  c #13130C",
"<  c #1B1509",
"1  c #121C0A",
"2  c #0A0D11",
"3  c #0D1115",
"4  c #151A1F",
"5  c #22190C",
"6  c #2A1D0A",
"7  c #0D2005",
"8  c #152D0C",
"9  c #15330A",
"0  c #19330F",
"q  c #182C11",
"w  c #2C230F",
"e  c #2E2411",
"r  c #392912",
"t  c #203514",
"y  c #131A23",
"u  c #181E25",
"i  c #1F2B35",
"p  c #1F2C39",
"a  c #292D25",
"s  c #202B35",
"d  c #2C3236",
"f  c #24333D",
"g  c #343739",
"h  c #412E0F",
"j  c #422E10",
"k  c #443214",
"l  c #4A3617",
"z  c #543F19",
"x  c #1C420E",
"c  c #1D4D0C",
"v  c #1E4411",
"b  c #22560F",
"n  c #204612",
"m  c #214B12",
"M  c #324615",
"N  c #245712",
"B  c #276711",
"V  c #2A6D12",
"C  c #2C7014",
"Z  c #317717",
"A  c #307C15",
"S  c #2B493B",
"D  c #3D4030",
"F  c #334F32",
"G  c #36742E",
"H  c #58451B",
"J  c #664E1E",
"K  c #74571D",
"L  c #75591D",
"P  c #496D1B",
"I  c #63631F",
"U  c #6E5421",
"Y  c #755B21",
"T  c #795D22",
"R  c #497A35",
"E  c #2A3743",
"W  c #2B3D4C",
"Q  c #2F3E4C",
"!  c #315443",
"~  c #2F4557",
"^  c #314554",
"/  c #344952",
"(  c #34495A",
")  c #3D4F65",
"_  c #395165",
"`  c #3A556A",
"'  c #454541",
"]  c #645F58",
"[  c #5C6459",
"{  c #6F6554",
"}  c #63615E",
"|  c #465E6F",
" . c #46667A",
".. c #536474",
"X. c #646963",
"o. c #886B26",
"O. c #8C6D26",
"+. c #906D27",
"@. c #9E7729",
"#. c #957934",
"$. c #A47E2C",
"%. c #997E44",
"&. c #328415",
"*. c #378C1A",
"=. c #399B17",
"-. c #3A931B",
";. c #3B9B19",
":. c #3FA31C",
">. c #3EA919",
",. c #3C8A2D",
"<. c #40811C",
"1. c #41A41D",
"2. c #43AC1D",
"3. c #44B21D",
"4. c #48BD1E",
"5. c #4B893A",
"6. c #4E9034",
"7. c #4DBE27",
"8. c #51BD2D",
"9. c #5AB938",
"0. c #49C21E",
"q. c #4DCF1F",
"w. c #4CC522",
"e. c #4ECD21",
"r. c #53CE26",
"t. c #52C02B",
"y. c #4FD022",
"u. c #55D12A",
"i. c #5CC03B",
"p. c #59884C",
"a. c #92842B",
"s. c #A5802C",
"d. c #AC832C",
"f. c #AC8331",
"g. c #BE9232",
"h. c #C9922F",
"j. c #C59432",
"k. c #C99733",
"l. c #D5A335",
"z. c #D8A536",
"x. c #E2AC3B",
"c. c #EAB137",
"v. c #EAB13A",
"b. c #F5BB3E",
"n. c #FCBE3C",
"m. c #FEC13C",
"M. c #9A875B",
"N. c #BB984C",
"B. c #AC8F54",
"V. c #BC9A52",
"C. c #F6BD44",
"Z. c #FEC342",
"A. c #FCCE68",
"S. c #FBD172",
"D. c #466882",
"F. c #547A94",
"G. c #557B98",
"H. c #5C839E",
"J. c #5D85A1",
"K. c #5F8AA7",
"L. c #6287A5",
"P. c #6189A6",
"I. c #628CAA",
"U. c #6594B5",
"Y. c #6996B7",
"T. c #6898BA",
"R. c #6A99BA",
"E. c #6E9FC2",
"W. c #709FC3",
"Q. c #6EA1C3",
"!. c #74A5C8",
"~. c #74AACD",
"^. c #7BAACE",
"/. c #77AFD4",
"(. c #79AED4",
"). c #77B0D5",
"_. c #78B0D5",
"`. c #7BB3D9",
"'. c #7CB2D8",
"]. c #F4D486",
"[. c #FCEFCC",
"{. c #FFF0D2",
"}. c #E7ECE5",
"|. c white",
/* pixels */
"q.q.q.q.q.q.q.q.q.q.q.q.q.q.q.q.q.q.q.q.q.q.q.q.q.q.q.q.q.q.q.q.q.q.q.q.q.q.q.q.q.q.q.q.q.q.q.q.q.q.q.q.q.q.q.q.q.q.q.q.q.q.q.q.",
"q.q.q.q.q.q.q.q.q.q.q.q.q.q.q.q.q.q.q.q.q.q.q.q.q.q.q.q.q.q.q.q.q.q.q.q.q.q.q.q.q.q.q.q.q.q.q.q.q.q.q.q.q.q.q.q.q.q.q.q.q.q.q.q.",
"q.q.q.q.q.q.q.q.q.q.q.q.q.q.q.q.q.q.q.q.q.q.q.q.q.q.q.q.q.q.q.q.q.q.q.q.q.q.q.q.q.q.q.q.q.q.q.q.q.q.q.q.q.q.q.q.q.q.q.q.q.q.q.q.",
"q.q.q.q.q.q.q.q.q.q.q.q.q.q.q.q.q.q.q.q.q.q.q.q.q.q.q.q.q.q.q.q.q.q.q.q.q.q.q.q.q.q.q.q.q.q.q.q.q.q.q.q.q.q.q.q.q.q.q.q.q.q.q.q.",
"q.q.q.q.q.q.q.q.q.q.q.q.q.q.q.q.q.q.q.q.q.q.q.q.q.q.q.q.q.q.q.q.q.q.q.q.q.q.q.q.q.q.q.q.q.q.q.q.q.q.q.q.q.q.q.q.q.q.q.q.q.q.q.q.",
"q.q.q.q.q.q.q.q.q.q.q.q.q.q.q.q.q.q.q.q.q.q.q.q.q.q.q.q.q.q.q.q.q.q.q.q.q.q.q.q.q.q.q.q.q.q.q.q.q.q.q.q.q.q.q.q.q.q.q.q.q.q.q.q.",
"q.q.q.q.q.q.q.q.q.q.q.q.q.q.q.q.q.q.q.q.q.q.q.q.q.q.q.q.q.q.q.q.q.q.q.q.q.q.q.q.q.q.q.q.q.q.q.q.q.q.q.q.q.q.q.q.q.q.q.q.q.q.q.q.",
"q.q.q.q.q.q.q.q.q.q.q.q.q.q.q.q.q.q.q.q.y.e.q.q.r.r.q.q.q.q.q.q.q.q.q.q.q.q.q.q.q.q.q.q.q.q.q.q.q.q.q.q.q.q.q.q.q.q.q.q.q.q.q.q.",
"q.q.q.q.q.q.q.q.q.q.q.q.2.8 8 8 8 8 8 t t 8 8 0 t 1.q.q.q.q.q.q.q.q.q.q.q.q.q.q.q.q.q.q.q.q.q.q.q.q.q.q.q.q.q.q.q.q.q.q.q.q.q.q.",
"q.q.q.q.q.q.q.q.q.q.q.q.:.                  X X # -.q.q.q.q.q.q.q.q.q.q.q.q.q.q.q.q.q.q.q.q.q.q.q.q.q.q.q.q.q.q.q.q.q.q.q.q.q.q.",
"q.q.q.q.q.q.q.q.q.q.;.*.,.^ ^ ^ ^ ^ ^ ^ ^ / / / / G *.5.5.5.9.q.q.q.q.q.q.q.q.q.q.q.q.q.q.q.q.q.q.q.q.q.q.q.q.q.q.q.q.q.q.q.q.q.",
"q.q.q.q.q.q.q.q.q.q.9   p _._._._._._._._.(.~.~.(.W O O O   p.q.q.e.q.q.q.q.q.q.q.q.q.q.q.q.q.q.q.q.q.q.q.q.q.q.q.q.q.q.q.q.q.q.",
"q.q.q.q.q.q.q.q.q.q.9   p _._._.)._._._.)._.(._./.W @ @ O   p.u.u.q.q.q.q.q.q.q.q.q.q.q.q.q.q.q.q.q.q.q.q.q.q.q.q.q.q.q.q.q.q.q.",
"q.q.q.q.q.q.q.q.q.q.0 # f `.`.`.'.`.`.`.'._._.`._.E.R.R.R.Y.| d g u.q.q.q.q.q.q.q.q.q.q.q.q.q.q.q.q.q.q.q.q.q.q.q.q.q.q.q.q.q.q.",
"q.q.q.q.q.q.q.q.q.q.9   p ).)./.)./.)./.)./.).).).).).).).).~ O # u.q.q.q.q.q.q.q.q.q.q.q.q.q.q.q.q.q.q.q.q.q.q.q.q.q.q.q.q.q.q.",
"q.q.q.q.q.q.q.q.q.q.0 X u F.F.F.F.F.F.F.F.F.H._._.`._./././.D.W Q 6.6.9.q.q.q.q.q.q.q.q.q.q.q.q.q.q.q.q.q.q.q.q.q.q.q.q.q.q.q.q.",
"q.q.q.q.q.q.q.q.q.q.9                       y _._.).)././././.).!.+ . R q.q.q.q.q.q.q.q.q.q.q.q.q.q.q.q.q.q.q.q.q.q.q.q.q.q.q.q.",
"q.q.q.q.q.q.q.q.q.q.9                       y )._.).).).).).).).!.+ . R q.q.q.q.q.q.q.q.q.q.q.q.q.q.q.q.q.q.q.q.q.q.q.q.q.q.q.q.",
"q.q.q.q.q.q.q.>.x x ; X i P.P.P.P.P.K.P.P.P.L.f f f f ~ _._.(.(.^.P.L...D F r.q.q.q.q.q.q.q.q.q.q.q.=.x x e.q.q.q.q.q.q.q.q.q.q.",
"q.q.q.q.q.q.q.=.        p ).(._.).)._.).)._.R.        y _././././././.) $ 1 e.q.q.q.q.q.q.q.q.q.q.q.&.    w.q.q.q.q.q.q.q.q.q.q.",
"q.q.q.q.q.2.:.,.f f f f _ _._._._._._._._.'.W.f f f f W H.H.H.H.H.^.^...E S :.;.3.q.q.q.q.q.q.q.1.:.Z x x w.q.q.q.q.q.q.q.q.q.q.",
"q.q.q.q.q.7   W /./.).)._.).).).).).).).).)._.).).).).R.        # ^././._.Q.O   B q.q.q.q.q.q.q.;   b q.q.q.q.q.q.q.q.q.q.q.q.q.",
"q.q.q.q.q.7   W _._._._.)._._._._._._._._._.)._._._._.R.        O ^./././.Q.O   B q.q.q.q.q.q.q.;   b q.q.q.q.q.q.q.q.q.q.q.q.q.",
"q.q.q.q.q.8 # ^ `.`.'.'.'.'.`.'.`.'.`.`.`.`.'.`.`.`.`._.P.P.P.P.J.f f F._.!.3 # C q.q.q.q.q.q.q.q # N q.q.q.q.1.m m m m Z q.q.q.",
"q.q.q.q.q.=   W _._._._._._._._._._._._._._._._._._._._._._._._./.     ._.Q.@   B q.q.q.q.q.q.q.;   b q.q.q.q.-.        x q.q.q.",
"q.q.q.q.q.c 9 ! I.I.~._._._._._._._._._._._._._._._._._._._._._.(.p i  .I.G.s s G 2.3.q.q.0.3.3.1 X m 2.2.3.3.-.9 9 9 9 V q.q.q.",
"q.q.q.q.q.q.q.=.    U./././././././././././././././././././././.(.).(._   3 /.(.`   * w.q.A                   c q.q.q.q.q.q.q.q.",
"q.q.q.q.q.q.q.=.    U._._._._._._._._._._._._._._._._._._._._._._.(.(._   3 ~.).`   * w.q.A                   c q.q.q.q.q.q.q.q.",
"q.q.q.q.q.q.q.q.2.1.S f _ _._._._._._._._._._._._._._._._._._.(._.'._.R.J.J.E f u X # v n I g.g.g.g.g.g.g.g.g.a.n n 4.q.q.q.q.q.",
"q.q.q.q.q.q.q.q.q.q.9   p )./.).)././.)._././.).)././._.)././._.)./.).(._.Q.O             K m.m.m.m.m.m.m.m.m.d.    3.q.q.q.q.q.",
"q.q.q.q.q.q.q.q.q.q.b 9 S Y.Y.Y.Y.R._._._._._._._._._._._._._._._._._._.`.Q.2 X X X O w w O.Z.Z.Z.Z.Z.Z.Z.Z.Z.g.w e 2.3.0.q.q.q.",
"q.q.q.q.q.q.q.q.q.q.q.q.:.        p (.)._.).).).).).).).).).).).).).).).).Q.O       . c.m.m.m.m.m.m.m.m.m.m.m.m.m.m.6   x q.q.q.",
"q.q.q.q.q.q.q.q.q.q.q.q.:.        p (._._._.(._._._._._._._._._._._._._./.Q.O       . c.m.n.m.m.m.m.m.m.m.m.m.m.m.m.6   x q.q.q.",
"q.q.q.q.q.q.q.q.q.q.A B P d.d.e # 4 ^ ^ ^ ^ _ '.'.'.'.'.'.'.'.'.'.'.'.F.^ W # # # O & v.Z.Z.Z.Z.J H M.{.{.A.Z.S.[.[.a # n q.q.q.",
"q.q.q.q.q.q.q.q.q.q.9   h m.m.h             y ).).).).).).).).).).).)._             . c.m.m.m.m.%   X.|.|.A.m.].|.|.a   x q.q.q.",
"q.q.q.q.q.q.q.e.w.w.M 5 z Z.Z.k X X       X u W.Q.Q.Q.Q.W.W.Q.Q.Q.W.W.( X X X X X X & v.Z.Z.Z.m.& X [ }.}.A.Z.].}.}.a X v q.q.q.",
"q.q.q.q.q.q.q.=.    l.m.m.m.m.r                                                     . c.m.m.m.m.%         z.m.d.        x q.q.q.",
"q.q.q.q.q.q.q.=.    l.m.m.m.m.r                                                     . c.m.m.m.m.%         z.m.d.        x q.q.q.",
"q.q.q.q.q.q.q.=.X X z.Z.Z.Z.Z.k X X X X X X X X X Y s.s.s.$.s.s.s.s.s.z X X X X X X & v.Z.Z.Z.Z.d.$.$.$.s.v.Z.x.s.s.5 X n q.q.q.",
"q.q.q.q.q.q.q.=.    l.m.m.m.m.h                   d.m.m.m.m.m.m.m.m.m.L             . c.m.m.m.m.m.m.m.m.m.m.m.m.m.m.6   x q.q.q.",
"q.q.e.e.e.e.e.;.X X z.Z.Z.Z.Z.k X X X X X X X X X f.Z.Z.Z.Z.Z.Z.Z.Z.Z.Y X X X X X X & v.Z.Z.C.C.Z.Z.Z.Z.Z.Z.Z.Z.Z.Z.w X v q.q.q.",
"q.q.-.              l.m.m.m.m.j                   d.m.m.m.m.m.m.m.m.m.L             . c.m.N.} } C.m.m.m.m.m.m.m.m.m.6   x q.q.q.",
"q.q.*.              l.m.m.m.m.h                   d.m.m.m.m.m.m.m.m.m.L             . c.m.N.} ] C.m.m.m.m.m.m.m.m.m.6   x q.q.q.",
"q.q.4.&.&.; # # # # J Y $.Z.Z.k # # # & & # # # # H Y +.Z.Z.Z.Z.Z.Z.Z.T # # # X X # # U T #.V.V.B.B.B.B.B.B.B.%.Y Y <.&.=.q.q.q.",
"q.q.q.q.q.=             j m.m.j       o % .           6 m.m.m.m.m.m.m.L                   K m.Z.{ } } } } } } '     3.q.q.q.q.q.",
"q.q.q.q.q.9 ; - X X X X l Z.Z.l & & X & < : X X X X X e Z.Z.Z.Z.Z.Z.Z.Y X X X X X X X X X Y b.C.{ } } } } } } ' ; - 4.q.q.q.q.q.",
"q.q.q.q.q.q.q.=.        k m.m.m.n.j.  % % o   X       6 m.m.m.m.m.m.m.L                   X X X X   X     X   c q.q.q.q.q.q.q.q.",
"q.q.q.q.q.q.q.=.        j m.m.m.n.h.% % % o : > .     6 m.m.m.m.m.m.m.L                                       c q.q.q.q.q.q.q.q.",
"q.q.q.q.q.q.q.0.A A ; X 5 T T x.n.j.< < < < < < < X X : T T k.Z.Z.Z.Z.g.O.o.# X X X X X X x A A A A A A A A A =.q.q.q.q.q.q.q.q.",
"q.q.q.q.q.q.q.q.q.q.8         j.n.h.% % > > > %     X       @.m.m.m.m.m.m.c.o             B q.q.q.q.q.q.q.q.q.q.q.q.q.q.q.q.q.q.",
"q.q.q.q.q.q.q.q.q.q.9         k.m.j.X > < < < X X , , #     @.Z.m.m.m.m.m.c.o             B q.q.q.q.q.q.q.q.q.q.q.q.q.q.q.q.q.q.",
"q.q.q.q.q.q.q.q.q.q.q.e.1.X X o o o : < < < X X , , , , X X X % > m.m.m.m.v.% X X   - w.e.e.q.q.q.q.q.q.q.q.q.q.q.q.q.q.q.q.q.q.",
"q.q.q.q.q.q.q.q.q.q.q.q.:.            > :     X - , #           . m.m.m.m.v.o       * w.q.q.q.q.q.q.q.q.q.q.q.q.q.q.q.q.q.q.q.q.",
"q.q.q.q.q.q.q.q.q.q.q.q.4.V V V V V V C 8 # # # , , # # # # # # # +.+.O.+.o.Z V V C A e.q.q.q.q.q.q.q.q.q.q.q.q.q.q.q.q.q.q.q.q.",
"q.q.q.q.q.q.q.q.q.q.q.q.q.q.q.q.q.q.q.q.x X X X X     @ O O O             = e.e.q.q.q.q.q.q.q.q.q.q.q.q.q.q.q.q.q.q.q.q.q.q.q.q.",
"q.q.q.q.q.q.q.q.q.q.q.q.q.q.q.q.q.q.q.q.m * - - X # # 2 - - # # @ # * * * 8 e.e.q.q.q.q.q.q.q.q.q.q.q.q.q.q.q.q.q.q.q.q.q.q.q.q.",
"q.q.q.q.q.q.q.q.q.q.q.q.q.q.q.q.q.q.q.q.e.w.w.w.t.9.8.i.t.w.7.7.i.t.w.w.w.w.q.q.q.q.q.q.q.q.q.q.q.q.q.q.q.q.q.q.q.q.q.q.q.q.q.q.",
"q.q.q.q.q.q.q.q.q.q.q.q.q.q.q.q.q.q.q.q.q.q.q.q.q.q.q.q.q.q.q.q.q.q.q.q.q.q.q.q.q.q.q.q.q.q.q.q.q.q.q.q.q.q.q.q.q.q.q.q.q.q.q.q.",
"q.q.q.q.q.q.q.q.q.q.q.q.q.q.q.q.q.q.q.q.q.q.q.q.q.q.q.q.q.q.q.q.q.q.q.q.q.q.q.q.q.q.q.q.q.q.q.q.q.q.q.q.q.q.q.q.q.q.q.q.q.q.q.q.",
"q.q.q.q.q.q.q.q.q.q.q.q.q.q.q.q.q.q.q.q.q.q.q.q.q.q.q.q.q.q.q.q.q.q.q.q.q.q.q.q.q.q.q.q.q.q.q.q.q.q.q.q.q.q.q.q.q.q.q.q.q.q.q.q.",
"q.q.q.q.q.q.q.q.q.q.q.q.q.q.q.q.q.q.q.q.q.q.q.q.q.q.q.q.q.q.q.q.q.q.q.q.q.q.q.q.q.q.q.q.q.q.q.q.q.q.q.q.q.q.q.q.q.q.q.q.q.q.q.q.",
"q.q.q.q.q.q.q.q.q.q.q.q.q.q.q.q.q.q.q.q.q.q.q.q.q.q.q.q.q.q.q.q.q.q.q.q.q.q.q.q.q.q.q.q.q.q.q.q.q.q.q.q.q.q.q.q.q.q.q.q.q.q.q.q.",
"q.q.q.q.q.q.q.q.q.q.q.q.q.q.q.q.q.q.q.q.q.q.q.q.q.q.q.q.q.q.q.q.q.q.q.q.q.q.q.q.q.q.q.q.q.q.q.q.q.q.q.q.q.q.q.q.q.q.q.q.q.q.q.q.",
"q.q.q.q.q.q.q.q.q.q.q.q.q.q.q.q.q.q.q.q.q.q.q.q.q.q.q.q.q.q.q.q.q.q.q.q.q.q.q.q.q.q.q.q.q.q.q.q.q.q.q.q.q.q.q.q.q.q.q.q.q.q.q.q."
};
