/* XPM */
static char *_ce0d1318de44dc4f8645c4cce15dcaa1p9eR7wBkZgbhUj6[] = {
/* columns rows colors chars-per-pixel */
"64 64 196 2 ",
"   c #FF6600",
".  c #FF6B00",
"X  c #FF7300",
"o  c #FF7B00",
"O  c #78BF1F",
"+  c #6FBF21",
"@  c #72BE21",
"#  c #7BBB21",
"$  c #4DCF1F",
"%  c #5FC61F",
"&  c #53CD1F",
"*  c #5BCB1F",
"=  c #62C71F",
"-  c #6CC61F",
";  c #63CA1F",
":  c #74C41F",
">  c #7EC91C",
",  c #5EC720",
"<  c #54CC20",
"1  c #5BC920",
"2  c #65C421",
"3  c #6CC121",
"4  c #7AC020",
"5  c #8CBE1F",
"6  c #93BD1E",
"7  c #99BB1F",
"8  c #BEA517",
"9  c #A7B41F",
"0  c #ABB61F",
"q  c #A5BD1E",
"w  c #ABBB1D",
"e  c #B2BC17",
"r  c #B4B21F",
"t  c #BDB31E",
"y  c #B1BB1E",
"u  c #B8B81D",
"i  c #92AF23",
"p  c #9DAC24",
"a  c #84B723",
"s  c #8CB423",
"d  c #84BA21",
"f  c #88BC20",
"g  c #94B222",
"h  c #9DB321",
"j  c #99B820",
"k  c #ABA625",
"l  c #A2AA24",
"z  c #ABAC23",
"x  c #B4A126",
"c  c #BCA224",
"v  c #B7AB22",
"b  c #BAA922",
"n  c #A3B220",
"m  c #ABB220",
"M  c #B1B220",
"N  c #EE8804",
"B  c #EE8D08",
"V  c #F78504",
"C  c #FF8400",
"Z  c #FE8B02",
"A  c #E8940B",
"S  c #E99D0B",
"D  c #F39505",
"F  c #FD9402",
"G  c #F39C06",
"H  c #FF9B02",
"J  c #FF9709",
"K  c #F39E08",
"L  c #FF9A0B",
"P  c #FD9F1F",
"I  c #C9A713",
"U  c #CAAD14",
"Y  c #CBAF1F",
"T  c #D3A410",
"R  c #D2AE12",
"E  c #DBA911",
"W  c #DBAF1D",
"Q  c #C1BE16",
"!  c #CBBE13",
"~  c #C2B31D",
"^  c #CBB41D",
"/  c #C4BA1C",
"(  c #CDBC19",
")  c #D8B610",
"_  c #DCBC12",
"`  c #D3B51C",
"'  c #DDB41B",
"]  c #D1BB19",
"[  c #DEB919",
"{  c #E3A40C",
"}  c #E9A40A",
"|  c #ECAA0B",
" . c #FFA301",
".. c #FFAB02",
"X. c #FFA50B",
"o. c #F5A90C",
"O. c #FAAA08",
"+. c #E6B30B",
"@. c #EEBE0E",
"#. c #FFB403",
"$. c #FFBC02",
"%. c #F1B00C",
"&. c #FEB40B",
"*. c #F2BC0C",
"=. c #FFBA0B",
"-. c #E5AC11",
";. c #E7A51F",
":. c #EEA31F",
">. c #E0AB1E",
",. c #EAAC1D",
"<. c #F3A61E",
"1. c #FDA61E",
"2. c #F3AE1C",
"3. c #FDAA1C",
"4. c #EFBB16",
"5. c #E4B21C",
"6. c #EBB61A",
"7. c #E4B819",
"8. c #FFB717",
"9. c #F4BC14",
"0. c #FEBC14",
"q. c #F3B21A",
"w. c #FFB319",
"e. c #FEB818",
"r. c #CB9627",
"t. c #C49C26",
"y. c #CB9E25",
"u. c #DD9525",
"i. c #D49825",
"p. c #D89924",
"a. c #FE8E25",
"s. c #E79325",
"d. c #E59E22",
"f. c #FE9723",
"g. c #F09F20",
"h. c #FF9F20",
"j. c #C4A323",
"k. c #CFA621",
"l. c #D1A322",
"z. c #DFA220",
"x. c #D2A820",
"c. c #E0A022",
"v. c #F1A120",
"b. c #84C21E",
"n. c #8DC71C",
"m. c #91C41B",
"M. c #9DC31B",
"N. c #ACC217",
"B. c #ABCE15",
"V. c #A5C319",
"C. c #AEC11A",
"Z. c #BCC014",
"A. c #B6C917",
"S. c #B3C21A",
"D. c #BBC019",
"F. c #D9C00F",
"G. c #CDC513",
"H. c #C2C812",
"J. c #CCCA14",
"K. c #C7C318",
"L. c #CAC119",
"P. c #D4C316",
"I. c #DCC314",
"U. c #D3C815",
"Y. c #DDCB13",
"T. c #EBC30F",
"R. c #EFCD0E",
"E. c #FFC302",
"W. c #FFCC04",
"Q. c #F4C708",
"!. c #FEC30B",
"~. c #F6CB0E",
"^. c #FECC0C",
"/. c #FED303",
"(. c #F6DF07",
"). c #FFDB04",
"_. c #F6D10E",
"`. c #FFD40C",
"'. c #F4DA0C",
"]. c #FEDC0B",
"[. c #E4C415",
"{. c #ECC016",
"}. c #E6C913",
"|. c #EBCB12",
" X c #F6C015",
".X c #FEC313",
"XX c #F1CA10",
"oX c #FFCB11",
"OX c #EDD211",
"+X c #FFE300",
"@X c #FFEB05",
"#X c #FEE409",
"$X c #FFF403",
"%X c #FFF602",
"&X c #FFF104",
"*X c #FFFE00",
/* pixels */
"$ $ $ $ $ $ $ $ $ $ $ $ $ $ $ $ $ $ $ $ $ $ $ $ $ $ $ $ $ $ $ $ $ $ $ $ $ $ $ $ $ $ $ $ $ $ $ $ $ $ $ $ $ $ $ $ $ $ $ $ $ $ $ $ ",
"$ $ $ $ $ $ $ $ $ $ $ $ $ $ $ $ $ $ $ $ $ $ $ $ $ $ $ $ $ $ $ $ $ $ $ $ $ $ $ $ $ $ $ $ $ $ $ $ $ $ $ $ $ $ $ $ $ $ $ $ $ $ $ $ ",
"$ $ $ $ $ $ $ $ $ $ $ $ $ $ $ $ $ $ $ $ $ $ $ $ $ $ $ $ $ $ $ $ $ $ $ $ $ $ $ $ $ $ $ $ $ $ $ $ $ $ $ $ $ $ $ $ $ $ $ $ $ $ $ $ ",
"$ $ $ $ $ $ $ $ $ $ $ $ $ $ $ $ $ $ $ $ $ $ $ $ $ $ $ $ $ $ $ $ $ $ $ $ $ $ $ $ $ $ $ $ $ $ $ $ $ $ $ $ $ $ $ $ $ $ $ $ $ $ $ $ ",
"$ $ $ $ $ $ $ $ $ $ $ $ $ $ $ $ $ $ $ $ $ $ $ $ $ $ $ $ $ $ $ $ $ $ $ $ $ $ $ $ $ $ $ $ $ $ $ $ $ $ $ $ $ $ $ $ $ $ $ $ $ $ $ $ ",
"$ $ $ $ $ $ $ $ $ $ $ $ $ $ $ $ $ $ $ $ $ $ $ $ $ $ $ $ $ $ $ $ $ $ $ $ $ $ $ $ $ $ $ $ $ $ $ $ $ $ $ $ $ $ $ $ $ $ $ $ $ $ $ $ ",
"$ $ $ $ $ $ $ $ $ $ $ $ $ $ $ $ $ $ $ $ $ $ $ $ $ $ $ $ $ $ $ $ $ $ $ $ $ $ $ $ $ $ $ $ $ $ $ $ $ $ $ $ $ $ $ $ $ $ $ $ $ $ $ $ ",
"$ $ $ $ $ $ $ $ $ $ $ $ $ $ $ $ $ $ $ $ $ $ $ $ $ $ & 2 s k r.r.r.x l @ 1 $ $ $ $ $ $ $ $ $ $ $ $ $ $ $ $ $ $ $ $ $ $ $ $ $ $ $ ",
"$ $ $ $ $ $ $ $ $ $ $ $ $ $ $ $ $ $ $ $ $ $ $ $ $ 3 # h u / [ [ [ ] / q f 3 $ $ $ $ $ $ $ $ $ $ $ $ $ $ $ $ $ $ $ $ $ $ $ $ $ $ ",
"$ $ $ $ $ $ $ $ $ $ $ $ $ $ $ $ $ $ $ $ $ $ $ $ < l j.P .X`.&X$X$X#X`.w.x.k & $ $ $ $ $ $ $ $ $ $ $ $ $ $ $ $ $ $ $ $ $ $ $ $ $ ",
"$ $ $ $ $ $ $ $ $ $ $ $ $ $ $ $ $ $ $ $ $ $ $ @ x {._.@X/.E. . . .#.E.).].OXz # $ $ $ $ $ $ $ $ $ $ $ $ $ $ $ $ $ $ $ $ $ $ $ $ ",
"$ $ $ $ $ $ $ $ $ $ $ $ $ $ $ $ $ $ $ $ $ $ 1 d k.oX`./.$...Z Z Z H  .E.W._.^ 6 * $ $ $ $ $ $ $ $ $ $ $ $ $ $ $ $ $ $ $ $ $ $ $ ",
"$ $ $ $ $ $ $ $ $ $ $ $ $ $ $ $ $ $ $ $ $ $ a y .X/.E.X .             . H $.`.A.3 & $ $ $ $ $ $ $ $ $ $ $ $ $ $ $ $ $ $ $ $ $ $ ",
"$ $ $ $ $ $ $ $ $ $ $ $ $ $ $ $ $ $ $ $ $ $ z ( `.H Z . .               o Z W.G.j & $ $ $ $ & & $ $ $ $ $ $ $ $ $ $ $ $ $ $ $ $ ",
"$ $ $ $ $ $ $ $ $ $ $ $ $ $ $ $ $ $ $ $ $ $ j._ +Xo .                     X W.F.r * $ $ $ $ & & < $ $ $ $ $ $ $ $ $ $ $ $ $ $ $ ",
"$ $ $ $ $ $ $ $ $ $ & + g l c c b h a 1 & $ ` -.H .                       . C } P.; - r 7.9.0.8.w.d.j.p 2 < $ $ $ $ $ $ $ $ $ $ ",
"$ $ $ $ $ $ $ $ & # s r / P.Y.Y.I.G.H.B.n.> / E Z .                       . X S P.V.N.) %.&.&.=.!.XX[.( m g 1 & $ $ $ $ $ $ $ $ ",
"$ $ $ $ $ $ $ & * k y.1.oX#X$X$X+X).).`.J.C.w I o .                           A P.[.@.$... ...$./.$X@X`.:.p.3 1 $ $ $ $ $ $ $ $ ",
"$ $ $ $ $ $ $ # t.6. X&XW.#.o o X X X X Z D _ | Z .                           D *.V o X . . . X X Z ..).#X_.u.g $ $ $ $ $ $ $ $ ",
"$ $ $ $ $ $ $ s u. X`.+X#.H . .         o C | K F .                         . Z O.X .             X F E.+X].g.m & $ $ $ $ $ $ $ ",
"$ $ $ $ $ $ $ v h.#X$XF o                   . C H .                       . o X X                   . . E.+XoX( < $ $ $ $ $ $ $ ",
"$ $ $ $ $ $ $ Y .X/./.o .                   . . o . .                       X . .                     .  .$.#XI.1 $ $ $ $ $ $ $ ",
"$ $ $ $ $ $ $ W `.W.$.                          . . .   . . X X X . . .     . .                         Z  .$X[., $ $ $ $ $ $ $ ",
"$ $ $ $ $ $ $ 5.#X#.H                                   C F #.#.=.#. .C X                               X Z *X}., $ $ $ $ $ $ $ ",
"$ $ $ $ $ $ $ ' ].#.H                             . o H X.X.!.!.^.=.&.L J Z .                           X Z $XY.1 $ $ $ $ $ $ $ ",
"$ $ $ $ $ $ $ ` ]...H                             o Z ^.0.8.oX`.].oX.Xw.=.... .                         X Z @XU.1 $ $ $ $ $ $ $ ",
"$ $ $ $ $ $ $ w w.$.#.                        . X &.!.^.@X$X$X$X$X$X$X$X`.0.#.Z                         F  .9.S.$ $ $ $ $ $ $ $ ",
"$ $ $ $ $ $ $ 7 ,.!.$.. .                     . C !.^.].&X*X*X*X*X*X*X*X].^.=.J . .                   . H #.[ M.$ $ $ $ $ $ $ $ ",
"$ $ $ $ $ $ $ @ k |.^.o .                     C #.0.oX*X*X*X*X*X*X*X*X*X*X$Xw.L Z .                 . X =.R.s 3 $ $ $ $ $ $ $ $ ",
"$ $ $ $ $ $ $ 1 2 w ~ &.Z o                   Z !.].#X*X*X*X*X*X*X*X*X*X*X$XoX=...X               o Z o.e m., < $ $ $ $ $ $ $ $ ",
"$ $ $ $ $ $ $ $ $ d 9 T.G V . . .             Z ^.@X&X*X*X*X*X*X*X*X*X*X*X$X`.!.&.X   . . . . . . N S _ 6 3 $ $ $ $ $ $ $ $ $ $ ",
"$ $ $ $ $ $ $ $ $ $ $ , 7 t O.H C .         . Z .X$X*X*X*X*X*X*X*X*X*X*X*X*X#X`.=.X . o C Z G { R b.; $ $ $ $ $ $ $ $ $ $ $ $ $ ",
"$ $ $ $ $ $ $ $ $ & * 6 Q _ H Z X .         . Z oX&X$X*X*X*X*X*X*X*X*X*X*X$X#X^.=.X . . X o V D } Z.M.: & $ $ $ $ $ $ $ $ $ $ $ ",
"$ $ $ $ $ $ $ $ $ * - ^ T.W.Z o               Z oX@X$X*X*X*X*X*X*X*X*X*X*X$X].^.=.X         . C H Q.P.7 ; $ $ $ $ $ $ $ $ $ $ $ ",
"$ $ $ $ $ $ $ & % ~ ' /.F o . .               Z W.`.].*X*X*X*X*X*X*X*X*X*X$Xe.&....           . . X F Q.( y & $ $ $ $ $ $ $ $ $ ",
"$ $ $ $ $ $ $ 2 s P.9.#.C .                   C #..X`.$X*X*X*X*X*X*X*X*X$X@Xe.X.F .               . C ..T.P.O = $ $ $ $ $ $ $ $ ",
"$ $ $ $ $ $ $ d i.'.+Xo .                     X Z 0.oX@X$X*X*X*X*X*X*X*X@X]..XJ .                   . . W.(.b d $ $ $ $ $ $ $ $ ",
"$ $ $ $ $ $ $ h <.^.W..                       . X ..=.oX`.].$X*X*X$X@X`.oX.XH C .                     . ..$.6.q $ $ $ $ $ $ $ $ ",
"$ $ $ $ $ $ $ 0 3.W.E.                            H ..0..XoX&X$X$X@X#X.X0.&.C X                         H #.0.S.$ $ $ $ $ $ $ $ ",
"$ $ $ $ $ $ $ t 0.E.$.                              X F #.W..X.X0..X!.E.F o                             Z  .`.K.< $ $ $ $ $ $ $ ",
"$ $ $ $ $ $ $ t e.W.E.                              . o Z H J J J J J F o .                             F ..`.L.< $ $ $ $ $ $ $ ",
"$ $ $ $ $ $ $ t w./.W.                                      . X X . .                                   H ..`.L.< $ $ $ $ $ $ $ ",
"$ $ $ $ $ $ $ l a.].@XZ X                     . .                         . X .                         E.).w.t & $ $ $ $ $ $ $ ",
"$ $ $ $ $ $ $ g s.oX)...C .                 . X C .                       . o X .                   X C W.).<.0 & $ $ $ $ $ $ $ ",
"$ $ $ $ $ $ $ # t.q.0.@X..C                 C Z H .                       . C C o .                 C $.).].u.g $ $ $ $ $ $ $ $ ",
"$ $ $ $ $ $ $ , @ j.z.0.!./... .Z C C Z F H 8 T H .                       . X B E Z o         X C #.W.`.q.;.a 3 $ $ $ $ $ $ $ $ ",
"$ $ $ $ $ $ $ & & l t.2._.#XE.#.H F D G | +.9 U H .                         . A ] S D X X X X C F W.`._.>.y.2 1 $ $ $ $ $ $ $ $ ",
"$ $ $ $ $ $ $ $ $ $ < s x r.v.<.2.5.` n : * n U H .                           A G.7 w 9.!.^.`.`.oX1.c.x @ 1 $ $ $ $ $ $ $ $ $ $ ",
"$ $ $ $ $ $ $ $ $ $ & 2 @ # 5 5 n.b.b.- * & z U ...                         X S P.: - m.V.C.S.S.C.6 f @ , & $ $ $ $ $ $ $ $ $ $ ",
"$ $ $ $ $ $ $ $ $ $ $ $ $ $ $ $ $ $ $ $ $ $ z U #.X                       . o S P.* $ & @ # s a # 1 & $ $ $ $ $ $ $ $ $ $ $ $ $ ",
"$ $ $ $ $ $ $ $ $ $ $ $ $ $ $ $ $ $ $ $ $ $ g D.).o .                     X E.) M * $ $ $ $ $ $ $ $ $ $ $ $ $ $ $ $ $ $ $ $ $ $ ",
"$ $ $ $ $ $ $ $ $ $ $ $ $ $ $ $ $ $ $ $ $ $ # w ^.H C .                 X C E.! j & $ $ $ $ $ $ $ $ $ $ $ $ $ $ $ $ $ $ $ $ $ $ ",
"$ $ $ $ $ $ $ $ $ $ $ $ $ $ $ $ $ $ $ $ $ $ , 7 1.W.$.. .               Z ..oXA.3 & $ $ $ $ $ $ $ $ $ $ $ $ $ $ $ $ $ $ $ $ $ $ ",
"$ $ $ $ $ $ $ $ $ $ $ $ $ $ $ $ $ $ $ $ $ $ & 4 b 9.!.W...H o o o Z F #.E.~.Y 5 < $ $ $ $ $ $ $ $ $ $ $ $ $ $ $ $ $ $ $ $ $ $ $ ",
"$ $ $ $ $ $ $ $ $ $ $ $ $ $ $ $ $ $ $ $ $ $ $ 2 s ' 4.`.$.#.H H H  .#.W.~.[.p @ $ $ $ $ $ $ $ $ $ $ $ $ $ $ $ $ $ $ $ $ $ $ $ $ ",
"$ $ $ $ $ $ $ $ $ $ $ $ $ $ $ $ $ $ $ $ $ $ $ $ $ p c f.e.oX#X@X@X].oX3.l.k & $ $ $ $ $ $ $ $ $ $ $ $ $ $ $ $ $ $ $ $ $ $ $ $ $ ",
"$ $ $ $ $ $ $ $ $ $ $ $ $ $ $ $ $ $ $ $ $ $ $ $ $ 3 # n t ^ ' ' ' ^ / 9 d 3 $ $ $ $ $ $ $ $ $ $ $ $ $ $ $ $ $ $ $ $ $ $ $ $ $ $ ",
"$ $ $ $ $ $ $ $ $ $ $ $ $ $ $ $ $ $ $ $ $ $ $ $ $ $ & 3 i k r.r.r.x p @ 1 $ $ $ $ $ $ $ $ $ $ $ $ $ $ $ $ $ $ $ $ $ $ $ $ $ $ $ ",
"$ $ $ $ $ $ $ $ $ $ $ $ $ $ $ $ $ $ $ $ $ $ $ $ $ $ $ $ $ $ $ $ $ $ $ $ $ $ $ $ $ $ $ $ $ $ $ $ $ $ $ $ $ $ $ $ $ $ $ $ $ $ $ $ ",
"$ $ $ $ $ $ $ $ $ $ $ $ $ $ $ $ $ $ $ $ $ $ $ $ $ $ $ $ $ $ $ $ $ $ $ $ $ $ $ $ $ $ $ $ $ $ $ $ $ $ $ $ $ $ $ $ $ $ $ $ $ $ $ $ ",
"$ $ $ $ $ $ $ $ $ $ $ $ $ $ $ $ $ $ $ $ $ $ $ $ $ $ $ $ $ $ $ $ $ $ $ $ $ $ $ $ $ $ $ $ $ $ $ $ $ $ $ $ $ $ $ $ $ $ $ $ $ $ $ $ ",
"$ $ $ $ $ $ $ $ $ $ $ $ $ $ $ $ $ $ $ $ $ $ $ $ $ $ $ $ $ $ $ $ $ $ $ $ $ $ $ $ $ $ $ $ $ $ $ $ $ $ $ $ $ $ $ $ $ $ $ $ $ $ $ $ ",
"$ $ $ $ $ $ $ $ $ $ $ $ $ $ $ $ $ $ $ $ $ $ $ $ $ $ $ $ $ $ $ $ $ $ $ $ $ $ $ $ $ $ $ $ $ $ $ $ $ $ $ $ $ $ $ $ $ $ $ $ $ $ $ $ ",
"$ $ $ $ $ $ $ $ $ $ $ $ $ $ $ $ $ $ $ $ $ $ $ $ $ $ $ $ $ $ $ $ $ $ $ $ $ $ $ $ $ $ $ $ $ $ $ $ $ $ $ $ $ $ $ $ $ $ $ $ $ $ $ $ "
};
