/* XPM */
static char *ffda9e19faf04e8ba621f24faa22afc1nKjdwLFDnoIXAw9C[] = {
/* columns rows colors chars-per-pixel */
"64 64 185 2 ",
"   c #020202",
".  c #0B0603",
"X  c #070805",
"o  c #0B0A05",
"O  c #04070A",
"+  c #0B0408",
"@  c #05080B",
"#  c #090A0A",
"$  c #110607",
"%  c #130D05",
"&  c #120D0A",
"*  c #091106",
"=  c #0C1D06",
"-  c #0D130A",
";  c #0E190A",
":  c #1B1406",
">  c #13130C",
",  c #1B1409",
"<  c #0B0D11",
"1  c #0C1015",
"2  c #20180C",
"3  c #2B1D0B",
"4  c #0D2105",
"5  c #11200B",
"6  c #152D0C",
"7  c #15320B",
"8  c #19380D",
"9  c #162312",
"0  c #1D3411",
"q  c #2E230F",
"w  c #2D2410",
"e  c #2F2C1F",
"r  c #302D10",
"t  c #263913",
"y  c #131B23",
"u  c #1B252D",
"i  c #1D2730",
"p  c #1E2B36",
"a  c #1F2C38",
"s  c #292E27",
"d  c #2A3036",
"f  c #24333D",
"g  c #293738",
"h  c #412E0F",
"j  c #422E10",
"k  c #453315",
"l  c #4D3816",
"z  c #513E1A",
"x  c #1B420E",
"c  c #1D4E0C",
"v  c #1F4510",
"b  c #21550F",
"n  c #204612",
"m  c #214B12",
"M  c #255A13",
"N  c #276711",
"B  c #2A6E12",
"V  c #2E7115",
"C  c #307C15",
"Z  c #327418",
"A  c #3E4B2E",
"S  c #2D4E3B",
"D  c #36762B",
"F  c #5B461B",
"G  c #68501F",
"H  c #74571C",
"J  c #755A1D",
"K  c #4D6F1E",
"L  c #6E5420",
"P  c #735621",
"I  c #775B21",
"U  c #7A5D22",
"Y  c #467931",
"T  c #6B6F24",
"R  c #283540",
"E  c #2B3D4C",
"W  c #2B3F50",
"Q  c #324A4A",
"!  c #2F4657",
"~  c #314554",
"^  c #344952",
"/  c #364C5D",
"(  c #3D4F64",
")  c #3A5265",
"_  c #3C566A",
"`  c #464742",
"'  c #5B6258",
"]  c #6F6554",
"[  c #63615D",
"{  c #515C67",
"}  c #436376",
"|  c #53697E",
" . c #656964",
".. c #836524",
"X. c #8B6B25",
"o. c #906E27",
"O. c #936E28",
"+. c #8B7528",
"@. c #9D7729",
"#. c #957A37",
"$. c #A57F2C",
"%. c #9B7F45",
"&. c #328415",
"*. c #388E19",
"=. c #3A9B17",
"-. c #3A941A",
";. c #3B9C19",
":. c #3FA31B",
">. c #398824",
",. c #43821C",
"<. c #40A41C",
"1. c #41AA1C",
"2. c #44B31D",
"3. c #46BA1D",
"4. c #49BF1F",
"5. c #4C8F33",
"6. c #4B8A39",
"7. c #45A822",
"8. c #4DBE26",
"9. c #59BD37",
"0. c #49C21D",
"q. c #4DCF1F",
"w. c #4CC522",
"e. c #4ECD21",
"r. c #54C92B",
"t. c #52D025",
"y. c #56D12C",
"u. c #60C03E",
"i. c #5A884E",
"p. c #5EB940",
"a. c #A5802C",
"s. c #AC832C",
"d. c #AC8431",
"f. c #BE9232",
"g. c #C9922F",
"h. c #C69532",
"j. c #C99732",
"k. c #D5A435",
"l. c #DAA536",
"z. c #E9AF37",
"x. c #E2AE3E",
"c. c #E9B037",
"v. c #EAB23B",
"b. c #F5BC3F",
"n. c #FCBE3D",
"m. c #FEC13C",
"M. c #BB984C",
"N. c #AC8F55",
"B. c #B89751",
"V. c #9E8E64",
"C. c #F6BD43",
"Z. c #FEC342",
"A. c #F9CD67",
"S. c #4D708A",
"D. c #547A94",
"F. c #5C829E",
"G. c #5D85A1",
"H. c #5F8AA7",
"J. c #6487A5",
"K. c #6189A6",
"L. c #628BA9",
"P. c #6694B5",
"I. c #6996B7",
"U. c #6798BC",
"Y. c #6B9ABB",
"T. c #709FC3",
"R. c #6FA1C3",
"E. c #74A3C7",
"W. c #73A5C9",
"Q. c #74AACD",
"!. c #7AAACF",
"~. c #77AFD4",
"^. c #79AED4",
"/. c #79AFD8",
"(. c #77B0D5",
"). c #78B0D5",
"_. c #7AB0D8",
"`. c #7CB1D8",
"'. c #7CB2D8",
"]. c #F8D483",
"[. c #FCEFCE",
"{. c #FEF0D0",
"}. c #E5ECE3",
"|. c #E9ECE8",
" X c white",
/* pixels */
"q.q.q.q.q.q.q.q.q.q.q.q.q.q.q.q.q.q.q.q.q.q.q.q.q.q.q.q.q.q.q.q.q.q.q.q.q.q.q.q.q.q.q.q.q.q.q.q.q.q.q.q.q.q.q.q.q.q.q.q.q.q.q.q.",
"q.q.q.q.q.q.q.q.q.q.q.q.q.q.q.q.q.q.q.q.q.q.q.q.q.q.q.q.q.q.q.q.q.q.q.q.q.q.q.q.q.q.q.q.q.q.q.q.q.q.q.q.q.q.q.q.q.q.q.q.q.q.q.q.",
"q.q.q.q.q.q.q.q.q.q.q.q.q.q.q.q.q.q.q.q.q.q.q.q.q.q.q.q.q.q.q.q.q.q.q.q.q.q.q.q.q.q.q.q.q.q.q.q.q.q.q.q.q.q.q.q.q.q.q.q.q.q.q.q.",
"q.q.q.q.q.q.q.q.q.q.q.q.q.q.q.q.q.q.q.q.q.q.q.q.q.q.q.q.q.q.q.q.q.q.q.q.q.q.q.q.q.q.q.q.q.q.q.q.q.q.q.q.q.q.q.q.q.q.q.q.q.q.q.q.",
"q.q.q.q.q.q.q.q.q.q.q.q.q.q.q.q.q.q.q.q.q.q.q.q.q.q.q.q.q.q.q.q.q.q.q.q.q.q.q.q.q.q.q.q.q.q.q.q.q.q.q.q.q.q.q.q.q.q.q.q.q.q.q.q.",
"q.q.q.q.q.q.q.q.q.q.q.q.q.q.q.q.q.q.q.q.q.q.q.q.q.q.q.q.q.q.q.q.q.q.q.q.q.q.q.q.q.q.q.q.q.q.q.q.q.q.q.q.q.q.q.q.q.q.q.q.q.q.q.q.",
"q.q.q.q.q.q.q.q.q.q.q.q.q.q.q.q.q.q.q.q.q.q.q.q.q.q.q.q.q.q.q.q.q.q.q.q.q.q.q.q.q.q.q.q.q.q.q.q.q.q.q.q.q.q.q.q.q.q.q.q.q.q.q.q.",
"q.q.q.q.q.q.q.q.q.q.q.q.q.q.q.q.q.q.q.q.q.q.q.q.q.q.q.q.q.q.q.q.q.q.q.q.q.q.t.e.q.q.q.e.e.q.q.q.q.q.q.q.q.q.q.q.q.q.q.q.q.q.q.q.",
"q.q.q.q.q.q.q.q.q.q.q.q.q.q.q.q.q.q.q.q.q.q.q.q.q.q.q.q.q.q.q.q.q.q.q.q.q.e.7.t 0 6 6 0 0 6 6 6 6 6 6 1.q.q.q.q.q.q.q.q.q.q.q.q.",
"q.q.q.q.q.q.q.q.q.q.q.q.q.q.q.q.q.q.q.q.q.q.q.q.q.q.q.q.q.q.q.q.q.q.q.q.q.q.-.# o X                   :.q.q.q.q.q.q.q.q.q.q.q.q.",
"q.q.q.q.q.q.q.q.q.q.q.q.q.q.q.q.q.q.q.q.q.q.q.q.q.q.q.q.q.q.q.q.q.p.6.6.6.>.D ^ ^ ^ ^ ~ ~ ~ ~ ~ ~ ~ ~ D *.;.q.q.q.q.q.q.q.q.q.q.",
"q.q.q.q.q.q.q.q.q.q.q.q.q.q.q.q.q.q.q.q.q.q.q.q.q.q.q.q.q.q.q.q.q.i.  O O O E /.Q.Q.~.).).).).).).).(.p   7 q.q.q.q.q.q.q.q.q.q.",
"q.q.q.q.q.q.q.q.q.q.q.q.q.q.q.q.q.q.q.q.q.q.q.q.q.q.q.q.q.q.q.y.y.i.  O @ @ W ~.)./.).(.).).).(.).)./.a   7 q.q.q.q.q.q.q.q.q.q.",
"q.q.q.q.q.q.q.q.q.q.q.q.q.q.q.q.q.q.q.q.q.q.q.q.q.q.q.q.q.q.y.g d ) I.I.I.I.R.)._.).).'._._._.'._._._.f # 8 q.q.q.q.q.q.q.q.q.q.",
"q.q.q.q.q.q.q.q.q.q.q.q.q.q.q.q.q.q.q.q.q.q.q.q.q.q.q.q.q.q.t.# O ! ~.(.(.(.(.(.(.(.~.(.~.(.~.(.(.(.(.a   7 q.q.q.q.q.q.q.q.q.q.",
"q.q.q.q.q.q.q.q.q.q.q.q.q.q.q.q.q.q.q.q.q.q.q.q.q.q.q.q.9.5.5.Q E S.~.~.~.)._.).).G.D.D.D.D.D.D.D.D.D.u X 7 q.q.q.q.q.q.q.q.q.q.",
"q.q.q.q.q.q.q.q.q.q.q.q.q.q.q.q.q.q.q.q.q.q.q.q.q.q.q.q.Y . + W.(.~.~.~.~.(.(.).).y                       7 q.q.q.q.q.q.q.q.q.q.",
"q.q.q.q.q.q.q.q.q.q.q.q.q.q.q.q.q.q.q.q.q.q.q.q.q.q.q.q.Y . + E.(.(.(.(.(.(.(.).(.y                       7 q.q.q.q.q.q.q.q.q.q.",
"q.q.q.q.q.q.q.q.q.q.w.x x -.q.q.q.q.q.q.q.q.q.q.q.t.A A { J.K.!.^.^.).).~ f f f f D.K.K.K.H.K.K.K.H.K.i X ; x x 2.q.q.q.q.q.q.q.",
"q.q.q.q.q.q.q.q.q.q.w.    &.q.q.q.q.q.q.q.q.q.q.q.e.= $ ( ~.~.~.~.~.~.).y         Y.).(.(./.(.(.(./.(.a         ;.q.q.q.q.q.q.q.",
"q.q.q.q.q.q.q.q.q.q.w.x x &.:.<.q.q.q.q.q.q.q.3.;.;.g R | !.!.F.F.F.F.G.~ f f f f W.'.).).).).).).).)._ f f f f >.:.:.q.q.q.q.q.",
"q.q.q.q.q.q.q.q.q.q.q.q.q.b   ; q.q.q.q.q.q.q.N   O R.(.~.~.!.#         U.(.(.(.(.).(.(.(.(.(.(.(.(.(.(.(.(.~.~.E   4 q.q.q.q.q.",
"q.q.q.q.q.q.q.q.q.q.q.q.q.b   ; q.q.q.q.q.q.q.N   @ R.~.~.~.!.@         U.).).).).(.).).).).).).).).).(.).).).(.E   4 q.q.q.q.q.",
"q.q.q.Z m m m m 7.q.q.q.q.M # 9 q.q.q.q.q.q.q.V # 1 W.'.D.f f K.K.K.K.K.Q._._._._.'._._._._.'.'.'.'.'.'.'.'.'._.~ # 6 q.q.q.q.q.",
"q.q.q.x         -.q.q.q.q.b   ; q.q.q.q.q.q.q.N   @ R./.}     ~._.).).).).).).).).).).).).).).).).).).).).).).(.E   = q.q.q.q.q.",
"q.q.q.N 7 7 7 7 -.2.2.2.2.m X ; 2.2.0.q.q.2.2.D p f H.L.} p p ^.).).).).).).).).).).).).).).).).).).).).).~.L.L.Q 8 b q.q.q.q.q.",
"q.q.q.q.q.q.q.q.c                   C q.w.*   _ /.Q.1   ) /.(.).).~.~.~.~.~.~.~.~.~.~.~.~.~./.~.~.~.~.~.~.P.    =.q.q.q.q.q.q.q.",
"q.q.q.q.q.q.q.q.c                   C q.w.*   _ (.Q.1   ) /./.).).).).).).).).).).).).).).).).).).).).).).P.    =.q.q.q.q.q.q.q.",
"q.q.q.q.q.0.n n +.f.f.f.f.f.f.f.f.f.T n n # X y f R D.G.Y.).'.)./.).).).).).).).).).).).).).).).).).).) f S 1.1.0.q.q.q.q.q.q.q.",
"q.q.q.q.q.2.    s.m.m.m.m.m.m.m.m.m.H             @ R.)./.(.~.(.).~.~.(.(./.~.(.(.~.~.(.(.~.~.(.(.~.(.p   7 q.q.q.q.q.q.q.q.q.q.",
"q.q.q.4.3.<.w w f.Z.Z.Z.Z.Z.Z.Z.Z.Z.X.q w + X X X < W._.).).).).).).'.).).).).).).).).).).).Y.I.I.I.I.S 7 b q.q.q.q.q.q.q.q.q.q.",
"q.q.q.x   3 m.m.m.m.m.m.m.m.m.m.m.m.m.m.c..       @ R.(.(.(.(.(.(.(.(.(.(.(.(.(.(.(.(.(.(.(.a         :.q.q.q.q.q.q.q.q.q.q.q.q.",
"q.q.q.x   3 m.m.m.m.m.m.m.m.m.m.m.m.m.m.z..       O R.).).).).).).).).).).).).).).).).).).).a         :.q.q.q.q.q.q.q.q.q.q.q.q.",
"q.q.q.n # e [.[.].Z.A.{.{.V.F G Z.Z.Z.Z.v.& # # # # ~ ~ D.'.'.'.'.'.'.'.'.'.'.'._._ ~ ~ ~ ~ 1 + w s.s.K N C q.q.q.q.q.q.q.q.q.q.",
"q.q.q.x   s  X X].m.A. X X .  $ m.m.m.m.c..             ) (.(.(.(.(.(.(.(.(.(.(.(.y             h m.m.h   7 q.q.q.q.q.q.q.q.q.q.",
"q.q.q.v X s }.}.].Z.A.|.}.' X & m.Z.Z.Z.v.& X X X X X X / T.R.R.R.R.T.T.R.R.R.R.T.y X X X   X X k Z.Z.F 2 t w.w.q.q.q.q.q.q.q.q.",
"q.q.q.x         s.m.l.        % m.m.m.m.z..                                                     r m.m.m.m.k.    =.q.q.q.q.q.q.q.",
"q.q.q.x         s.m.l.        % m.m.m.m.z..                                                     h m.m.m.m.k.    =.q.q.q.q.q.q.q.",
"q.q.q.v X 2 a.a.x.Z.b.$.$.$.a.s.Z.Z.Z.Z.v.& X X X X X X z $.$.$.a.a.$.a.$.a.L X X X X X X X X X k Z.Z.Z.Z.k.X X ;.q.q.q.q.q.q.q.",
"q.q.q.x   3 m.m.m.m.m.m.m.m.m.m.m.m.m.m.z..             J m.m.m.m.m.m.m.m.m.s.                  h m.m.m.m.k.    =.q.q.q.q.q.q.q.",
"q.q.q.v X q Z.Z.Z.Z.Z.Z.Z.Z.Z.Z.C.C.Z.Z.v.& X X X X X X U Z.Z.Z.Z.Z.Z.Z.Z.Z.d.X X X X X X X X X k Z.Z.Z.Z.k.X X =.e.e.e.e.q.q.q.",
"q.q.q.x   3 m.m.m.m.m.m.m.m.m.C.[ [ M.m.v..             J m.m.m.m.m.m.m.m.m.s.                  j m.m.m.m.k.              -.q.q.",
"q.q.q.x   3 m.m.m.m.m.m.m.m.m.C.[ [ M.m.c..             J m.m.m.m.m.m.m.m.m.s.                  h m.m.m.m.k.              *.q.q.",
"q.q.q.;.&.,.I I %.N.N.N.N.N.N.N.B.B.#.I L # # X X # # X U Z.Z.Z.Z.Z.Z.Z...I F # # # # # & O # # k Z.Z.O.I G # # # # ; &.&.3.q.q.",
"q.q.q.q.q.2.    ` [ [ [ [ [ [ ] Z.m.H                   J m.m.m.m.m.m.m.3           . % .       j m.m.j             = q.q.q.q.q.",
"q.q.q.q.q.2.; ; ` [ [ [ [ [ [ ] C.b.P X X X X X X X X X U Z.Z.Z.Z.Z.Z.Z.w X X X X X > , & X # & l Z.Z.k X X X X ; = 8 q.q.q.q.q.",
"q.q.q.q.q.q.q.q.c         X                             I m.m.m.m.m.m.m.3       o   o % $   h.n.m.m.m.j         ;.q.q.q.q.q.q.q.",
"q.q.q.q.q.q.q.q.c                                       J m.m.m.m.m.m.m.3     . : % . % % & g.n.m.m.m.j         =.q.q.q.q.q.q.q.",
"q.q.q.q.q.q.q.q.=.C C C C C C C C C x X X X X X X o ..X.f.Z.Z.Z.Z.j.U U , X X , , , , , , , h.n.l.U U 3 X 5 C C 2.q.q.q.q.q.q.q.",
"q.q.q.q.q.q.q.q.q.q.q.q.q.q.q.q.q.q.N             . v.m.m.m.m.m.m.@.      X     % , : : % & g.n.h.        6 q.q.q.q.q.q.q.q.q.q.",
"q.q.q.q.q.q.q.q.q.q.q.q.q.q.q.q.q.q.N     X       o v.m.m.m.Z.m.m.@.    # > >   X , , , ,   h.m.h.        7 q.q.q.q.q.q.q.q.q.q.",
"q.q.q.q.q.q.q.q.q.q.q.q.q.q.q.q.q.q.q.e.w.-   X X & v.m.m.m.Z., & o X X - > > > X X , , , > # & & X X <.e.q.q.q.q.q.q.q.q.q.q.q.",
"q.q.q.q.q.q.q.q.q.q.q.q.q.q.q.q.q.q.q.q.w.#       . v.m.m.m.m..           o > -       % %             :.q.q.q.q.q.q.q.q.q.q.q.q.",
"q.q.q.q.q.q.q.q.q.q.q.q.q.q.q.q.q.q.q.q.e.C B B B Z +.o.X.o.o.& # # # # # # > > # # o 6 V B B B B B B 3.q.q.q.q.q.q.q.q.q.q.q.q.",
"q.q.q.q.q.q.q.q.q.q.q.q.q.q.q.q.q.q.q.q.q.q.q.q.q.q.=             O O O O     o X o   x q.q.q.q.q.q.q.q.q.q.q.q.q.q.q.q.q.q.q.q.",
"q.q.q.q.q.q.q.q.q.q.q.q.q.q.q.q.q.q.q.q.q.q.q.q.q.q.6 * * * # # < < - # < # # o - ; * m q.q.q.q.q.q.q.q.q.q.q.q.q.q.q.q.q.q.q.q.",
"q.q.q.q.q.q.q.q.q.q.q.q.q.q.q.q.q.q.q.q.q.q.q.q.q.q.w.w.w.w.w.u.8.8.w.r.9.9.9.8.w.w.w.e.q.q.q.q.q.q.q.q.q.q.q.q.q.q.q.q.q.q.q.q.",
"q.q.q.q.q.q.q.q.q.q.q.q.q.q.q.q.q.q.q.q.q.q.q.q.q.q.q.q.q.q.q.q.q.q.q.q.q.q.q.q.q.q.q.q.q.q.q.q.q.q.q.q.q.q.q.q.q.q.q.q.q.q.q.q.",
"q.q.q.q.q.q.q.q.q.q.q.q.q.q.q.q.q.q.q.q.q.q.q.q.q.q.q.q.q.q.q.q.q.q.q.q.q.q.q.q.q.q.q.q.q.q.q.q.q.q.q.q.q.q.q.q.q.q.q.q.q.q.q.q.",
"q.q.q.q.q.q.q.q.q.q.q.q.q.q.q.q.q.q.q.q.q.q.q.q.q.q.q.q.q.q.q.q.q.q.q.q.q.q.q.q.q.q.q.q.q.q.q.q.q.q.q.q.q.q.q.q.q.q.q.q.q.q.q.q.",
"q.q.q.q.q.q.q.q.q.q.q.q.q.q.q.q.q.q.q.q.q.q.q.q.q.q.q.q.q.q.q.q.q.q.q.q.q.q.q.q.q.q.q.q.q.q.q.q.q.q.q.q.q.q.q.q.q.q.q.q.q.q.q.q.",
"q.q.q.q.q.q.q.q.q.q.q.q.q.q.q.q.q.q.q.q.q.q.q.q.q.q.q.q.q.q.q.q.q.q.q.q.q.q.q.q.q.q.q.q.q.q.q.q.q.q.q.q.q.q.q.q.q.q.q.q.q.q.q.q.",
"q.q.q.q.q.q.q.q.q.q.q.q.q.q.q.q.q.q.q.q.q.q.q.q.q.q.q.q.q.q.q.q.q.q.q.q.q.q.q.q.q.q.q.q.q.q.q.q.q.q.q.q.q.q.q.q.q.q.q.q.q.q.q.q.",
"q.q.q.q.q.q.q.q.q.q.q.q.q.q.q.q.q.q.q.q.q.q.q.q.q.q.q.q.q.q.q.q.q.q.q.q.q.q.q.q.q.q.q.q.q.q.q.q.q.q.q.q.q.q.q.q.q.q.q.q.q.q.q.q."
};
