/* XPM */
static char *_96e3fe791774846cac6a8dfdb66d67dx2O0AEtSYA1qGlHL[] = {
/* columns rows colors chars-per-pixel */
"64 64 5 1 ",
"  c #622C0C",
". c #0B5101",
"X c #159D02",
"o c #18BD00",
"O c #4DCF1F",
/* pixels */
"OOOOOOOOOOOOOOOOOOOO....................OOOOOOOOOOOOOOOOOOOOOOOO",
"OOOOOOOOOOOOOOOOOOOO....................OOOOOOOOOOOOOOOOOOOOOOOO",
"OOOOOOOOOOOOOOOOOOOO....................OOOOOOOOOOOOOOOOOOOOOOOO",
"OOOOOOOOOOOOOOOOOOOO....................OOOOOOOOOOOOOOOOOOOOOOOO",
"OOOOOOOOOOOOOOOO....ooooooooXXXXXXXXXXXX........OOOOOOOOOOOOOOOO",
"OOOOOOOOOOOOOOOO....ooooooooXXXXXXXXXXXX........OOOOOOOOOOOOOOOO",
"OOOOOOOOOOOOOOOO....ooooooooXXXXXXXXXXXX........OOOOOOOOOOOOOOOO",
"OOOOOOOOOOOOOOOO....ooooooooXXXXXXXXXXXX........OOOOOOOOOOOOOOOO",
"OOOOOOOOOOOO....XXXXXXXXXXXXXXXXXXXXXXXXXXXXXXXX....OOOOOOOOOOOO",
"OOOOOOOOOOOO....XXXXXXXXXXXXXXXXXXXXXXXXXXXXXXXX....OOOOOOOOOOOO",
"OOOOOOOOOOOO....XXXXXXXXXXXXXXXXXXXXXXXXXXXXXXXX....OOOOOOOOOOOO",
"OOOOOOOOOOOO....XXXXXXXXXXXXXXXXXXXXXXXXXXXXXXXX....OOOOOOOOOOOO",
"OOOOOOOOOOOO....XXXXXXXXXXXXooooXXXXXXXXXXXXXXXXoooo....OOOOOOOO",
"OOOOOOOOOOOO....XXXXXXXXXXXXooooXXXXXXXXXXXXXXXXoooo....OOOOOOOO",
"OOOOOOOOOOOO....XXXXXXXXXXXXooooXXXXXXXXXXXXXXXXoooo....OOOOOOOO",
"OOOOOOOOOOOO....XXXXXXXXXXXXooooXXXXXXXXXXXXXXXXoooo....OOOOOOOO",
"OOOOOOOO....XXXXXXXXXXXXXXXXXXXXXXXXXXXXXXXXXXXXXXXX....OOOOOOOO",
"OOOOOOOO....XXXXXXXXXXXXXXXXXXXXXXXXXXXXXXXXXXXXXXXX....OOOOOOOO",
"OOOOOOOO....XXXXXXXXXXXXXXXXXXXXXXXXXXXXXXXXXXXXXXXX....OOOOOOOO",
"OOOOOOOO....XXXXXXXXXXXXXXXXXXXXXXXXXXXXXXXXXXXXXXXX....OOOOOOOO",
"OOOO....ooooXXXXXXXXXXXXXXXXXXXXXXXXXXXXXXXXXXXXXXXX....OOOOOOOO",
"OOOO....ooooXXXXXXXXXXXXXXXXXXXXXXXXXXXXXXXXXXXXXXXX....OOOOOOOO",
"OOOO....ooooXXXXXXXXXXXXXXXXXXXXXXXXXXXXXXXXXXXXXXXX....OOOOOOOO",
"OOOO....ooooXXXXXXXXXXXXXXXXXXXXXXXXXXXXXXXXXXXXXXXX....OOOOOOOO",
"....ooooooooXXXXXXXXXXXXXXXXXXXXXXXXXXXXXXXXXXXXXXXXXXXX....OOOO",
"....ooooooooXXXXXXXXXXXXXXXXXXXXXXXXXXXXXXXXXXXXXXXXXXXX....OOOO",
"....ooooooooXXXXXXXXXXXXXXXXXXXXXXXXXXXXXXXXXXXXXXXXXXXX....OOOO",
"....ooooooooXXXXXXXXXXXXXXXXXXXXXXXXXXXXXXXXXXXXXXXXXXXX....OOOO",
"........XXXXXXXXXXXXXXXXXXXXXXXXXXXXXXXXXXXXXXXXXXXXXXXXXXXX....",
"........XXXXXXXXXXXXXXXXXXXXXXXXXXXXXXXXXXXXXXXXXXXXXXXXXXXX....",
"........XXXXXXXXXXXXXXXXXXXXXXXXXXXXXXXXXXXXXXXXXXXXXXXXXXXX....",
"........XXXXXXXXXXXXXXXXXXXXXXXXXXXXXXXXXXXXXXXXXXXXXXXXXXXX....",
"........XXXXXXXXXXXXXXXXXXXXXXXXXXXXXXXXXXXXXXXXXXXXXXXXXXXX....",
"........XXXXXXXXXXXXXXXXXXXXXXXXXXXXXXXXXXXXXXXXXXXXXXXXXXXX....",
"........XXXXXXXXXXXXXXXXXXXXXXXXXXXXXXXXXXXXXXXXXXXXXXXXXXXX....",
"........XXXXXXXXXXXXXXXXXXXXXXXXXXXXXXXXXXXXXXXXXXXXXXXXXXXX....",
"............XXXXXXXXXXXXXXXX............XXXXXXXXXXXXXXXX........",
"............XXXXXXXXXXXXXXXX............XXXXXXXXXXXXXXXX........",
"............XXXXXXXXXXXXXXXX............XXXXXXXXXXXXXXXX........",
"............XXXXXXXXXXXXXXXX............XXXXXXXXXXXXXXXX........",
"OOOO................XXXXXXXX................................OOOO",
"OOOO................XXXXXXXX................................OOOO",
"OOOO................XXXXXXXX................................OOOO",
"OOOO................XXXXXXXX................................OOOO",
"OOOOOOOO................................................OOOOOOOO",
"OOOOOOOO................................................OOOOOOOO",
"OOOOOOOO................................................OOOOOOOO",
"OOOOOOOO................................................OOOOOOOO",
"OOOOOOOOOOOOOOOO............................OOOOOOOOOOOOOOOOOOOO",
"OOOOOOOOOOOOOOOO............................OOOOOOOOOOOOOOOOOOOO",
"OOOOOOOOOOOOOOOO............................OOOOOOOOOOOOOOOOOOOO",
"OOOOOOOOOOOOOOOO............................OOOOOOOOOOOOOOOOOOOO",
"OOOOOOOOOOOOOOOOOOOOOOOO                OOOOOOOOOOOOOOOOOOOOOOOO",
"OOOOOOOOOOOOOOOOOOOOOOOO                OOOOOOOOOOOOOOOOOOOOOOOO",
"OOOOOOOOOOOOOOOOOOOOOOOO                OOOOOOOOOOOOOOOOOOOOOOOO",
"OOOOOOOOOOOOOOOOOOOOOOOO                OOOOOOOOOOOOOOOOOOOOOOOO",
"OOOOOOOOOOOOOOOOOOOOOOOOOOOO        OOOOOOOOOOOOOOOOOOOOOOOOOOOO",
"OOOOOOOOOOOOOOOOOOOOOOOOOOOO        OOOOOOOOOOOOOOOOOOOOOOOOOOOO",
"OOOOOOOOOOOOOOOOOOOOOOOOOOOO        OOOOOOOOOOOOOOOOOOOOOOOOOOOO",
"OOOOOOOOOOOOOOOOOOOOOOOOOOOO        OOOOOOOOOOOOOOOOOOOOOOOOOOOO",
"OOOOOOOOOOOOOOOOOOOOOOOOOOOO        OOOOOOOOOOOOOOOOOOOOOOOOOOOO",
"OOOOOOOOOOOOOOOOOOOOOOOOOOOO        OOOOOOOOOOOOOOOOOOOOOOOOOOOO",
"OOOOOOOOOOOOOOOOOOOOOOOOOOOO        OOOOOOOOOOOOOOOOOOOOOOOOOOOO",
"OOOOOOOOOOOOOOOOOOOOOOOOOOOO        OOOOOOOOOOOOOOOOOOOOOOOOOOOO"
};
