/* XPM */
static char *bb958e9c5cf94553b85b0643db25f059xnAALaqwvJaAiAxV[] = {
/* columns rows colors chars-per-pixel */
"64 64 127 2 ",
"   c #2B2815",
".  c #332F16",
"X  c #3E3817",
"o  c #463F18",
"O  c #4D4519",
"+  c #4D4D1A",
"@  c #534A1A",
"#  c #544B1A",
"$  c #554C1B",
"%  c #554C1C",
"&  c #584F1A",
"*  c #4D561A",
"=  c #4D5E1A",
"-  c #5B511B",
";  c #5E531B",
":  c #5E541B",
">  c #5D531E",
",  c #5D541E",
"<  c #63571C",
"1  c #63581B",
"2  c #64581B",
"3  c #63581C",
"4  c #64591C",
"5  c #695D1B",
"6  c #6A5D1C",
"7  c #4D671A",
"8  c #4D681B",
"9  c #4D701A",
"0  c #4D791B",
"q  c #53751B",
"w  c #55771D",
"e  c #5E7E1D",
"r  c #6F611C",
"t  c #72641E",
"y  c #74671D",
"u  c #77691E",
"i  c #7A6B1D",
"p  c #7A6C1D",
"a  c #7C6D1F",
"s  c #7F701D",
"d  c #665B21",
"f  c #6B5F21",
"g  c #6D6223",
"h  c #766925",
"j  c #767226",
"k  c #7E7128",
"l  c #80701E",
"z  c #85751E",
"x  c #8B7A1E",
"c  c #917F1F",
"v  c #827323",
"b  c #887720",
"n  c #8F7E21",
"m  c #86782B",
"M  c #897A29",
"N  c #8B7C2B",
"B  c #8E7F2D",
"V  c #907F26",
"C  c #4D811B",
"Z  c #4D8A1C",
"A  c #52861C",
"S  c #4D921D",
"D  c #4D9B1D",
"F  c #4DA31D",
"G  c #4DA41C",
"H  c #4DAC1D",
"J  c #4DB61E",
"K  c #4DBE1E",
"L  c #4DC71E",
"P  c #4DCF1F",
"I  c #8F8F2E",
"U  c #968320",
"Y  c #968422",
"T  c #9C8920",
"R  c #94832A",
"E  c #96862F",
"W  c #9A882E",
"Q  c #968F30",
"!  c #9E8D32",
"~  c #A28E20",
"^  c #A38F29",
"/  c #A28F2D",
"(  c #A79221",
")  c #A69124",
"_  c #AB9522",
"`  c #AD9723",
"'  c #AC9725",
"]  c #AE9823",
"[  c #A8952A",
"{  c #B09923",
"}  c #B09A25",
"|  c #B59E24",
" . c #B19C29",
".. c #B59F2A",
"X. c #A79535",
"o. c #AD9A35",
"O. c #AF9C37",
"+. c #AF9C38",
"@. c #B7A025",
"#. c #BBA325",
"$. c #BBA427",
"%. c #BFA727",
"&. c #B7A33A",
"*. c #B7A43A",
"=. c #BFAA3D",
"-. c #C0A727",
";. c #C2A927",
":. c #C3AA28",
">. c #C4AB2A",
",. c #C4AC2B",
"<. c #C4AC2C",
"1. c #C1AA32",
"2. c #C7AF31",
"3. c #C0AA35",
"4. c #C2AC36",
"5. c #C6AF3A",
"6. c #C0AB3D",
"7. c #C8B033",
"8. c #C9B135",
"9. c #CBB338",
"0. c #CCB539",
"q. c #C9B23C",
"w. c #CBB43E",
"e. c #CDB53C",
"r. c #C8B240",
"t. c #CFB840",
"y. c #D0B942",
/* pixels */
"P P P P P P P P P P P P P P P P P P P P P P P P P P P J H H H H H L P P P P P P P P P P P P P P P P P P P P P P P P P P P P P P ",
"P P P P P P P P P P P P P P P P P P P P P P P P P P P * O O O O O H P P P P P P P P P P P P P P P P P P P P P P P P P P P P P P ",
"P P P P P P P P P P P P P P P P P P P P P P P P D O O 6.y.y.y.y.y.g O 0 P P P P P P P P P P P P P P P P P P P P P P P P P P P P ",
"P P P P P P P P P P P P P P P P P P P P P P 9 * j 6.6.y.7.<.<.<.y.r.6.Q * * K P P P P P P P P P P P P P P P P P P P P P P P P P ",
"P P P P P P P P P P P P P P P P P P P P P 0 I ! +.t.7.7.,.:.:.:.7.7.0.=.! ! w K P P P P P P P P P P P P P P P P P P P P P P P P ",
"P P P P P P P P P P P P P P P P P P P P P O / 3.3.3.:.:.:.:.:.:.:.:.7.9.0.y.> H P P P P P P P P P P P P P P P P P P P P P P P P ",
"P P P P P P P P P P P P P P P P P P P L K O z ~ ( _ %.%.%.%.;.:.:.:.:.:.,.y.g D L P P P P P P P P P P P P P P P P P P P P P P P ",
"P P P P P P P P P P P P P P P P P P P H O O O i ( ( ( ( ( ( ] :.:.:.:.:.,.y.y.g Z P P P P P P P P P P P P P P P P P P P P P P P ",
"P P P P P P P P P P P P P P P P P P D g y.y.y.B O O O O O i ( ( ( ( ( ( ( ( w.g Z P P P P P P P P P P P P P P P P P P P P P P P ",
"P P P P P P P P P P P P P P P P P S * g y.y.y.=.O.O.O.O.O.M 2 2 2 2 2 2 5 (  .4 Z P P P P P P P P P P P P P P P P P P P P P P P ",
"P P P P P P P P P P P P P P P P S = d ! y.y.9.8.8.8.8.8.e.+.B B B B B B N i i & Z P P P P P P P P P P P P P P P P P P P P P P P ",
"P P P P P P P P P P P P P P P P * > E t.e.e.<.:.:.:.:.:.8.e.e.e.e.9.5.q.=.g $ O 0 J P P P P P P P P P P P P P P P P P P P P P P ",
"P P P P P P P P P P P P P P P P * ! t.0.:.:.:.:.:.:.:.%.%.%.%.%.%.~ T [ 6.6.g > $ = K K P P P P P P P P P P P P P P P P P P P P ",
"P P P P P P P P P P P P P P P P * ! 9.:.:.:.:.:.:.:.:._ ( ( ( ( ( 1 O O O O 6.y.B O O O K P P P P P P P P P P P P P P P P P P P ",
"P P P P P P P P P P P P P P P P * ! 9.:.:.:.{ _ _ _ _ ( y & & & & o.6.6.6.6.y.y.r.6.6.O K P P P P P P P P P P P P P P P P P P P ",
"P P P P P P P P P P P P P P P P * V ..{ { { _ x r r r r M ! ! ! ! 6.y.y.y.y.8.7.7.7.7.O K P P P P P P P P P P P P P P P P P P P ",
"P P P P P P P P P P P P P P P P * z T z z z z v k k k k +.y.e.9.9.9.9.9.9.9.>.:.:.-.#.O K P P P P P P P P P P P P P P P P P P P ",
"P P P P P P P P P P P P P P P P * p a g g g g ! y.y.e.e.e.e.8.:.:.:.:.:.:.%.%.%.%.| ( O G K P P P P P P P P P P P P P P P P P P ",
"P P P P P P P P P P P P P P P P * O k y.y.y.y.y.y.e.:.:.:.:.:.:.:.:.:.:.%.( ( ( ( ( ( O O D P P P P P P P P P P P P P P P P P P ",
"P P P P P P P P P P P P P P P P * O r ( ( ( %.:.:.:.:.:.:.:.:.:.( ( ( ( ( ( ( ( i O O O 6.k O * P P P P P P P P P P P P P P P P ",
"P P P P P P P P P P P P P P L 8 O O & 2 2 ( ` ] ] ] ] ] ] ] ] ] ( ( ( c 2 2 2 2 & d O.O.y.&.B * P P P P P P P P P P P P P P P P ",
"P P P P P P P P P P P P P K C O m B B k O i i i i i i i i i i i i i i 6 % B B B B ! y.y.y.y.! + Z P P P P P P P P P P P P P P P ",
"P P P P P P P P P P P P P H % k r.y.y.=.k k k k k k k k k k k k k k k k m y.y.y.y.y.y.9.4.3.R O O P P P P P P P P P P P P P P P ",
"P P P P P P P P P P P K K F , y.y.y.y.y.y.y.y.y.y.y.y.y.y.y.y.y.y.y.y.y.y.y.y.e.e.e.e.:._ ~ l O > K P P P P P P P P P P P P P P ",
"P P P P P P P P P P P 7 O O , y.y.y.y.y.t.y.y.y.y.y.y.y.y.y.y.y.y.y.y.y.y.y.y.<.:.:.:.:._ r O , y.O H P P P P P P P P P P P P P ",
"P P P P P P P P P P * + O 2 T ' :.<.<.<.<.<.<.<.<.<.<.<.<.<.<.<.<.<.<.<.<.<.<.>.:.:.:._ ( r h 6.y.O H P P P P P P P P P P P P P ",
"P P P P P P P P P P O B h @ y ( { %.:.:.:.:.:.:.:.:.:.:.:.:.:.:.:.:.:.:.:.:.:.:.:.%.{ ( y & k y.y.O 8 G P P P P P P P P P P P P ",
"P P P P P P P P P P O +.+.k @ i ~ { #.:.:.:.:.:.:.:.:.:.:.:.:.:.:.:.:.:.:.:.:.:.%.} ( ( & h X.y.y.B , Z P P P P P P P P P P P P ",
"P P P P P P P P P P O +.y.*.g O x T { %.%.%.%.%.%.:.:.:.:.:.:.:.:.:.:.;.%.%.%.%.} ~ c c f +.t.e.e.y.g Z P P P P P P P P P P P P ",
"P P P P P P P P P P O +.y.y.=.O O z ( ( ( ( ( ( { :.:.:.:.:.:.:.:.:.:.#.( ( ( ( ( c O O 6.y.9.:.:.y.g Z P P P P P P P P P P P P ",
"P P P P P P P P P P O +.8.<.y.y.> O r ( ( ( ( ( ( ( ( ( ( ( ( ( ( ( ( ( ( ( ( ( i O O y.y.2.:.:.:.O O Z P P P P P P P P P P P P ",
"P P P P P P P P P P O +.8.>.2.y.O.O.W 2 2 2 U ( ( ( ( ( ( ( ( ( ( ( ( c 2 2 2 2 & d O.y.7.>.:.:.:.O O Z P P P P P P P P P P P P ",
"P P P P P P P P P P O +.1.@.>.7.7.0.=.! ! O 2 r r r r r r r r r r r r 1 % ! ! ! ! X.y.y.>.:.:.:.:.O O Z P P P P P P P P P P P P ",
"P P P P P P P P P P O m ^ _ #.:.:.7.9.e.y.k k k k k k k k k k k k k k k m y.y.y.y.y.y.9.>.:.:.$.Y O O Z P P P P P P P P P P P P ",
"P P P P P P P P P P * O y ~ _ %.:.:.:.<.e.e.e.e.e.e.e.e.e.e.e.e.e.e.e.e.e.e.e.e.e.e.e.:.:.:.:.| O O O C L P P P P P P P P P P P ",
"P P P P P P P P P P P 7 O 2 ( ( %.:.:.:.:.:.:.:.:.:.:.:.:.:.:.:.:.:.:.:.:.:.:.:.:.:.:.:.:.:.:.| O O O O 8 P P P P P P P P P P P ",
"P P P P P P P P P P P 7 O O 2 ( _ _ | :.:.:.:.:.:.:.:.:.:.:.:.:.:.:.:.:.:.:.:.:.:.:.:.:.:.:.T ; O T T y 8 P P P P P P P P P P P ",
"P P P P P P P P P P P 7 O O @ 2 T ( _ ] ] :.:.:.:.:.:.:.:.:.:.:.:.:.:.:.:.:.:.:.:.:.:.:.:.n ; @ c ( ( i 8 P P P P P P P P P P P ",
"P P P P P P P P P P P D 7 & y O y i x ( ( | | | | | | | | | | | | | | | | | | | | | | | n 3 : l ( ( ( i 8 P P P P P P P P P P P ",
"P P P P P P P P P P P P Z 2 T 1 1 & 6 c c c c c Y ( ( ( ( ( ( ( ( ( ( ( ( c c c c c c c @ & s ( ( ( ( i 8 P P P P P P P P P P P ",
"P P P P P P P P P P P P Z 2 ( ( ( r O O O O O O r ( ( ( ( ( ( ( ( ( ( ( T O O O O O O O O z ( ( ( ( ( i 8 P P P P P P P P P P P ",
"P P P P P P P P P P P P Z O & ( ( ( ( ( ( ( ( i O O O O O O O O O O O O O O T ( ( ( ( ( ( ( ( _ :.:.] i 8 P P P P P P P P P P P ",
"P P P P P P P P P P P P L D & ( ( ( ( ( ( ( ( ~ T T T T T T T T T T T T T T ( ( ( ( ( ( ( @.%.%.:._ 6 A K P P P P P P P P P P P ",
"P P P P P P P P P P P P P H & ( ( ( ( ( ( ( ( ( ( ( ( ( ( ( ( ( ( ( ( ( ( ( ( ( ( ( ( #.#.%.:.:.:.( 1 Z P P P P P P P P P P P P ",
"P P P P P P P P P P P P P K q z ~ ( ( _ { { { { { { { { { { T i i i i x { { { { { { { :.:.:.:.;.#.z e G P P P P P P P P P P P P ",
"P P P P P P P P P P P P P P K O c ~ ( ] :.:.:.:.:.:.:.:.:.:.T         4 :.:.:.:.:.:.:.:.:.:.;.%.( O H P P P P P P P P P P P P P ",
"P P P P P P P P P P P P P P K O O z ( ] :.:.:.:.:.:.:.:.:.:.T         4 :.:.:.:.:.:.:.:.:.:.#.( ( O H P P P P P P P P P P P P P ",
"P P P P P P P P P P P P P P P P * z ( ] :.:.:.:.:.:.:.:.:.u             X :.:.:.:.:.:.:.:.:.#.T O O H P P P P P P P P P P P P P ",
"P P P P P P P P P P P P P P P P * : 2 a :.:.:.:.:.:.:.:.:.u             X :.:.:.:.:.:.:.:.:.~ : O O H P P P P P P P P P P P P P ",
"P P P P P P P P P P P P P P P P S = O - b b b b T :.:.:.:.u             X :.:.:.:.:.:.:.n b t @ i O H P P P P P P P P P P P P P ",
"P P P P P P P P P P P P P P P P P 0 O @ 1 1 @ O t ) ) ) ) r . . . . . . o ) ) ) ) ) ) ) 2 1 1 r ( O H P P P P P P P P P P P P P ",
"P P P P P P P P P P P P P P P P P C + ; T ( r & & & & O O O @ & & & & & & & & & & & & & T ( ~ T T O H P P P P P P P P P P P P P ",
"P P P P P P P P P P P P P P P P P P D O O ( ( ( ( ( ( & O O 2 ( ( ( ( ( ( ( ( ( ( ( ( ( ( ( z O O O H P P P P P P P P P P P P P ",
"P P P P P P P P P P P P P P P P P P L D O & U ( ( ( ( } | | Y & & U ( ( ( ( ( ( ( ( ( ( 1 & @ ; | O H P P P P P P P P P P P P P ",
"P P P P P P P P P P P P P P P P P P P L D O c ( ( ( ( %.:.:.$.Y O 2 r r r r r r r r r r @ i Y T :.O H P P P P P P P P P P P P P ",
"P P P P P P P P P P P P P P P P P P P P P O c ( ( ( ( | -.:.:.:.i i i i i i # O < i i i i ) :.$.Y O H P P P P P P P P P P P P P ",
"P P P P P P P P P P P P P P P P P P P P P O s T ( ( ( ( | -.:.:.:.:.:.:.:.:.t 6 Y :.:.:.:.-.%.' O 7 J P P P P P P P P P P P P P ",
"P P P P P P P P P P P P P P P P P P P P P O O i ( ( ( ( ( | :.:.:.:.:.:.:.:.:.:.:.:.:.:.:.{ ( T O P P P P P P P P P P P P P P P ",
"P P P P P P P P P P P P P P P P P P P P P P 7 O r ( ( ( ( ( ( ( :.:.:.:.:.:.:.:.:.:.:.( ( ( z O O P P P P P P P P P P P P P P P ",
"P P P P P P P P P P P P P P P P P P P P P P J 0 & 2 2 T ( ( ( ( ] ] ] ] ] ] ] ] ] ] ] ( ( s & + H P P P P P P P P P P P P P P P ",
"P P P P P P P P P P P P P P P P P P P P P P P H Z C O y i i i i ( ( ( ( ( ( ( z i i i i i ; = S P P P P P P P P P P P P P P P P ",
"P P P P P P P P P P P P P P P P P P P P P P P P P L 0 0 0 0 7 O z z z z z z z ; = 0 0 0 0 0 D P P P P P P P P P P P P P P P P P ",
"P P P P P P P P P P P P P P P P P P P P P P P P P P P P P P J * * * * * * * * * S P P P P P P P P P P P P P P P P P P P P P P P ",
"P P P P P P P P P P P P P P P P P P P P P P P P P P P P P P P P P P P P P P P P P P P P P P P P P P P P P P P P P P P P P P P P "
};
