/* XPM */
static char *_620e1e487314e1ec5601b8f985db28cRgQKf5iVa1F77E7E[] = {
/* columns rows colors chars-per-pixel */
"64 64 240 2 ",
"   c #1D1C3B",
".  c #261E37",
"X  c #333A3B",
"o  c #752839",
"O  c #4D2138",
"+  c #4B6734",
"@  c #516D39",
"#  c #58753B",
"$  c #637E3C",
"%  c #1C1D44",
"&  c #1D2353",
"*  c #1D2248",
"=  c #28284B",
"-  c #382645",
";  c #282B57",
":  c #363559",
">  c #313453",
",  c #2D3364",
"<  c #3B3C63",
"1  c #343A6C",
"2  c #353965",
"3  c #363D73",
"4  c #242B61",
"5  c #493557",
"6  c #4D3354",
"7  c #71324B",
"8  c #403F67",
"9  c #3D416C",
"0  c #3C4276",
"q  c #535A50",
"w  c #735152",
"e  c #5C7743",
"r  c #576554",
"t  c #5F6C4E",
"y  c #617D42",
"u  c #647747",
"i  c #697958",
"p  c #6A7557",
"a  c #4A4969",
"s  c #4F536B",
"d  c #51526A",
"f  c #41467B",
"g  c #474A76",
"h  c #4E517B",
"j  c #585579",
"k  c #524B72",
"l  c #6C4D6D",
"z  c #5C6571",
"x  c #707376",
"c  c #973334",
"v  c #8A2E2F",
"b  c #A13C3B",
"n  c #A3403A",
"m  c #883952",
"M  c #8F4C5B",
"N  c #B65957",
"B  c #AF4F4C",
"V  c #906B5A",
"C  c #BE685D",
"Z  c #8B4F6A",
"A  c #977864",
"S  c #93716F",
"D  c #B66D71",
"F  c #A24C65",
"G  c #C26A58",
"H  c #C4736D",
"J  c #6A883D",
"K  c #728F3F",
"L  c #648143",
"P  c #6A8544",
"I  c #6D8A43",
"U  c #6A854B",
"Y  c #6C884B",
"T  c #738E4B",
"R  c #718C45",
"E  c #739144",
"W  c #799546",
"Q  c #76914E",
"!  c #7A954C",
"~  c #7C994B",
"^  c #7D9B46",
"/  c #6F8954",
"(  c #748A56",
")  c #759252",
"_  c #7B9454",
"`  c #7D9A54",
"'  c #7A945B",
"]  c #7B985A",
"[  c #7C8C69",
"{  c #7C8773",
"}  c #798E6A",
"|  c #819D4C",
" . c #849D54",
".. c #839D5C",
"X. c #849659",
"o. c #87875A",
"O. c #87A54D",
"+. c #8BA55B",
"@. c #88A457",
"#. c #92AB5D",
"$. c #95AC5C",
"%. c #97B25B",
"&. c #9D8B69",
"*. c #849C63",
"=. c #889965",
"-. c #838C79",
";. c #8F9A74",
":. c #A58776",
">. c #A79575",
",. c #AE8F72",
"<. c #8CA563",
"1. c #8CA568",
"2. c #93AC6C",
"3. c #9AAE6B",
"4. c #94A966",
"5. c #9DB26B",
"6. c #9AB164",
"7. c #8DA473",
"8. c #97AA77",
"9. c #9DB476",
"0. c #A3B96B",
"q. c #A3B573",
"w. c #A6BB76",
"e. c #AABB79",
"r. c #ABA873",
"t. c #A0BA5F",
"y. c #CA8877",
"u. c #CF815B",
"i. c #ABC176",
"p. c #B8C779",
"a. c #B2C671",
"s. c #464C83",
"d. c #4C538A",
"f. c #4D5285",
"g. c #565987",
"h. c #525B90",
"j. c #5F6187",
"k. c #5C6293",
"l. c #5A6397",
"z. c #66668A",
"x. c #666A97",
"c. c #757799",
"v. c #716D90",
"b. c #6E74A5",
"n. c #7579A5",
"m. c #6C73A6",
"M. c #795F82",
"N. c #87758C",
"B. c #7E849B",
"V. c #7F8583",
"C. c #7E81AC",
"Z. c #989A8D",
"A. c #84869B",
"S. c #949796",
"D. c #8E8D8E",
"F. c #AD9695",
"G. c #98A488",
"H. c #9DA69A",
"J. c #9EB185",
"K. c #ACAB87",
"L. c #A9B789",
"P. c #B4BD87",
"I. c #A2AB93",
"U. c #B7AA95",
"Y. c #ABB697",
"T. c #B4B898",
"R. c #8687A8",
"E. c #9697A9",
"W. c #878BB4",
"Q. c #9697B8",
"!. c #8F8DB0",
"~. c #ADB5A4",
"^. c #B4BBA5",
"/. c #ADAEB5",
"(. c #A993A9",
"). c #CD9999",
"_. c #CF8F8B",
"`. c #C9B69A",
"'. c #D0A894",
"]. c #D4B5B0",
"[. c #E4B7B8",
"{. c #D89DA3",
"}. c #BCCB8A",
"|. c #B6C686",
" X c #B9C695",
".X c #B9C3A8",
"XX c #BDC4B8",
"oX c #C7D58B",
"OX c #C4CD97",
"+X c #C8D497",
"@X c #D2DB9A",
"#X c #C4CF8D",
"$X c #C4CDAC",
"%X c #D3DAA8",
"&X c #CBD2B9",
"*X c #CBD4B5",
"=X c #D3DCB4",
"-X c #D5DABC",
";X c #CECCB2",
":X c #D7E1B2",
">X c #9B9DC2",
",X c #A8AAC7",
"<X c #B6B5C7",
"1X c #B7B9D4",
"2X c #B1AEC2",
"3X c #9EA2C5",
"4X c #D0BDCA",
"5X c #CDD3C5",
"6X c #CED0CB",
"7X c #DADDC2",
"8X c #D5D9C8",
"9X c #C6C7D5",
"0X c #D6D8D6",
"qX c #CECAC9",
"wX c #E7DBD5",
"eX c #E8D6D0",
"rX c #DDE4C6",
"tX c #DDE2D4",
"yX c #E4EACC",
"uX c #E3E4DB",
"iX c #E6EAD9",
"pX c #F0F3DE",
"aX c #D7D7E3",
"sX c #EBEDE4",
"dX c #EBEBED",
"fX c #E6E7E6",
"gX c #EEF1E3",
"hX c #EFF0E8",
"jX c #F3F5EC",
"kX c #F5F6E9",
"lX c #EEEDF2",
"zX c #F3F4F2",
"xX c #FAFBF5",
"cX c white",
"vX c #FEFEFE",
"bX c #FFFFFD",
"nX c #FFFFFF",
"mX c #F8F5F7",
"MX c #F3EBF0",
"NX c #E7DEE3",
/* pixels */
"cXcXcXcXcXcXcXcXcXcXcXcXcXcXcXcXcXcXcXcXcXcXcXcXcXcXcXcXcXcXcXcXcXcXcXcXcXcXcXcXcXcXcXcXcXcXcXcXcXcXcXcXcXcXcXcXcXcXcXcXcXcXcXcX",
"cXcXcXcXcXcXcXcXcXcXcXcXcXcXcXcXcXcXcXcXcXcXcXcXcXcXcXcXcXcXcXcXcXcXcXcXcXcXcXcXcXcXcXcXcXcXcXcXcXcXcXcXcXcXcXcXcXcXcXcXcXcXcXcX",
"cXcXcXcXcXcXcXcXcXcXcXcXcXcXcXcXcXcXcXcXcXcXcXcXcXcXcXcXcXcXcXcXcXcXcXcXcXcXcXcXcXcXcXcXcXcXcXcXcXcXcXcXcXcXcXcXcXcXcXcXcXcXcXcX",
"cXcXcXcXcXcXcXcXcXcXcXcXcXcXcXcXcXcXcXcXcXcXcXcXcXcXcXcXcXcXcXcXcXcXcXcXcXcXcXcXcXcXcXcXcXcXcXcXcXcXcXcXcXcXcXcXcXcXcXcXcXcXcXcX",
"cXcXcXcXcXcXcXcXcXcXcXcXcXcXcXcXcXcXcXcXcXcXcXcXcXcXcXcXcXcXcXcXcXcXcXcXcXcXcXcXcXcXcXcXcXcXcXzXsXcXcXcXcXcXcXcXcXcXcXcXcXcXcXcX",
"cXcXcXcXcXcXcXcXcXcXcXcXcXcXcXcXcXcXcXcXcXcXcXcXcXcXcXcXcXcXcXcXcXcXcXcXcXcXcXcXcXcXcXcXcXcXmXI.kXcXcXcXcXcXcXcXcXcXcXcXcXcXcXcX",
"cXcXcXcXcXcXcXcXcXcXcXcXcXcXcXcXcXcXcXcXcXcXcXcXcXcXcXcXcXcXcXcXcXcXcXcXcXcXcXcXcXcXcXcXcXuX} *.cXcXcXcXcXcXcXcXcXcXcXcXcXcXcXcX",
"cXcXcXcXcXcXcXcXcXcXcXcXcXcXcXcXcXcXcXcXcXkXyX=XyX%X=XgXxXcXcXcXcXcXcXcXcXcXcXcXcXcXcXtX^.e @ 9.cXcXcXcXcXcXcXcXcXcXcXcXcXcXcXcX",
"cXcXcXcXcXcXcXcXcXcXcXcXcXcXcXmXtXiX=X+X@X+X%X@X+X%Xa.}.@XyXkXcXcXcXcXcXcXcXcXcXcXmXXX/ U + # |.bXcXcXcXcXcXcXcXcXcXcXcXcXcXcXcX",
"cXcXcXcXcXcXcXcXcXcXcXcXcXcXcXcX*X! +.%.%.0.i.}.}.#Xp.0.a.oXoXOXjXcXcXcXcXcXcXjX*X3.*.e # + P |.cXcXcXcXcXcXcXcXcXcXcXcXcXcXcXcX",
"cXcXcXcXcXcXcXcXcXcXcXcXcXcXcXcXzXL._ I ! ~ #.#.i.#X#Xp.%.i.oXoXq.5XcXcXcXcXkX X0.6.U @ @ @ O.}.cXcXcXcXcXcXcXcXcXcXcXcXcXcXcXcX",
"cXcXcXcXcXcXcXcXcXcXcXcXcXcXcXcXcX0X8.8._ ( ) +.+.5.}.e.}.%.0.#X}.( tXcXcXkX|.$.0.0./ # + ~ #.#.gXcXcXcXcXcXcXcXcXcXcXcXcXcXcXcX",
"cXcXcXcXcXcXcXcXcXcXcXcXcXcXcXcXcXgX2.7.8.2.' U U @.2.w.2.|.@.i.}.5.7.cXcX=X6.@.6.#.! # # ^ O.#.:XcXcXcXcXcXcXcXcXcXcXcXcXcXcXcX",
"cXcXcXcXcXcXcXcXcXcXcXcXcXcXcXcXcXiX+.9.8.9.9.8.' U ) <.4.4.i.+.w.|.P sXgX0.4. .4.@.| + ~ ^ ^ | #XcXcXcXcXcXcXcXcXcXcXcXcXcXcXcX",
"cXcXcXcXcXcXcXcXcXcXcXcXcXcXcXcXcXcX X2.9.2.2.1.2.*.1.T <. .6.6.@.p.Q &XtX@.+.| 5.W W $ E E E @.}.gXcXcXcXcXcXcXcXcXcXcXcXcXcXcX",
"cXcXcXcXcXcXcXcXcXcXcXcXcXcXcXcXcXcX:X5.9.<.1.2.7.8.7.*.Y I R +.@.3.4.Y. X6.@.O. .| E E J P I | %.:XcXcXcXcXcXcXcXcXcXcXcXcXcXcX",
"cXcXcXcXcXcXcXcXcXcXcXcXcXcXcXcXcXcXxXi.2.2.2...] ] ] ] ] ) T ! T ..2.=.P.+...W J O.I E R W I ! 6.iXcXcXcXcXcXcXcXcXcXcXcXcXcXcX",
"cXcXcXcXcXcXcXcXcXcXcXcXcXcXcXcXcXcXcX7X2.2.@.` ` ` ) P e # U ` Q T <._  X@...~ W E R J J K |  .L.mXcXcXcXcXcXcXcXcXcXcXcXcXcXcX",
"cXcXcXcXcXcXcXcXcXcXcXcXcXcXcXcXcXcXcXkXi.2.<...` ` ` ] ) T ) y e U Y @.$X..~ ! E ` %.+.W W @.2.*XcXcXcXcXcXcXcXcXcXcXcXcXcXcXcX",
"cXcXcXcXcXcXcXcXcXcXcXcXcXcXcXcXcXcX0XsX:X6.<...] ) L L y # @ @ @ # y Q Y.-XT K J ^ ! ! @.+._ L.xXcXcXcXcXcXcXcXcXcXcXcXcXcXcXcX",
"cXcXcXcXcXcXcXcXcXcXcXcXcXcXcXcXcXcXsXY.tXsXL.1.<...) / U e U / e @ ( Y.5X&X8X( R | ` Q U ' 8XvXcXcXcXcXcXcXcXcXcXcXcXcXcXcXcXcX",
"cXcXcXcXcXcXcXcXcXcXcXcXcXcXcXcXcXaXQ.-.^.5XiXL.L e e @ u 1.q.q.w...J.$X-X-X8.} .X8.u / .XjXcXcXcXcXcXcXcXcXcXcXcXcXcXcXcXcXcXcX",
"cXcXcXcXcXcXcXcXcXcXcXcXcXcXcXzX!.c.2 <X{ { G.tX8XH.} *.p.}.e.<.` 5.<.` P @ + -.*XtXbXbXcXcXcXcXcXcXcXcXcXcXcXcXcXcXcXcXcXcXcXcX",
"cXcXcXcXcXcXcXcXcXcXcXcXcXcXcXR.2 h.h f.A.H.dXt sXcX-X5.5.w.5.4.3.` ! T @ + e } bXiX*XjXcXcXcXcXcXcXcXcXcXcXcXcXcXcXcXcXcXcXcXcX",
"cXcXcXcXcXcXcXcXcXcXcXcXcXcXaXg h 2 x.2 R.j.^.-.I.xX Xq.w.e.w.w.! I # *.) y e 7.cXcXzX$XiXcXcXcXcXcXcXcXcXcXcXcXcXcXcXcXcXcXcXcX",
"cXcXcXcXcXcXcXcXcXcXfXcXcXzXc.2 * h ; n.f.>XA.=.u L./ _  . .#._ I I R <.9./ L J.cXcXcXcX8X.XmXcXcXcXcXcXcXcXcXcXcXcXcXcXcXcXcXcX",
"cXcXcXcXcXcXcXcXcXmX*X&X$XXX< g = x.0 x.x.x.0XxXL.1.1.q.0.#.#.3.X.q.q.q.3.2.3.P.yXiXgXxXcXjX$X8XcXcXcXcXcXcXcXcXcXcXcXcXcXcXcXcX",
"cXcXcXcXcXcXcXcX(.l q -.Y.dXk ; 1 x.g.x.h.R.iX X3. .T Y ! ~ I  .u .. ._ =./ ( ( o.r.r.P.OX=XiX8XT.gXcXcXcXcXcXcXcXcXcXcXcXcXcXcX",
"cXcXcXcXcXcXcX4X7 7 7 w q S./., 2 , , k.x.{ [ 8.;.# # ' } _ T ..=.X.X.=./ ( ^.*X-X=X-X;X`.`.r.r.L._  XyXbXcXcXcXcXcXcXcXcXcXcXcX",
"cXcXcXcXcXcXbXZ 7 M F 7 M q } A.< h k.z.E.5X~.5Xi @ z s g.z x G.U ) #._ ] <.5.q.9.5.q.}.+XyXuX].>.&.o.X.OXxXcXcXcXcXcXcXcXcXcXcX",
"cXcXcXcXcXcXmXZ 7 m o 7 D H.Z.I.~.<X0XfXuX=X;.5X~.8Xj c., R.v.Q.~.$X7.1.)  ._ T ` e.P.OXoX@XkXcXxXuXF.A 3.P.8XcXcXcXcXcXcXcXcXcX",
"cXcXcXcXcXcXcX(.O o m M S fX6XmX X.XOXT.jXL.[ -XjX/.; x.> h g.Q.2XbXG.# Q 6.3.1.8.L. X X+XoX%XkXcXcXcXdXU.:.A U.sXcXcXcXcXcXcXcX",
"cXcXcXcXcXcXcXzXN.7 M F.qX5XY.~.( i / XXn.z B.G.XXs =   c.j.R.n.Q.zX( + @ X.1.9.L.L.P. X#XoX%XxXcXcXcXcXcXdXF.V A T.bXcXcXcXcXcX",
"cXcXcXcXcXcXcXcXmXNX0XmXbX9XN.N.a v.> x.0 x.x.B.9XE.; g.1 z.h ,XQ.uXL # y P 3.e. XP.L.L.}.#X@XbXcXcXcXcXcXcXcXfXZ.V &.8XcXcXcXcX",
"cXcXcXcXcXcXcXcXcXcXcXcXfXz.- j = k 9 , s.< 1Xn.Q.V.= 2 g.n.R.W.9X0XI J y y # 1. X XL.L.e.p.oXkXcXcXcXcXcXcXcXmX[.A :.,.sXcXcXcX",
"cXcXcXcXcXcXcXcXcXcXcXcXR.5 j 5 a - , 0 3 s.k.W.W.c.X g g.z.2X9XmXyXQ # Y L L ` *. X XP.0.p.oXpXcXcXcXcXcXcXMX).:.uXcXwXcXcXcXcX",
"cXcXcXcXcXcXcXcXcXcXcXcXl - a . .   , 2 , k.k.W.W.g.; v.S.<XdXcXcXyX@.U P $ y R @.=.4.e.0.w.p.yXcXcXcXcXcXeX_.U.bXcXcXcXcXcXcXcX",
"cXcXcXcXcXcXcXcXcXcXcXbXl 6 6 5 5 = , , h.3 W.d.W.g ; l.x H.sXcXcXuX_ T T L P I ~ $.#.5.$.0.e.yXcXcXcXbX[.y.8XcXcXcXcXcXcXcXcXcX",
"cXcXcXcXcXcXcXcXcXcXcXdXl 6 - 6 6 - % , = 3 k.b.b.% f C.b.2XcXcXcXmX*.# # ] _ ! ~ t.@.e.6.a.0.p.bXcXzX{.:.wXcXcXcXcXcXcXcXcXcXcX",
"cXcXcXcXcXcXcXcXcXcX0X5X/.6 6 6 6 6 : , 1 g.h.f.= , f.x.n.1XcXcXcXcXtX' ) =.+.0.O.%.O.$.`.r.=XrXxXkX).'.J.bXcXcXcXcXcXcXcXcXcXcX",
"cXcXcXcXcXcXcXcXcXcX-.5X7.D.M.l M.l N.j.d.d.d.2 ; , , d.g.9XcXcXcXcXcX7XK. Xq.rXOX X X9.-X{.`.pXkX'.].5XsXcXcXcXcXcXcXcXcXcXcXcX",
"cXcXcXcXcXcXcXcXmXdXr G.*.5XS.N.(./.r jXT.9Xz % ; = f l.,XcXcXcXcXcXcX'.V F.G.sXyX7X-X7X8X*XT.K.r.;XcXbXcXcXcXcXcXcXcXcXcXcXcXcX",
"cXcXcXcXcXcXcXcXA.s.1 s r i 8.Y.Z.~.r G.=XzX/.k ; f x.W.mXcXcXcXcXcXwXv B H D i iXxXcXcXcXcXeX,.-XcXcXcXcXcXcXcXcXcXcXcXcXcXcXcX",
"cXcXcXcXcXcXcXB., & 1 4 W.E.dX5X{ X q { jX.XkX0XA.c.,XdXcXcXcXcXcXcX).v b N _.>.7XxXcXcXcX7X>.).mXcXcXcXcXcXcXcXcXcXcXcXcXcXcXcX",
"cXcXcXcXcXcXlXf ; ; m.s.b.>X0XC.h c.s q p L.cXcXcXmXcXcXcXcXcXcXcXcXD c c C H [.cXcXjXiX;X`.eX4X&XcXjXcXcXcXcXcXcXcXcXcXcXcXcXcX",
"cXcXcXcXcXcX/.f , & l.b.C.b.h ; 1 0 x.!.D.;.5XkXbXcXcXcXcXcXcXcXcXcX).c b G _.bXcXcX7X&.K.i x F.} ~.&XcXcXcXcXcXcXcXcXcXcXcXcXcX",
"cXcXcXcXcXcXR., k.; W.s.,Xs., f 0 d.f.Q.,XiX*XyXcXcXcXcXcXcXcXcXcXcXcX).y.{.zXcXxX%X>.wXc.: : z.d Q.mXcXcXcXcXcXcXcXcXcXcXcXcXcX",
"cXcXcXcXcXcX0X1 , f f b.0 !., 2 3 1 g.b.,XcXcXcXcXcXcXcXcXcXcXcXfXbXyXoXp.5.L.$X|.K.^.6X: = = 9 k v.aXcXcXcXcXcXcXcXcXcXcXcXcXcX",
"cXcXcXcXcXcXlXf & s.x.d.,X!., 9 2 , n.x.1XcXcXcXcXcXcXcXcXcXcXcXuX7XiX-X#X1.&X8.=.$XuXS.= = = 9 j c.1XbXcXcXcXcXcXcXcXcXcXcXcXcX",
"cXcXcXcXcXcXcX2Xk.d.m.,XcX9X2 0 , s.d.W.aXcXcXcXcXcXcXcXcXcXcXcXjX=.%X XP.kXY.tX[ 4.tXZ.  > : j v.!./.cXcXcXcXcXcXcXcXcXcXcXcXcX",
"cXcXcXcXcXcXcXcXdXaXmXcXcXdXg.f 3 h.l.3XvXcXcXcXcXcXcXcXcXcXcXcXcX^.o.A &.U.=.A >.>.K.I.> < < z.v.c.4XcXcXcXcXcXcXcXcXcXcXcXcXcX",
"cXcXcXcXcXcXcXcXcXcXcXcXcXcXaXx.g W.1XmXcXcXcXcXcXcXcXcXcXcXcXcXcXwXN C _._.~.y.G y.'.K.d > g.z.R.c.aXcXcXcXcXcXcXcXcXcXcXcXcXcX",
"cXcXcXcXcXcXcXcXcXcXcXcXcXcXcXmXdXlXcXcXcXcXcXcXcXcXcXcXcXcXcXcXcX).n N D H D.B B y.G ,.q a < g R.,XvXcXcXcXcXcXcXcXcXcXcXcXcXcX",
"cXcXcXcXcXcXcXcXcXcXcXcXcXcXcXcXcXcXcXcXcXcXcXcXcXcXcXcXcXcXcXcXkX,.B B H _.x M B G u.w a c.B.{ ^.sXcXcXcXcXcXcXcXcXcXcXcXcXcXcX",
"cXcXcXcXcXcXcXcXcXcXcXcXcXcXcXcXcXcXcXcXcXcXcXcXcXcXcXcXcXcXcXxXrXx N B N S b.N.N C M h f W.x.z *XzXcXcXcXcXcXcXcXcXcXcXcXcXcXcX",
"cXcXcXcXcXcXcXcXcXcXcXcXcXcXcXcXcXcXcXcXcXcXcXcXcXcXcXcXcXcXcXhX8X8XE.a 5 z.s.x.2X].: ; a g.C.b.xXcXcXcXcXcXcXcXcXcXcXcXcXcXcXcX",
"cXcXcXcXcXcXcXcXcXcXcXcXcXcXcXcXcXcXcXcXcXcXcXcXcXcXcXcXcXcXcXcXuXmXj ; , 0 Q.n.1XdXh < a j g.Q.cXcXcXcXcXcXcXcXcXcXcXcXcXcXcXcX",
"cXcXcXcXcXcXcXcXcXcXcXcXcXcXcXcXcXcXcXcXcXcXcXcXcXcXcXcXcXcXcXcXcXcXc.: 2 f.f.x.aXfX< : : j g.R.cXcXcXcXcXcXcXcXcXcXcXcXcXcXcXcX",
"cXcXcXcXcXcXcXcXcXcXcXcXcXcXcXcXcXcXcXcXcXcXcXcXcXcXcXcXcXcXcXcXcXcX1X; = g k.R.bXcXA.> s z.g.,XcXcXcXcXcXcXcXcXcXcXcXcXcXcXcXcX",
"cXcXcXcXcXcXcXcXcXcXcXcXcXcXcXcXcXcXcXcXcXcXcXcXcXcXcXcXcXcXcXcXcXcXcX2X8 > R.dXcXcXaXd < x.C.dXcXcXcXcXcXcXcXcXcXcXcXcXcXcXcXcX",
"cXcXcXcXcXcXcXcXcXcXcXcXcXcXcXcXcXcXcXcXcXcXcXcXcXcXcXcXcXcXcXcXcXcXcXcXcXzXcXcXcXcXcXdXaX/.dXcXcXcXcXcXcXcXcXcXcXcXcXcXcXcXcXcX",
"cXcXcXcXcXcXcXcXcXcXcXcXcXcXcXcXcXcXcXcXcXcXcXcXcXcXcXcXcXcXcXcXcXcXcXcXcXcXcXcXcXcXcXcXcXcXcXcXcXcXcXcXcXcXcXcXcXcXcXcXcXcXcXcX",
"cXcXcXcXcXcXcXcXcXcXcXcXcXcXcXcXcXcXcXcXcXcXcXcXcXcXcXcXcXcXcXcXcXcXcXcXcXcXcXcXcXcXcXcXcXcXcXcXcXcXcXcXcXcXcXcXcXcXcXcXcXcXcXcX",
"cXcXcXcXcXcXcXcXcXcXcXcXcXcXcXcXcXcXcXcXcXcXcXcXcXcXcXcXcXcXcXcXcXcXcXcXcXcXcXcXcXcXcXcXcXcXcXcXcXcXcXcXcXcXcXcXcXcXcXcXcXcXcXcX"
};
