/* XPM */
static char *_8484d939ffe4d27ccb6cc96bec8a421YLF5uKibQqkwCXjl[] = {
/* columns rows colors chars-per-pixel */
"64 64 251 2 ",
"   c #063E19",
".  c #0A3A20",
"X  c #33731C",
"o  c #306E1D",
"O  c #17592A",
"+  c #0D4931",
"@  c #144E2E",
"#  c #205A31",
"$  c #28682B",
"%  c #377425",
"&  c #276638",
"*  c #316938",
"=  c #377639",
"-  c #306F2E",
";  c #235A19",
":  c #3A7948",
">  c #397855",
",  c #2D6B45",
"<  c #3C7A65",
"1  c #467E53",
"2  c #447A4A",
"3  c #597766",
"4  c #3B803F",
"5  c #45881F",
"6  c #7FA31D",
"7  c #498629",
"8  c #538B2A",
"9  c #5B9228",
"0  c #458638",
"q  c #548639",
"w  c #5A9736",
"e  c #679A38",
"r  c #70942C",
"t  c #75A52C",
"y  c #71A736",
"u  c #618716",
"i  c #488444",
"p  c #538649",
"a  c #488555",
"s  c #578954",
"d  c #5B9359",
"f  c #5F9446",
"g  c #70974C",
"h  c #79A947",
"j  c #77AB53",
"k  c #568766",
"l  c #488671",
"z  c #689569",
"x  c #6B9974",
"c  c #739A77",
"v  c #608C7D",
"b  c #79A769",
"n  c #6BA675",
"m  c #79A877",
"M  c #6CA26D",
"N  c #9BA717",
"B  c #8FAC1B",
"V  c #BBB60F",
"C  c #85AD35",
"Z  c #8BB12F",
"A  c #A4AD31",
"S  c #B5BC25",
"D  c #EABC05",
"F  c #E8BA09",
"G  c #F1BD03",
"H  c #E9B913",
"J  c #E1B51F",
"K  c #AED13D",
"L  c #ACC938",
"P  c #B0C415",
"I  c #D6CE05",
"U  c #E8C807",
"Y  c #F4C404",
"T  c #F4CB04",
"R  c #F5C50B",
"E  c #F6CC0C",
"W  c #F8CC08",
"Q  c #E9D405",
"!  c #FADC05",
"~  c #F9D20C",
"^  c #F5DA0D",
"/  c #FADA0D",
"(  c #F4D605",
")  c #EEC316",
"_  c #F2C415",
"`  c #F4C916",
"'  c #ECD613",
"]  c #F6DB13",
"[  c #FADE13",
"{  c #F7D818",
"}  c #FCE30C",
"|  c #F7E506",
" . c #FCE411",
".. c #FCEA14",
"X. c #FBE31B",
"o. c #FCED1C",
"O. c #F7E415",
"+. c #F4EC0E",
"@. c #D1D531",
"#. c #F5CC24",
"$. c #F7D528",
"%. c #F6D43A",
"&. c #D5E43C",
"*. c #E9E325",
"=. c #FCEC24",
"-. c #FCEC2C",
";. c #F8E626",
":. c #FDF324",
">. c #FDF22B",
",. c #F9EB33",
"<. c #F8EC39",
"1. c #FDF53C",
"2. c #FDF435",
"3. c #E6EF3A",
"4. c #88B945",
"5. c #94BC48",
"6. c #85B654",
"7. c #93BB5F",
"8. c #83AC50",
"9. c #ACB551",
"0. c #86B669",
"q. c #86B67A",
"w. c #8DB171",
"e. c #879E58",
"r. c #96C449",
"t. c #9BC456",
"y. c #A3CB42",
"u. c #B9D749",
"i. c #B4D45C",
"p. c #B9D957",
"a. c #ACCC56",
"s. c #BEE055",
"d. c #9DC663",
"f. c #8BC163",
"g. c #A6CB65",
"h. c #ACD467",
"j. c #B9D968",
"k. c #A7C575",
"l. c #B4D474",
"z. c #BBE275",
"x. c #C3DD59",
"c. c #D2DC47",
"v. c #F5DA59",
"b. c #F4CC43",
"n. c #CDE34A",
"m. c #D6E744",
"M. c #CBE35C",
"N. c #C8E459",
"B. c #D4EA5C",
"V. c #D5E959",
"C. c #DBF158",
"Z. c #F8EE43",
"A. c #FDF443",
"S. c #FCF54B",
"D. c #FAF747",
"F. c #E6F657",
"G. c #FCF658",
"H. c #EBEA53",
"J. c #C2DD65",
"K. c #C1DF7B",
"L. c #F5DD63",
"P. c #C8E567",
"I. c #D7EB67",
"U. c #CBE776",
"Y. c #D4E874",
"T. c #DBF26E",
"R. c #F9ED6A",
"E. c #FCF663",
"W. c #FBF66B",
"Q. c #F9EA76",
"!. c #FCFA7B",
"~. c #FAF876",
"^. c #E4F065",
"/. c #6B9984",
"(. c #70A784",
"). c #85A788",
"_. c #89B889",
"`. c #95BD89",
"'. c #86A995",
"]. c #95AF97",
"[. c #96B799",
"{. c #88BB93",
"}. c #A0BE9B",
"|. c #98B6A6",
" X c #A5BBAF",
".X c #A6BAB2",
"XX c #99C38B",
"oX c #9AC796",
"OX c #A4CC8C",
"+X c #A6CC97",
"@X c #AAD298",
"#X c #BEDE9B",
"$X c #B6D999",
"%X c #B6D18D",
"&X c #BFE39D",
"*X c #9CC1A8",
"=X c #A9C8A7",
"-X c #B4CCA8",
";X c #B9D7AA",
":X c #B5CAB6",
">X c #BBD3B8",
",X c #ABCCAD",
"<X c #BCE2A5",
"1X c #C1DA9A",
"2X c #D3DC83",
"3X c #D4E885",
"4X c #C8E49B",
"5X c #D9E991",
"6X c #FCFB83",
"7X c #FCFA8A",
"8X c #FBF585",
"9X c #FDFB93",
"0X c #FCFB9C",
"qX c #F9F59C",
"wX c #EDE785",
"eX c #CBDCA8",
"rX c #C5DAB6",
"tX c #C9E4A4",
"yX c #D1E7AF",
"uX c #FCF9A8",
"iX c #F7EDB8",
"pX c #FBF8B8",
"aX c #EEEEAD",
"sX c #F4D38C",
"dX c #BFCAC2",
"fX c #BFD1C1",
"gX c #C7D8C7",
"hX c #D4DED6",
"jX c #CFDCD3",
"kX c #CEE1C5",
"lX c #D8E8C8",
"zX c #DBE8D7",
"xX c #FAF6C8",
"cX c #E4EED8",
"vX c #ECF5DE",
"bX c #E7F3D5",
"nX c #FBF9DA",
"mX c #E6EAC6",
"MX c #E3EAE5",
"NX c #E7EDEA",
"BX c #ECF3EC",
"VX c #EAF3E6",
"CX c #F1F4EC",
"ZX c #F5F9EC",
"AX c #F8F9E6",
"SX c #EEF3F0",
"DX c #F3F6F2",
"FX c #F6F9F4",
"GX c #F9FBF6",
"HX c #FFFFFF",
"JX c #F5F8F8",
/* pixels */
"HXHXHXHXHXHXHXHXHXHXHXHXHXHXHXHXHXHXHXHXHXHXHXHXHXHXHXHXHXHXHXHXHXHXHXHXHXHXHXHXHXHXHXHXHXHXHXHXHXHXHXHXHXHXHXHXHXHXHXHXHXHXHXHX",
"HXHXHXHXHXHXHXHXHXHXHXHXHXHXHXHXHXHXHXHXHXHXHXHXHXHXHXHXHXHXHXHXHXHXHXHXHXHXHXHXHXHXHXHXHXHXHXHXHXHXHXHXHXHXHXHXHXHXHXHXHXHXHXHX",
"HXHXHXHXHXHXHXHXHXHXHXHXHXHXHXHXHXHXHXHXHXHXHXHXHXHXHXHXHXHXHXHXHXHXHXHXHXHXHXHXHXHXCXHXHXHXHXHXHXHXHXHXHXHXHXHXHXHXHXHXHXHXHXHX",
"HXHXHXHXHXHXHXHXHXHXHXHXHXHXHXHXHXHXHXHXHXHXHXHXHXHXHXHXHXHXHXHXHXHXHXHXHXHXHXHXCX1X).HXHXHXHXHXHXHXHXHXHXHXHXHXHXHXHXHXHXHXHXHX",
"HXHXHXHXHXHXHXHXHXCX>XCXHXHXHXHXHXHXHXHXHXHXHXHXHXHXHXHXHXHXHXHXHXHXHXGXxXiX4Xg.Z - gXHXHXHXHXHXHXHXHXHXHXHXHXHXHXHXHXHXHXHXHXHX",
"HXHXHXHXHXHXHXHXHX-X$ 1 jXHXHXHXHXHXHXHXHXHXHXHXHXHXHXHXHXHXHXHXHXvX5Xm.3.@.K y.9 2 HXHXHXHXHXHXHXHXHXHXHXHXHXHXHXHXHXHXHXHXHXHX",
"HXHXHXHXHXHXHXHXHXHXzX).s gXHXHXHXHXHXHXHXHXHXHXHXHXHXHXHXHXHXFX;Xi.m.m.H.u.n.8.q +XHXHXHXHXHXHXHXHXHXHXHXHXHXHXHXHXHXHXHXHXHXHX",
"HXHXHXHXHXHXHXHXHXHXHXHXMXx :XHXHXHXHXHXHXHXHXHXHXHXHXHXHXHXJXw.y m.@.&.n.n.u.C f VXHXHXHXHXHXHXHXHXHXHXHXHXHXHXHXHXHXHXHXHXHXHX",
"HXHXHXHXHXHXHXHXHXHXHXHXHXGXx -XGXHXHXHXHXHXHXHXHXHXHXHXHXFXj y y.F.K n.5.C t Z eXHXHXHXHXHXHXHXHXHXHXHXHXHXHXHXHXHXHXHXHXHXHXHX",
"HXHXHXHXHXHXHXHXHXHXHXHXHXHXFX[.b cXHXHXHXHXHXHXHXHXHXHXHX`.8 4.N.u.h 5.u.u.m.j.HXHXHXHXHXHXHXHXHXHXHXHXHXHXHXHXHXHXHXHXHXHXHXHX",
"HXHXHXHXHXHXHXHXHXHXHXHXHXHXMXdX:Xz }.FXHXHXHXHXHXHXHXHXFXw 9 C h h d.x.V.n.p.bXHXHXHXHXHXHXHXHXHXHXHXHXHXHXHXHXHXHXHXHXHXHXHXHX",
"HXHXHXHXHXHXHXHXHXHXZXzXrX=X+X>XcXzX(.a rXFXHXHXhXJXHXHXgXX 7 0 a 0.g.t.Z t.lXHXHXHXHXHXHXHXHXHXHXHXHXHXHXHXHXHXHXHXHXHXHXHXHXHX",
"HXHXHXHXHXHXHXHXvXyX@XXX_.q.q.q.q._.gX:X1 s ;X>XMXHXHXHX[.% & : a 0.g.t.7.$XyXaXiXAXHXHXHXHXHXHXHXHXHXHXHXHXHXHXHXHXHXHXHXHXHXHX",
"HXHXHXHXHXHXHXbX@XXX$X@X@XOX`.n 1 a 1 k '.z w.w.z -XcX=X# @ , : d b e e d.Y.3XU.3XY.3XZXHXHXHXHXHXHXHXHXHXHXHXHXHXHXHXHXHXHXHXHX",
"HXHXHXHXHXHXZX#X#X$XOX_.m M |.:XMX=X'.JXHX].FX-XBX].z i q.q.b f 8 8 e r.p.i.4.6.8.a.u.p.bXHXHXHXHXHXHXHXHXHXHXHXHXHXHXHXHXHXHXHX",
"HXHXHXHXHXHXlXtXOXm XXm |.HXHXHXJX& * 1 zX XCX>XDXzXHXFXgXc d - 7 e 8 8 q s s d 1 > : h y.vXHXHXHXHXHXHXHXHXHXHXHXHXHXHXHXHXHXHX",
"HXHXHXHXHXHXtXXX+X#X`.hXHXHXHXHX:X& a & , ].gXlXMXJXHXHXHXhXk c k & & : s b +XkXcXzXlX=X0.t.AXHXHXHXHXHXHXHXHXHXHXHXHXHXHXHXHXHX",
"HXHXHXHXHXHX@X@X4X1XBXHXHXHXHXHXz = s * , 1 w.FXJXHXHXHXHXSX@ * a x M `.kXDXHXHXHXHXHXHXHXfXk.FXHXHXHXHXHXHXHXHXHXHXHXHXHXHXHXHX",
"HXHXHXHXHXHX#X4X$XvXHXHXHXxXR.,.O.*.&.9.t % B <.A.>.1.W.0XmX  O = a > i i =XGXHXHXHXHXHXHXHXFXcXFXHXHXHXHXHXHXHXHXHXHXHXHXHXHXHX",
"HXHXHXHXHXHXtX%X$XHXHXnXv.| } o.-.A.W.~.H.B I +.:.D.~.9X9X~.g O = $ : 0 7 7 6.CXHXHXHXHXHXHXHXHXHXHXHXHXHXHXHXHXHXHXHXHXHXHXHXHX",
"HXHXHXHXHXHX#Xq.VXHXiX#.! } ..o.2.G.7X6XW.Q | o.1.G.6X0XpX7X9Xq = $ X 7 8 8 4.l.vXHXHXHXHXHXHXHXHXHXHXHXHXHXHXHXHXHXHXHXHXHXHXHX",
"HXHXHXHXHXHXXX_.HXAXH ` ! X...=.A.E.9X7X;.| ..:.G.!.9X0XpX0X0X2X$ 0 % 7 e t.p.P.K.vXHXHXHXHXHXHXHXHXHXHXHXHXHXHXHXHXHXHXHXHXHXHX",
"HXHXHXHXHXHXm >XHXb.G Y ! }  .-.G.G.6X!.| | +.:.G.6X~.9XuX0X7X7Xh 4 t.e y l.I.C.I.I.ZXHXHXHXHXHXHXHXHXHXHXHXHXHXHXHXHXHXHXHXHXHX",
"HXHXHXHXHXBX).HXpXT _ #.$.[ X.A.G.~.!.H.| | | ..1.G.A.W.7X6X~.~.c.d g.x.x.J.Y.F.C.I.3XHXHXHXHXHXHXHXHXHXHXHXHXHXHXHXHXHXHXHXHXHX",
"HXHXHXHXHXkXMXHX%.Y Y $.$.(  .2.D.E.~.Z.( ( ! ..>.=.2.S.E.!.6X!.D.p 0.j.M.M.u.a.V.C.n.mXHXHXHXHXHXHXHXHXHXHXHXHXHXHXHXHXHXHXHXHX",
"HXHXHXHXFXDXHXnX~ R R ` ` T } -.1.G.S.;.Q Q Q [ o.:.>.1.S.!.!.~.1.C j x.M.V.M.x.a.i.K 7.FXHXHXHXHXHXHXHXHXHXHXHXHXHXHXHXHXHXHXHX",
"HXHXHXHXJXHXHXpX{ T T _ _ W ! o.o.1.1.o.Q U U ] } o.>...1.S.W.D.2.L 0.g.M.M.B.N.p.P.h.6.rXHXHXHXHXHXHXHXHXHXHXHXHXHXHXHXHXHXHXHX",
"HXHXHXHXHXHXHXiX[ $.Y Y E ( ! } ....=.:.Q U U ^ / } ..o.:.1.A.2.:.H.q.g.J.x.I.B.P.P.Y.h.6.HXHXHXHXHXHXHXHXHXHXHXHXHXHXHXHXHXHXHX",
"HXHXHXHXHXHXHXnXX.{ Y R Y Y E ( } ..o...^ Q U ' ] [ ! | o.:.-.2.2.W.JXlX1Xl.g.j.J.j.Y.I.7.lXHXHXHXHXHXHXHXHXHXHXHXHXHXHXHXHXHXHX",
"HXHXHXHXHXHXHXAX/ ( Y ` H _ R D ]  . .X.N V Q ' ] / / ^ ! } :.>.=.8XHXHXHXHXNXjX-XoXXXOXk.OXHXHXHXHXHXHXHXHXHXHXHXHXHXHXHXHXHXHX",
"HXHXHXHXHXHXHXnX%.Y Y Y G Y H D _ ~ / N o u I ' ^ [ ] ^ ! } o.....nXHXHXHXJXJXHXHXHXHXHXHXrXBXHXHXHXHXHXHXHXHXHXHXHXHXHXHXHXHXHX",
"HXHXHXHXHXHXHXHXsXb._ ` ~ ~ R _ Y #.9.% ; 8 B I ( ] ^ / } X.} ..Q.HXHXHXHXHXzX:XJXHXHXHXHXHXHXHXHXHXHXHXHXHXHXHXHXHXHXHXHXHXHXHX",
"HXHXHXHXHXHXHXHXHXHXAXqXL.v.v.Q.iXHXZX8.7 9 7 6 Q | | ! | } } <.GXHXHXHXHXHXHX X'.HXHXHXHXHXHXHXHXHXHXHXHXHXHXHXHXHXHXHXHXHXHXHX",
"HXHXHXHXHXHXHXHXHXHXHXHXHXHXHXHXHXHXHXZXk.t t 9 N I *.,.-.;.] qXHXHXHXHXHXHXHXJX_.*XHXHXHXHXHXHXHXHXHXHXHXHXDXHXHXHXHXHXHXHXHXHX",
"HXHXHXHXHXHXHXHXHXHXHXHXHXHXHXHXHXHXHXHXHX$Xu.Z Z P Y.HXHXHXnXHXHXHXHXHXHXHXHXHXyXOX;XDXHXHXHXHXHXHXHXHXHXDX].HXHXHXHXHXHXHXHXHX",
"HXHXHXHXHXHXHXHXHXHXHXHXHXHXHXHXHXHXHXHXHXHXAXi.L L wXHXHXHXHXHXHXHXHXHXHXHXHXHXvX$X&X;XgXSXHXHXHXHXJX.X|.'.gXHXHXHXHXHXHXHXHXHX",
"HXHXHXHXHXHXHXHXHXHXHXHXHXHXHXHXHXHXHXHXHXHXHXHX%XL 5XHXHXHXHXHXHXHXHXHXHXHXHXHXHX+XoX@X@X/.v |.]./.l /..X'.HXHXHXHXHXHXHXHXHXHX",
"HXHXHXHXHXHXHXHXHXHXHXHXHXHXHXHXHXHXHXHXHXHXHXHXGXg.mXHXHXHXHXHXHXHXHXHXHXHXHXHXHXbX<XoX_.[.@XoX(.n _.jX).GXHXHXHXHXHXHXHXHXHXHX",
"HXHXHXHXHXHXHXHXHXHXHXHXHXHXHXHXHXHXHXHXHXHXHXHXHXlXHXHXHXHXHXHXHXHXHXHXHXHXHXHXHXHXlX$XoXoX{.{.{.,XDXx zXHXHXHXHXHXHXHXHXHXHXHX",
"HXHXHXHXHXHXHXHXHXHXHXHXHXHXHXHXHXHXHXHXHXHXHXHXHXHXHXHXHXHXHXHXHXHXHXHXHXHXHXCXrX;X;X=X=XlXzXzXBXHX=Xz CXHXHXHXHXHXHXHXHXHXHXHX",
"HXHXHXHXHXHXHXHXHXHXHXHXHXHXHXHXHXHXHXHXHXHXHXHXHXHXHXHXHXHXHXHXHXHXHXHXHXeXg X X % % & @ . 3 dXSX|.[.# gXHXHXHXHXHXHXHXHXHXHXHX",
"HXHXHXHXHXHXHXHXHXHXHXHXHXHXHXHXHXHXHXHXHXHXHXHXHXHXHXHXHXHXHXHXHXHXHXGX,XM : : = = * O @ + + @ 3 e.c + - ).HXHXHXHXHXHXHXHXHXHX",
"HXHXHXHXHXHXHXHXHXHXHXHXHXHXHXHXHXHXHXHXHXHXHXHXHXHXHXHXHXHXHXHXHXHXHX;Xd.0.b n n a : , & & , k 9.F S p $ o d FXHXHXHXHXHXHXHXHX",
"HXHXHXHXHXHXHXHXHXHXHXHXHXHXHXHXHXHXHXHXHXHXHXHXHXHXHXHXHXHXHXHXHXHXkXh.P.M.N.h.i.j % $ & < j @.Q ^ O.=.@.Z 5 b HXHXHXHXHXHXHXHX",
"HXHXHXHXHXHXHXHXHXHXHXHXHXHXHXHXHXHXHXHXHXHXHXHXHXHXHXHXHXHXHXHXHXJXl.P.B.B.V.V.5.7 = $ > A ( ^ } X.=.1.G.D.K 8 zXHXHXHXHXHXHXHX",
"HXHXHXHXHXHXHXHXHXHXHXHXHXHXHXHXHXHXHXHXHXHXHXHXHXHXHXHXHXHXHXHXHX=XP.I.C.V.V.N.h w 0 4 A ^ ( O.o.<.S.G.7X9X!.5.`.HXHXHXHXHXHXHX",
"HXHXHXHXHXHXHXHXHXHXHXHXHXHXHXHXHXHXHXHXHXHXHXHXHXHXHXHXHXHXHXHXBX7.I.C.V.P.M.3Xz.6.7 9 T T T O.;.G.!.6X0X0X9X^.j FXHXHXHXHXHXHX",
"HXHXHXHXHXHXHXHXHXHXHXHXHXHXHXHXHXHXHXHXHXHXHXHXHXHXHXHXHXHXHXHX*XP.P.p.i.a.F.F.I.r.w V Y Y E ] -.E.6X7X9X0X9X8Xi.cXHXHXHXHXHXHX",
"HXHXHXHXHXHXHXHXHXHXHXHXHXHXHXHXHXHXHXHXHXHXHXHXHXHXHXHXHXHXHXMXq.U.I.P.j.C.F.F.P.h.%XF D D Y [ -.Z.D.E.0XpXqX8XT.lXHXHXHXHXHXHX",
"HXHXHXHXHXHXHXHXHXHXHXHXHXHXHXHXHXHXHXHXHXHXHXHXHXHXHXHXHXHXHX:XU.T.U.r.C.F.^.U.4XVXiXD F F ` [ X.;.<.E.8X9XqXuX~.iXHXHXHXHXHXHX",
"HXHXHXHXHXHXHXHXHXHXHXHXHXHXHXHXHXHXHXHXHXHXHXHXHXHXHXHXHXHXVXk.g.f.j 4.s.U.aXnXHXHXqXD F D E [ ;.-.Z.A.7X7XW.~.F.pXHXHXHXHXHXHX",
"HXHXHXHXHXHXHXHXHXHXHXHXHXHXHXHXHXHXHXHXHXHXHXHXHXHXHXHXHXJX=X;X;X;XkXVXHXHXHXHXHXHXaXD H ) T / X.;.;.S.W.W.7XW.3.nXHXHXHXHXHXHX",
"HXHXHXHXHXHXHXHXHXHXHXHXHXHXHXHXHXHXHXHXHXHXHXHXHXHXHXHXHXHXHXHXHXHXHXHXHXHXHXHXHXHXmXD ) R #.E [ X.;.Z.~.!.R.G.&.GXHXHXHXHXHXHX",
"HXHXHXHXHXHXHXHXHXHXHXHXHXHXHXHXHXHXHXHXHXHXHXHXHXHXHXHXHXHXHXHXHXHXHXHXHXHXHXHXHXHXAXH ) R E R W [ { ,.W.G.G.,.i.HXHXHXHXHXHXHX",
"HXHXHXHXHXHXHXHXHXHXHXHXHXHXHXHXHXHXHXHXHXHXHXHXHXHXHXHXHXHXHXHXHXHXHXHXHXHXHXHXHXHXHX@.F ` E E R ~ ;.;.<.<.,.*.g.HXHXHXHXHXHXHX",
"HXHXHXHXHXHXHXHXHXHXHXHXHXHXHXHXHXHXHXHXHXHXHXHXHXHXHXHXHXHXHXHXHXHXHXHXHXHXHXHXHXHX}.S U ` W ` Y W / ;.,.;.;.B d.HXHXHXHXHXHXHX",
"HXHXHXHXHXHXHXHXHXHXHXHXHXHXHXHXHXHXHXHXHXHXHXHXHXHXHXHXHXHXHXHXHXHXHXHXHXHXHXHXHXrXyXAX$.U R ` E W ~ X.-.,.X.w.p JXHXHXHXHXHXHX",
"HXHXHXHXHXHXHXHXHXHXHXHXHXHXHXHXHXHXHXHXHXHXHXHXHXHXHXHXHXHXHXHXHXHXHXHXHXHXHXHXcXDXHXHXxX' ( E ~ { ~ $.X.X.Q.HXgXDXHXHXHXHXHXHX",
"HXHXHXHXHXHXHXHXHXHXHXHXHXHXHXHXHXHXHXHXHXHXHXHXHXHXHXHXHXHXHXHXHXHXHXHXHXHXHXHXHXHXHXHXHXiX{ ( ~ / / { / R.HXHXHXHXHXHXHXHXHXHX",
"HXHXHXHXHXHXHXHXHXHXHXHXHXHXHXHXHXHXHXHXHXHXHXHXHXHXHXHXHXHXHXHXHXHXHXHXHXHXHXHXHXHXHXHXHXHXnXR.] ^ ^ v.xXHXHXHXHXHXHXHXHXHXHXHX",
"HXHXHXHXHXHXHXHXHXHXHXHXHXHXHXHXHXHXHXHXHXHXHXHXHXHXHXHXHXHXHXHXHXHXHXHXHXHXHXHXHXHXHXHXHXHXHXHXiXb.wXHXHXHXHXHXHXHXHXHXHXHXHXHX",
"HXHXHXHXHXHXHXHXHXHXHXHXHXHXHXHXHXHXHXHXHXHXHXHXHXHXHXHXHXHXHXHXHXHXHXHXHXHXHXHXHXHXHXHXHXHXHXHXHXHXHXHXHXHXHXHXHXHXHXHXHXHXHXHX",
"HXHXHXHXHXHXHXHXHXHXHXHXHXHXHXHXHXHXHXHXHXHXHXHXHXHXHXHXHXHXHXHXHXHXHXHXHXHXHXHXHXHXHXHXHXHXHXHXHXHXHXHXHXHXHXHXHXHXHXHXHXHXHXHX",
"HXHXHXHXHXHXHXHXHXHXHXHXHXHXHXHXHXHXHXHXHXHXHXHXHXHXHXHXHXHXHXHXHXHXHXHXHXHXHXHXHXHXHXHXHXHXHXHXHXHXHXHXHXHXHXHXHXHXHXHXHXHXHXHX"
};
