/* XPM */
static char *_a23882dc1054c81ded9aa1d221bec71NuUjU7KXnpkk60CK[] = {
/* columns rows colors chars-per-pixel */
"64 64 247 2 ",
"   c #4D321E",
".  c #4F3B25",
"X  c #6C3425",
"o  c #3B4C29",
"O  c #57442D",
"+  c #47562D",
"@  c #4C5C34",
"#  c #4C5C37",
"$  c #555C36",
"%  c #5F4B36",
"&  c #684D35",
"*  c #6A533A",
"=  c #775538",
"-  c #6F452A",
";  c #4E6237",
":  c #53633B",
">  c #5A6A3C",
",  c #546538",
"<  c #6D713C",
"1  c #765C42",
"2  c #6C5C4C",
"3  c #5C6B42",
"4  c #586944",
"5  c #5E7044",
"6  c #646C44",
"7  c #786246",
"8  c #637244",
"9  c #65744B",
"0  c #6A764B",
"q  c #6B7A4C",
"w  c #6A7544",
"e  c #747B4B",
"r  c #6D7D53",
"t  c #6B7853",
"y  c #757B53",
"u  c #B62528",
"i  c #942221",
"p  c #CF3736",
"a  c #964A2B",
"s  c #85583D",
"d  c #985A38",
"f  c #88482A",
"g  c #AA5238",
"h  c #9D623D",
"j  c #AA6239",
"k  c #B76B3C",
"l  c #CE433B",
"z  c #C0703B",
"x  c #8E5944",
"c  c #B04F4D",
"v  c #886647",
"b  c #936648",
"n  c #956156",
"m  c #847653",
"M  c #957859",
"N  c #937350",
"B  c #BA7544",
"V  c #AC6E4C",
"C  c #977B64",
"Z  c #916B6E",
"A  c #AD756B",
"S  c #BC5479",
"D  c #CC4945",
"F  c #D64D46",
"G  c #D7554B",
"H  c #CC5B4D",
"J  c #E3584E",
"K  c #DE6559",
"L  c #D9725C",
"P  c #CD6F50",
"I  c #E76856",
"U  c #E8755B",
"Y  c #E5614C",
"T  c #C55B71",
"R  c #C66E71",
"E  c #E97965",
"W  c #76834E",
"Q  c #748354",
"!  c #74845A",
"~  c #79855B",
"^  c #7D8A5C",
"/  c #798855",
"(  c #6F8054",
")  c #7D8B63",
"_  c #7A8662",
"`  c #848C5B",
"'  c #82925D",
"]  c #8D945B",
"[  c #958B53",
"{  c #B78155",
"}  c #B18F56",
"|  c #848C66",
" . c #9A856B",
".. c #849263",
"X. c #84926A",
"o. c #8C956A",
"O. c #8C9869",
"+. c #949B68",
"@. c #8E9A74",
"#. c #8B9675",
"$. c #939D73",
"%. c #949B78",
"&. c #908976",
"*. c #A78A68",
"=. c #AA957C",
"-. c #AC946C",
";. c #98A47B",
":. c #94A16B",
">. c #A8A56A",
",. c #A7AC77",
"<. c #B6B177",
"1. c #C68348",
"2. c #C98854",
"3. c #D68659",
"4. c #D79957",
"5. c #D1904F",
"6. c #E8845E",
"7. c #E9935B",
"8. c #DDA15E",
"9. c #D6B45D",
"0. c #E2A65C",
"q. c #CE8770",
"w. c #EB8A6A",
"e. c #EB8765",
"r. c #F18A67",
"t. c #ED9766",
"y. c #F2956C",
"u. c #F19965",
"i. c #EB9672",
"p. c #F39672",
"a. c #F29C76",
"s. c #C7BA78",
"d. c #D1B071",
"f. c #E4A965",
"g. c #EEAA76",
"h. c #F3A575",
"j. c #E7B974",
"k. c #F3B872",
"l. c #F1B26B",
"z. c #D5C87F",
"x. c #F4C77A",
"c. c #EBC874",
"v. c #B66D8E",
"b. c #B877A2",
"n. c #9C5791",
"m. c #C66E8D",
"M. c #CA7CA4",
"N. c #C36AA2",
"B. c #979E85",
"V. c #B1968C",
"C. c #9BA587",
"Z. c #A4AA87",
"A. c #ACB389",
"S. c #B7B688",
"D. c #A9A994",
"F. c #BBAB99",
"G. c #ABB497",
"H. c #B9B898",
"J. c #BC8BAF",
"K. c #B6BCA5",
"L. c #BDA1AF",
"P. c #D08898",
"I. c #C7B79A",
"U. c #C3B789",
"Y. c #EEB687",
"T. c #CB95B6",
"R. c #CB88B0",
"E. c #D2B8AF",
"W. c #E29C92",
"Q. c #BDC3AC",
"!. c #B9C4A4",
"~. c #BDC4B2",
"^. c #BBC097",
"/. c #D9CA84",
"(. c #C6C69A",
"). c #D1C98E",
"_. c #E3C786",
"`. c #F4CA85",
"'. c #E9D689",
"]. c #F6D888",
"[. c #ECD897",
"{. c #F5DC93",
"}. c #E3C992",
"|. c #F7E28C",
" X c #F5E395",
".X c #FAE493",
"XX c #F5E39B",
"oX c #F9E69C",
"OX c #FAEA9C",
"+X c #ECE39D",
"@X c #C6C8A9",
"#X c #D2CCA8",
"$X c #D4D2A9",
"%X c #C7CAB7",
"&X c #D4D4BA",
"*X c #D7D4B8",
"=X c #D2CDB3",
"-X c #F9E6A2",
";X c #FBEAA4",
":X c #FAEBAB",
">X c #F5E9A6",
",X c #FCF1A8",
"<X c #FAEEB1",
"1X c #F9ECB6",
"2X c #FDF4B4",
"3X c #FDF3BB",
"4X c #EAE0A2",
"5X c #EAD6A8",
"6X c #CE98CD",
"7X c #D7AFD2",
"8X c #E1B6D2",
"9X c #CCCCC2",
"0X c #D8CBC7",
"qX c #D8D9C8",
"wX c #DCDCD2",
"eX c #D9D7D4",
"rX c #CDD2C3",
"tX c #E1DBCC",
"yX c #E4DCC9",
"uX c #E5DCD5",
"iX c #E8CECF",
"pX c #DEE0D4",
"aX c #E6E3CA",
"sX c #FEF7C2",
"dX c #E3E3D5",
"fX c #E4E4DB",
"gX c #EAE4DB",
"hX c #E9E9DB",
"jX c #F2E9D8",
"kX c #ECD9E6",
"lX c #ECEBE4",
"zX c #EBE7E4",
"xX c #F2EDE5",
"cX c #F2EDE9",
"vX c #F8EFE8",
"bX c #EFF0EB",
"nX c #F3F2EE",
"mX c #F7F2EB",
"MX c #F2EAF2",
"NX c #F6F5F4",
"BX c #F8F6F5",
"VX c #F7F8F3",
"CX c #F9F8F6",
"ZX c #F7F5F8",
"AX c #F9F7F8",
"SX c #FBFBFB",
"DX c #F7F9F8",
/* pixels */
"NXNXAXAXAXSXSXSXSXSXSXSXSXSXSXSXSXSXSXSXSXSXSXSXSXSXSXCXxXSXSXSXSXSXSXSXSXSXSXSXSXSXSXSXSXSXSXSXSXSXSXSXSXSXSXSXSXSXSXSXSXSXSXSX",
"NXNXAXAXSXSXSXSXSXSXSXSXSXSXSXSXSXSXSXSXSXSXSXSXSXSX#X(.CXSXSXSXSXSXSXSXSXSXSXSXSXSXSXSXSXSXSXSXSXSXSXSXSXSXSXSXSXSXSXSXSXSXSXSX",
"NXNXAXAXSXAXSXSXSXSXSXSXSXSXSXSXSXSXSXSXSXSXSXSXAX=X< *XSXSXSXSXSXSXSXcXSXSXSXSXSXSXSXSXSXSXSXSXSXSXSXSXSXSXSXSXSXSXSXSXSXSXSXSX",
"NXNXAXAXSXAXSXSXSXSXSXSXSXSXSXSXSXSXZXZXNXAXSXSXaX#X] nXSXSXSXSXSXSXSXyXSXSXSXSXSXSXSXSXSXSXSXSXSXSXSXSXSXSXSXSXSXSXSXSXSXSXSXSX",
"NXDXAXAXAXAXSXSXSXSXSXSXSXSXAXSXMX8X7X8XJ.kXAXmX).<.(.SXSXSXSXSXSXSXbX$XSXSXSXSXSXSXSXSXSXSXSXSXSXSXSXSXSXSXSXSXSXSXSXSXSXSXSXSX",
"NXAXAXAXAXAXSXSXSXSXSXSXSXSXAXMX6Xv.q.q.b.kXAX#X$X>.nXAXSXAXSXSXSXAXZ.@XAXSXSXSXSXSXSXSXSXSXSXSXSXSXSXSXSXSXSXSXSXSXSXSXSXSXSXSX",
"NXDXDXAXAXSXSXSXSXSXAXAXMXzXMX7XN.c m.M.R.NXlX<.(.qXAXAXSXAXAXAXAXqX..(.CXSXAXSXSXSXSXSXSXSXSXSXSXSXSXSXSXSXSXSXSXSXSXSXSXSXSXSX",
"NXDXAXAXAXAXSXSXAXAXAX7X6Xn.C iX6Xn.6XT.kXuXI.U.(.CXAXAXAXAXAXAXAX@X0 S.CXSXCXAXSXSXSXSXSXSXSXSXSXSXSXSXSXSXSXSXSXSXSXSXSXSXSXSX",
"NXNXAXAXAXAXAXSXAXAXAX7X6XC v M NXkX8XA R.T.P.>.nXDXzXiXAXAXAXAXlX$.+.(.CXAXAXSXSXSXSXSXSXSXSXSXSXSXSXSXSXSXSXSXSXSXSXSXSXSXSXSX",
"NXNXAXAXAXAXAXAXSXAXCXMXJ.A *.N &.R.R.T T m.b.yXCXeXV.-.uXZXAXZXH.^ >.tXCXAXAXSXSXSXSXSXSXSXSXSXSXSXSXSXSXSXSXSXSXSXSXSXSXSXSXSX",
"NXNXNXAXAXAXAXAXSXAXAXAXcXzXfXNXuXT.m.R V P P.zXnXV.v.Z zXNXZXqX^ Q +.cXZXCXSXSXSXSXSXSXSXSXSXSXSXSXSXSXSXSXSXSXSXSXSXSXAXSXSXSX",
"NXNXNXAXAXAXAXAXAXAXZXNXNXnXqX@XZ.R.m.c A R M.T.%XC A n nXNXzX$.~ | ,.cXNXCXSXAXSXSXSXSXSXSXSXSXSXSXSXSXSXSXSXSXAXSXSXSXSXSXSXSX",
"NXNXNXDXAXAXAXAXAXAXNXhXA.] e q w L.M.T c S v.iXG.` m &.NXnXG.: r r ~ dXZXCXAXSXSXSXSXSXSXSXSXSXSXSXSXSXSXSXSXSXSXSXAXSXAXSXSXSX",
"NXNXNXNXZXAXAXAXAXVXrX/ ' ` W ] ] ,.E.A M.m.A  .tXw ^ wXNXwX| o 3 y $.lXZXCXSXAXSXSXSXSXSXAXSXSXSXSXSXSXSXSXSXSXSXSXSXAXSXSXSXSX",
"NXNXNXNXZXAXAXAXCXhX! 8 +.+.S.&XlXcXdX0X0XcX0XV =Xd.gXNXNXK.8 q 3 o.#.ZXAXAXSXSXSXSXSXSXSXSXAXSXSXSXSXSXSXSXSXSXSXAXSXAXSXAXAXAX",
"NXNXNXNXZXAXAXCXZX=X+.;.&XlXnXwX%.~ Q 0 ~ o.H.*.v I.ZXNXnXZ.3 0 > $.qXVXAXAXAXAXSXSXSXSXSXSXSXSXSXSXSXSXAXAXAXAXAXAXAXAXSXAXAXAX",
"NXNXNXNXZXNXZXZXnXS.gXNXNX%X) q y ,.H.S.@XdXcXE.b I.ZXZXhX/ ( q ~ ;.NXCXAXAXAXAXSXSXAXSXSXSXSXSXSXSXSXSXAXAXAXAXCXAXAXSXAXAXAXAX",
"nXnXNXNXAXAXAXCXcXnXVXnXG.9 0 S.U.,.@XnXAXZXZXmX-.m mXNXfX/ 9 > ! K.DXCXAXAXSXAXSXSXSXSXSXSXAXAXSXSXSXSXAXAXCXCXCXAXAXAXAXAXSXAX",
"nXnXNXNXDXAXAXCXVXNXNXD.@ ,.(.(.&XnXZXAXZXAXAXNXE.= 0XNXdX..8 : ;.NXAXAXCXAXAXAXAXCXCXCXCXDXVXCXNXCXAXCXAXCXCXCXCXAXAXAXAXAXAXAX",
"nXNXNXNXCXAXAXNXCXCXZX;.^.$X#XlXCXAXAXAXAXAXAXDXcXC N cXlXQ > $.dXNXAXAXAXAXCXAXCXCXNXCXNXnXNXNXNXVXCXNXCXCXnXNXCXCXAXAXAXAXAXAX",
"NXnXNXNXCXDXAXAXAXDXtX<.S.&XZXCXCXAXAXCXAXCXAXNXNXqXb C nX@.| dXNXNXNXNXNXNXrXK.C.C.G.K.G.K.wXnXnXNXVXVXVXnX(.lXCXCXCXCXCXAXCXAX",
"NXNXNXNXCXCXAXAXAXjX(.(.lXCXAXAXAXAXCXCXbX%XQ.%XK.&XU.v =.A.dXNXNXNXNXnXK.r ~ : 3 t 9 3 r ^ Q ) %XlXNXNXNXfX(.*XNXCXCXCXCXCXCXCX",
"NXNXNXZXCXCXCXCXmX<.$XnXAXAXAXCXCXNX%X#...,.+.q ^ C.nXF.= v zXNXNXNXwX@.9 # y v b b x v $ : ! ' r 9 C.lXnX=X(.(.nXNXVXCXZXAXCXCX",
"nXNXNXNXCXCXCXCXxX*XAXAXAXAXAXVX%X^ :.,.' Q Q ) ^ Q.NXcX*.= %XNXNXwXX.4 n H D F G l l p D c 7 : 4 ! ..~ $.A.(.$.nXNXZXCXAXAXCXCX",
"nXNXNXNXZXCXZXCXdXNXAXAXCXAXhX_ q W ` ] [ >.<.[ v =XmXyX1 1 1 zXeXr t A x b 1 M 6 y o.t y m x x 6 t 4 4 9 3 9 B.NXNXNXCXCXCXCXCX",
"NXNXNXNXZXCXCXCXAXAXAXCXAXqX' +.8 > s.'.|. X X|.'.q.q.*.V.D.& M *.n A 7 r 9 9 ; 9 9 9 ^ 3 8 r #.e | _ r ! ; C.nXNXNXAXAXCXCXCXAX",
"NXnXNXNXNXZXCXCXCXCXCXCX~.> ; ; >.+X:X;X;X;X;X.X X/.[ . P R X   c n : r ! 9 / 9 r ' > ..e ) 9 o r y D.G.K.%XNXNXNXZXZXZXCXNXCXCX",
"nXnXnXNXNXZXCXZXCXCXCX&X..$.e /.:X3X3X2X,X,XOX.X|.'.-._./.'.}.*.s H g s -.q ' ,./ 6 w O d f f s x y X.wXnXNXNXNXNXNXNXZXZXAXCXCX",
"nXnXnXNXNXNXZXZXCXCXqXw ; w z.,X3XsX3X,X;X,XOX|.'.d.9.c.XXXXXX{.j.D p u i X X a g F l p p p l F F D c v K.uXNXAXZXZXZXZXZXZXCXCX",
"nXnXnXNXNXNXZXCXNXhX..' ^ [ OX3XsXsX2X,X;XoXj.{ d d 4.].-X-X-XXX{.i.p p u p J I I I U E J J I H U K G D iXBXZXAXAXZXZXCXZXCXZXCX",
"cXnXnXNXNXZXZXVXNX@X+./ < '.,X2X2X2X,X|.j.B k d B j d x.oX;X:XXX]._.F p F Y I I r.r.y.r.E I J I P e.e.K W.BXNXAXAXCXZXVXZXZXCXZX",
"nXnXNXNXNXNXNXNXxXe > > [ XX,X2X2X,X|.0.j 1.4.0.P B j 2.].-X-X.X|.'.L J I E U r.p.p.p.y.r.E Y Y H U e.L W.BXZXAXCXCXCXCXCXCXZXNX",
"bXnXNXNXNXnXNXNXqX,.,.` z.;X<X2X2XOXc.a B 8.4.1.5.1.j V ].XX-X.X|.].3.G I U w.w.y.r.p.a.p.e.E U I Y E K q.VXZXAXSXAXAXZXZXZXVXNX",
"nXnXnXNXNXNXNXnX@X,.^ m +X<X3X2X<X.X4.d { f.5.0.4.4.2.j ].-X;XoX.X{.2.Y U e.w.p.p.a.Y.a.p.r.w.E U U i.E W.mXZXAXZXZXAXAXNXVXVXNX",
"nXnXNXNXNXNXNXnXC.Q q >.>X3X3X2XOX].j V k j.1.4.1.5.P a x.-X-XoXXX[.* H L e.6.y.a.a.a.h.a.y.6.U U f.Y.g.Y.VXVXAXZXAXAXCXZXZXNXNX",
"nXnXnXNXNXNXNXnX%.' ) _.XX3X3X<XoX`.f V f.j.8.1.f.1.j j x. XoXXX X].& g s 3.w.6.y.p.y.p.a.a.y.e.7.k.x.l.yXVXVXAXAXZXZXNXZXNXNXNX",
"nXnXNXNXNXNXnX@X8 y dX_.XX<X3X3X;X`.h B 0.4.8.5.4.j f 4.]..XXX-XXX'.O X b 3.w.P e.e.r.u.u.u.y.t.7.k.c.`.mXVXVXZXZXZXNXNXVXNXNXNX",
"nXnXnXnXnXnX&X,.#.lXNX5X|.-X<X2X:X].{ j 5.8.5.1.z d h x.|..XXX-XXXs.  = b E e.w.w.w.t.7.t.i.i.7.k h.Y.xXBXVXVXZXNXZXdXNXVXNXNXNX",
"nXnXnXnXnXqXS.&XNXNXVXjX'.XX;X<X;X.X`.V j B 1.1.a d j.]..XXXXXXX'.} = v s 6.e.w.i.w.y.t.h.g.g.g.j.5XmXVXZXVXNXCXNXnXB.nXNXNXZXZX",
"nXnXnXNXnXdXNXZXZXCXDXVX[. X-X-X;XOX{.`.{ j - f 1.x.{.:X-X-X.X{./.d.} % V 2.f.t.t.u.l.l.l.g.j.d.aXVXVXVXVXNXNXNXlXC.5 nXNXNXNXZX",
"nXnXnXNXNXNXZXCXCXCXCXZXvX[.XXXX;X;X.X{.{.].].x.]..X;X;X;XoX{._.aXjX_.O { V j.x.`.x.x.k.x.c.>.e $.Q.nXNXVXNXnX%Xr @ #.NXNXNXNXNX",
"nXnXNXNXNXZXAXAXAXAXCXVXCXmX}.'.XX>X-X-X;X;X:XOX;X<X-X-XoXXX/.,.H.Z.(.*.M s 9.c.'.'.'.'.d.e + ^ 8 ....%XNXdX! Q 9 ` Q.NXNXNXNXNX",
"nXnXnXnXNXNXAXAXAXAXAXCXCXVXG.` [ d.'.>X<X<X:X:X:X:XOX X{.s.w e 9 ~ nXtX1 & d.}.'._.>.` + Q > ' ' > 8 O.$.r 3 8 8 r qXNXNXNXZXNX",
"nXNXNXNXNXZXCXAXAXAXAXAXCXNX@.9 o $ [ /.4X>X:X1X<X>X X/.` 8 0 : 8 D.nXnX .1 C nXmXnX%X%.! > ' ' :.w / + @ ; 8 e o.C.NXNXNXNXNXNX",
"nXNXNXNXNXZXVXCXCXAXAXAXNXlX3 3 3 @ Q 8 >.[.}././.s.+.W q 8 8 > ..lXnXnXtX* * uXNXNXNXNXdXQ.!.A.;.; @ + , 8 , q 8 rXNXNXNXNXZXNX",
"nXNXNXNXNXNXVXCXCXAXAXAXZXwX^ ! + 9 ) 4 %XnXrX` ..9 @ 9 3 8 q X.hXnXNXNXnX=.v  .VXNXNXNXVXZXCXlX#.@ > + < O.$.q Z.NXNXNXNXNXNXZX",
"nXNXNXNXNXNXNXNXAXAXAXAXAX%X: 3 + ! 8 Z.nXdX! @ > 0 : ) 9 / Z.nXNXNXNXZXNXgXv 7 tXNXZXVXDXZXlXX.: 5 : 0 q Q +.,.dXgXNXNXNXDXCXCX",
"nXNXNXNXNXNXNXAXCXNXNXAXNX9X@ r : ! r fXlX| 9 3 @ t 3 8 _ qXNXNXAXZXNXAXCXNXV.M  .NXNXNXZXNXX.$., e 8 5 o.! K.qXaXnXNXAXAXDXZXAX",
"NXNXNXNXNXNXNXAXAXAXAXCXNXhXy o 9 t Q.bX#.3 : 8 > r B.pXnXNXNXDXAXCXAXNXNXNXgX= v %XNXNXNXwX3 +.` @ ..A.Z.wXNXNXNXNXNXAXAXAXAXAX",
"nXNXNXNXNXNXDXDXAXAXAXCXAXlX(.0 q %.bX~.( 3 + ..o.qXnXNXNXNXNXNXCXCXNXNXNXNXNXV.N C nXNXNX@XO.> , 3 #.wXnXNXNXNXDXAXAXAXAXAXAXAX",
"NXNXNXNXNXCXAXAXAXAXAXAXDXNX#XH.) lXNX;.# q ! qXnXNXNXNXNXNXZXVXNXNXNXNXNXNXNXlXv b F.nXjX+.) C.!.wXNXNXNXCXCXAXNXCXAXAXAXAXAXAX",
"NXNXNXNXNXAXAXAXAXAXAXAXAXCXhX(.$XNXnX( 4 G.lXNXNXAXNXZXZXNXNXNXnXlX%XC.G.G.@XuX=.b b V.I.lXnXnXNXNXNXVXNXCXCXCXNXNXAXAXAXAXAXAX",
"NXNXNXDXAXAXAXAXAXAXAXAXAXCXAX$X(.ZXhXX.;.nXDXDXCXAXZXZXNXNXlXG.#.) ) ) 8 8 q | &X=.v v F.nXNXNXNXNXNXDXNXDXAXCXZXCXCXCXCXCXDXAX",
"NXNXNXDXNXAXAXAXAXAXCXCXCXAXCXdX$XCXfX;.lXNXDXAXNXCXVXNXfXG.;.;.^ O.Q 8 @ O.! lXnXzX% 1 & 0XNXNXNXNXNXCXCXAXAXNXZXCXCXNXCXCXCXAX",
"NXNXNXNXDXAXAXAXAXCXAXAXAXAXAXxXaXAXwXwXDXNXNXNXNXNXwXG.$...q ..o.9 O.o.@ ) pXNXNXNXm * * C lXZXCXDXZXNXAXAXAXAXCXZXZXZXCXCXCXAX",
"NXNXNXNXDXCXDXAXAXCXCXCXSXAXCXxXCXAXzXCXAXCXZXVXnXC.) | ....^ @ ~ / Q X.K.bXNXNXNXnX9XO % & V.AXZXAXZXAXNXAXAXCXZXNXNXCXCXCXAXAX",
"NXNXNXNXDXDXCXAXAXAXAXSXAXAXAXAXCXAXAXAXAXCXNXnXX.) ;.X.^ 9 ..: ~ o.rXNXNXNXNXAXNXNXnX&.O * 1 zXCXAXAXAXAXAXAXAXDXCXCXCXAXAXAXSX",
"NXNXNXNXDXCXAXAXAXAXAXAXSXSXAXAXCXAXAXAXAXVXlX;.;.X.3 r O.! A.3 K.nXNXNXNXAXAXDXDXNXNXwX. & = F.NXNXAXAXAXAXCXDXCXCXCXAXAXAXAXAX",
"NXNXNXNXNXAXAXAXAXAXAXAXSXAXAXAXAXAXAXAXAXNX) ! ) 8 8 3 X.t $.wXNXNXNXNXAXAXAXAXAXAXZXNX2 * 7 *.NXNXAXAXAXAXAXZXCXCXAXAXAXAXAXAX",
"NXNXNXNXAXAXAXAXAXAXAXAXAXAXAXAXAXSXAXAXAXG.q 0 ; 3 9 ..5 9 +.H.wXNXAXAXAXAXAXAXAXAXNXNX&.7  .*.nXAXDXAXAXAXAXCXAXNXAXAXAXAXAXAX",
"NXNXNXNXDXAXAXAXAXAXAXAXAXAXAXAXSXAXAXAXVXo.q # ! ! 3 q 0 S.S.,.S.=XNXCXAXAXAXAXAXAXAXNXK.=.I.I.hXAXAXAXAXAXAXAXAXAXAXAXAXAXAXAX",
"NXNXNXDXDXAXAXAXAXAXAXAXAXAXAXAXAXSXSXAXAXrXB.9 9 ;.~ 8 A.(.S.H.@XA.lXAXAXAXAXSXSXSXSXAXhXtXgXgXNXAXAXAXAXAXAXAXAXAXAXAXAXAXAXAX",
"NXNXNXNXAXAXAXAXAXAXAXAXAXSXSXSXSXAXSXAXAXNXNXfXt > Q o.H.(.hXNXAXlXhXAXSXSXAXAXAXSXAXAXAXAXAXAXCXAXAXAXAXAXAXAXCXAXAXAXAXAXAXAX",
"NXNXNXNXAXAXAXAXAXSXAXAXAXAXSXAXSXSXSXSXAXAXAXDXNX%X%.Z.&XnXAXAXAXAXAXAXAXSXAXAXSXAXSXSXSXSXAXAXAXAXAXAXAXAXAXAXAXAXAXAXAXAXAXAX"
};
