/* XPM */
static char *_acc0e0d3cd34dbad825d12bea6c22ef5EavZUCMMMWqNOTO[] = {
/* columns rows colors chars-per-pixel */
"64 64 234 2 ",
"   c #453C24",
".  c #703F14",
"X  c #3C480A",
"o  c #43490C",
"O  c #4C550D",
"+  c #48580B",
"@  c #4C5514",
"#  c #565914",
"$  c #484E12",
"%  c #4B6309",
"&  c #55670D",
"*  c #576C0B",
"=  c #57720A",
"-  c #5D750B",
";  c #5C7808",
":  c #5B6715",
">  c #5E7211",
",  c #647C0B",
"<  c #65750C",
"1  c #636D18",
"2  c #647B12",
"3  c #687716",
"4  c #767A15",
"5  c #594D26",
"6  c #71542C",
"7  c #797F27",
"8  c #7B7539",
"9  c #707431",
"0  c #765C43",
"q  c #786545",
"w  c #7A7647",
"e  c #8C5D29",
"r  c #87793D",
"t  c #886B36",
"y  c #92784C",
"u  c #A7794B",
"i  c #8E7964",
"p  c #6A850C",
"a  c #6C8B0C",
"s  c #658409",
"d  c #718C0D",
"f  c #73920D",
"g  c #79910F",
"h  c #678511",
"j  c #7E8212",
"k  c #778817",
"l  c #799413",
"z  c #7C9913",
"x  c #769215",
"c  c #7B8824",
"v  c #7B8537",
"b  c #7D8648",
"n  c #868A18",
"m  c #879819",
"M  c #92961D",
"N  c #969D1D",
"B  c #98991A",
"V  c #98A31D",
"C  c #8CA11B",
"Z  c #A0A91E",
"A  c #868A27",
"S  c #899527",
"D  c #969C23",
"F  c #969C2D",
"G  c #959829",
"H  c #8B9736",
"J  c #969936",
"K  c #878D35",
"L  c #93A323",
"P  c #9CA423",
"I  c #9EA924",
"U  c #9AA22A",
"Y  c #95A928",
"T  c #99A739",
"R  c #92A92D",
"E  c #A1AC24",
"W  c #A5AC2A",
"Q  c #A5AA25",
"!  c #A6B12C",
"~  c #AAB42C",
"^  c #A9B52A",
"/  c #A6AE36",
"(  c #ABB531",
")  c #AEBA34",
"_  c #A6B436",
"`  c #B1BB34",
"'  c #B4BD3A",
"]  c #B9BD37",
"[  c #B1BA2D",
"{  c #B29C37",
"}  c #B5C13B",
"|  c #BCC33D",
" . c #B6C035",
".. c #C1C93D",
"X. c #9E9E4B",
"o. c #888754",
"O. c #959B59",
"+. c #8C924F",
"@. c #B09357",
"#. c #98A947",
"$. c #9AAA53",
"%. c #A1A545",
"&. c #B1AE4F",
"*. c #ABB647",
"=. c #B4BB45",
"-. c #A4A755",
";. c #ADB057",
":. c #9B8567",
">. c #919368",
",. c #BB9A69",
"<. c #AB9A79",
"1. c #B99973",
"2. c #AC8F6B",
"3. c #9BA168",
"4. c #9FA571",
"5. c #A2AD6B",
"6. c #A6AA64",
"7. c #B6BB68",
"8. c #A3AC73",
"9. c #A7A77A",
"0. c #ABB274",
"q. c #ABB37B",
"w. c #A7B077",
"e. c #B5B776",
"r. c #ABB36E",
"t. c #CC9C64",
"y. c #C9A279",
"u. c #CFB47C",
"i. c #BCC443",
"p. c #BDC747",
"a. c #BAC459",
"s. c #B9C379",
"d. c #C4CB45",
"f. c #C4CB4A",
"g. c #CCD34C",
"h. c #C9D246",
"j. c #C4CD55",
"k. c #CBD356",
"l. c #D6DC5A",
"z. c #D6DC64",
"x. c #C2C67E",
"c. c #DADF7B",
"v. c #DDE27E",
"b. c #E3E874",
"n. c #989C8B",
"m. c #AA9A84",
"M. c #AAA888",
"N. c #B6A985",
"B. c #AEB681",
"V. c #B4BC84",
"C. c #B5B88A",
"Z. c #B6AC95",
"A. c #B7B699",
"S. c #A9AA96",
"D. c #BAB8A7",
"F. c #B4B7AA",
"G. c #DBB588",
"H. c #C5B692",
"J. c #C6AA8E",
"K. c #C3BAA9",
"L. c #BBC38C",
"P. c #B8C288",
"I. c #BDC493",
"U. c #C5C787",
"Y. c #C4C693",
"T. c #C1C995",
"R. c #C6C899",
"E. c #D8DA99",
"W. c #D2D690",
"Q. c #E3C295",
"!. c #E6E791",
"~. c #CCCAAB",
"^. c #C8C7A8",
"/. c #D4C7A9",
"(. c #CFD4A8",
"). c #D7D4AA",
"_. c #CACAB8",
"`. c #D6CAB7",
"'. c #DCD5BD",
"]. c #D8D7B7",
"[. c #E7D3A9",
"{. c #E4DDBA",
"}. c #E7D8B7",
"|. c #E6CCA8",
" X c #DEE0A1",
".X c #E6E7AA",
"XX c #E5E2BD",
"oX c #EAE5BD",
"OX c #E9E9B7",
"+X c #F0EFBF",
"@X c #CCCDC0",
"#X c #DDDCC5",
"$X c #DDDBCA",
"%X c #D7D5C5",
"&X c #CFD1C4",
"*X c #E1DDC3",
"=X c #E6D9C9",
"-X c #E2DED1",
";X c #DDE0C1",
":X c #EAE4C2",
">X c #EDEBC5",
",X c #EDECCD",
"<X c #E7E5C9",
"1X c #F1EEC6",
"2X c #F1EDCD",
"3X c #F0E5C5",
"4X c #F4F1CD",
"5X c #F2F0C7",
"6X c #E5E3D3",
"7X c #EDEBD2",
"8X c #E9E7DA",
"9X c #EDEBDD",
"0X c #E8E5D7",
"qX c #F2EDD3",
"wX c #F1EEDB",
"eX c #F5F2D4",
"rX c #F9F6D6",
"tX c #F5F2DB",
"yX c #FAF5DC",
"uX c #EFF0DE",
"iX c #EEECE3",
"pX c #EEEDE8",
"aX c #F1EEE3",
"sX c #F2EFE9",
"dX c #F3F1E6",
"fX c #FAF6E1",
"gX c #F5F2EC",
"hX c #F9F5EE",
"jX c #FBF8E9",
"kX c #F7F5F1",
"lX c #FBF6F3",
"zX c #F7F8F3",
"xX c #FDFAF6",
"cX c #FEFDF9",
/* pixels */
"cXcXcXcXxXxXxXxXcXcXxXxXxXxXxXxXxXxXxXxXlXlXlXlXlXlXxXxXxXxXxXxXxXxXcXcXcXcXcXcXcXcXcXcXcXcXcXcXcXcXcXcXcXcXxXxXxXxXlXlXlXgXgXgX",
"cXcXcXcXxXcXxXxXxXcXcXxXxXxXxXxXxXxXlXxXlXhX'.J.`.aXxXxXxXxXxXxXxXxXcXcXcXcXcXcXcXcXcXcXcXcXcXcXcXcXcXcXcXcXxXxXxXxXlXlXlXgXgXgX",
"xXxXcXcXxXxXxXxXxXxXxXxXxXxXxXxXxXlXiXK.K.2.2.2.t t $XwX<X7X9XtXwX7XwXtXxXcXcXcXcXcXcXcXcXcXcXcXcXcXcXcXcXxXcXxXxXlXlXlXlXkXgXgX",
"xXxXcXxXxXxXxXcXxXxXxXxXxXxXxXxXlXZ.i :.2.J./.1.t r o.M.8XlXxXxXxXxXxXyXeXqXjXcXcXxXcXcXcXcXcXcXcXcXcXcXcXxXxXxXxXlXlXlXlXkXgXgX",
"xXxXxXxXcXcXxXxXxXcXxXxXxXxXxXxXxXm.6 q u u u e 8 -.+.y o.9.M.'.sXxXxXcXcXcXtX:XxXcXcXcXcXcXcXcXcXcXcXcXcXcXxXxXxXlXlXlXkXgXgXgX",
"xXxXxXxXxXxXcXcXcXxXxXxXxXxXxXxXxX-Xm.i <.m.:.0 5 y q 8   e u iX6X*X*XaXcXcXcXhX:XjXcXcXcXcXcXcXcXcXcXcXcXxXxXxXlXlXlXlXkXkXgXgX",
"xXxXxXxXcXcXxXcXxXxXxXxXxXxXxXxXxXxXxXlXlXlXlXkXiXK.Z.N.:.N.@./.xXxXxX#X].hXcXcXcX{.dXcXcXcXcXcXcXcXcXcXcXcXxXxXlXlXlXlXkXkXgXgX",
"xXxXxXxXcXcXcXxXxXxXxXxXxXxXxXxXxXxXxXxXxXxXlXlXlXzXlX<X-XlX`.y.gXxXcXxXxX].7XxXcXcX{.hXcXcXcXcXcXcXcXcXcXxXxXxXlXlXlXlXkXgXgXgX",
"xXxXxXcXcXxXcXxXxXcXxXxXxXxXxXxXxXxXxXxXxXxXlXlXkXlXhXH.sXlXsX1.'.xXxXxXcXcX,X<XcXcXxX~.gXcXcXcXcXcXcXcXcXxXxXxXxXlXlXlXlXgXgXgX",
"xXxXxXxXxXxXxXxXcXxXxXxXxXxXxXxXxXxXxXxXlXlXlXlXgX6X6.8 gXlXlX<.<.lXxXxXcXcXcXiX6XcXcXzX~.^.<XxXxXcXcXxXcXcXxXxXlXlXlXkXkXgXgXgX",
"xXxXxXxXxXxXxXcXcXxXxXxXxXxXxXxXxXxXxXxXlXdXT.$.H k v & _.lXlX:.q hXxXxXcXcXcXcX<XsXxXcX0XI.0.0.6XxXcXcXcXcXxXxXxXlXlXlXkXkXgXgX",
"xXxXxXxXxXxXxXcXcXxXxXxXxXcXxXxXxXxXxXgXx.R d , p > : > o.Y.U.A j -.aXcXcXcXcXcXxX).xXcXxXZ.V.3.#.hXcXcXcXxXxXxXxXlXlXlXkXgXkXgX",
"xXxXxXxXxXxXcXcXcXxXcXxXxXcXxXxXxXxX7Xa.C g , * % @ O A P W P V N m %.hXcXxXxXcXcX<XsXcXcX'.8.P.b r.lXcXcXxXxXxXxXxXlXlXlXlXkXgX",
"xXcXcXcXxXxXxXcXxXcXcXxXxXxXxXxXxX,X*.Y d = % + X $ U E ^ ! ! ! E N D ).xXxXxXxXcXhX'.cXxX6X9.q.I.3.].xXcXxXcXxXxXlXxXlXlXkXlXgX",
"xXcXxXxXxXxXcXxXcXcXxXxXxXcXxXxXuXa.Y m d = % X : U ) [ ( ) ` ( ~ Z W 7.xXxXxXxXxXxX].xXxX9X4.8.q.I.I.lXcXxXxXxXxXxXlXkXlXkXlXgX",
"xXxXcXxXxXxXcXxXcXcXcXxXxXxXxXxXU._ L g < & o 7 _ ) ` } ' ' } ` ` ( ! T hXxXxXxXxXdXC.dXxXgX9.8.8.e.R.8XcXcXxXxXxXxXlXlXlXlXlXgX",
"xXxXxXxXxXxXxXcXxXxXcXcXxXcXxX7XT Y L f ; O S *.=.i.p.i.| ' } ' ) ) ! U 6XxXlX].7.c H ;.hXhX4.8.w.q.P.(.xXcXcXxXxXxXxXlXlXlXlXkX",
"cXxXxXxXxXxXxXcXcXcXcXxXxXcXxXU.Y C g - & H ' p.p.j.f.p.p.} } ` ) ) W D R.gXs.S k < k p s.pX3.5.5.q.L.R.9XcXcXxXxXxXlXlXlXlXlXkX",
"xXxXxXxXcXxXxXcXxXcXxXcXxXxXlX*._ m k O 1 =.p.f.f.j.g.p.f.i.i.[ ) ! ( D -.O.k p , c 2 ; l L.>.O.5.0.V.T.#XxXcXxXxXxXxXlXlXlXlXlX",
"xXxXxXcXcXxXcXxXcXxXcXxXxXxX*XY L k & @ *.p.f.g.h.h.f.g.i.i.i.' ~ W ( D S & 2 , = c = = d x b O.5.0.V.T.'.xXxXxXxXxXxXxXlXlXlXlX",
"xXxXxXcXcXcXcXcXxXcXcXxXcXxX(.S x p & 7 ` d.g.h.d.g.g.f.d.' } [ ! W W N S o * ; - 3 ; ; p a 9 O.5.e.V.I.'.xXcXcXcXxXxXlXxXlXlXlX",
"xXxXxXxXxXcXcXcXcXxXxXcXxXxX9Xs.#.H +.F ' k.b.l.z.l.h.g...p.} ( E I P M n $ % , c & ; a a f v o.5.q.P.T.~.xXcXxXxXxXxXlXlXlXlXlX",
"cXcXxXcXxXcXcXcXcXcXxXxXxXxXxXxXlXgX(./ | z..X!.!.z.l.f.| i.' E E W P n n @ + - 4 ; ; a d f v +.8.q.P.L.3.xXcXxXxXxXxXlXlXlXlXlX",
"xXcXcXcXcXcXcXcXcXxXcXcXxXxXxXxXxXlXU./ | l.v.!.c.z.l.d...p.~ E Z P M n n # + 3 3 , 2 f l z q.3.q.B.P.V.O.xXxXxXxXxXxXlXxXlXlXlX",
"xXcXcXcXcXcXxXcXcXxXcXxXxXxXxXxXxXlXs._ ` f.f.k.k.g.g...] ) W E V M n 4 M O % 1 > ; a a z T %X3.q.V.I.0.A.xXcXcXxXxXxXlXxXlXxXlX",
"xXcXlXxXcXxXxXxXcXxXcXxXxXxXxXxXxXlXx.W `  .| i...g.d.| ] Q Z Q B n < j S X # > 2 ; d s z L.8X3.B.V.V.T.gXcXcXcXxXxXxXxXxXlXlXlX",
"xXxXxXcXcXcXcXxXcXxXxXcXxXxXxXxXcXxX)./ ~ ~  .d.| ..i.] [ ~ E V M j 4 S A o : 2 2 h f s #.gX8X4.C.P.P.$XcXcXcXcXcXxXxXxXxXlXlXlX",
"xXcXcXcXcXxXcXcXxXxXxXcXcXxXxXxXxXxXhX*./ ! ~ `  .| ` ^ ! W P n j 4 n F : o < h , h f S 9XxX#X8.V.T.R.sXxXcXcXcXxXxXxXxXxXlXlXlX",
"xXxXxXxXcXcXcXcXxXcXxXxXxXxXxXxXxXxXxX(./ P P W ~ ~ ^ ! W P N n 4 4 G F o o < , s h d #.lXxX'.9.C.R.#XcXcXcXcXcXxXxXxXxXxXlXlXlX",
"xXxXcXcXxXcXcXcXcXcXcXxXxXxXxXxXxXxXxXxX7.L I P E E I P N M n j n S T 1 o * , h p p f s.xXxX%XC.I.~.gXcXcXcXcXcXcXxXxXlXxXxXlXlX",
"xXxXxXcXxXxXcXcXcXxXxXcXxXxXcXxXxXcXxXxX9X%.U L I I V N n n j n G J A o + ; p p s a z ;XxXxXiXA.T.#XcXcXcXcXcXcXcXxXxXxXxXxXlXlX",
"xXxXxXcXxXcXcXcXcXxXcXcXcXxXxXxXxXxXxXxXlX~.J G D D M D F F F T T A O + - a d g f S R hXcXcXcX8X~.lXcXcXcXcXcXcXcXxXxXxXxXxXlXlX",
"xXxXxXxXxXcXcXcXxXxXxXxXxXcXxXxXcXxXxXxXxXhX:.# t A 4 -.X.c 7 1 : # & - ; f l m z C (.xXcXcXcXcXpXcXcXcXcXcXcXcXxXxXxXxXlXxXlXlX",
"cXxXxXcXxXcXxXcXcXcXcXxXxXxXxXxXcXxXxXxXxXxXsXD.M.A.`.gX+.> X O 1 > , < p f z F L T.xXcXcXcXcXcXxXcXcXcXcXcXcXcXxXxXxXxXlXlXlXlX",
"xXxXxXxXxXxXxXxXcXcXcXcXcXcXcXcXcXxXxXxXxXxXxXxXlXlXlXlXS * 2 - k k d k m L m #.].xXcXcXcXcXcXcXcXcXcXcXcXcXcXcXcXxXxXxXlXlXlXlX",
"xXxXxXxXxXxXxXcXxXxXxXxXxXxXxXxXxXxXxXxXxXxXxXlXlXxXxXhXH S z l G m l { C T L.pXxXcXcXcXcXcXcXcXcXcXcXcXcXcXcXcXxXxXxXxXlXlXxXlX",
"jXxXxXxXxXxXcXxXxXxXxXxXxXxXxXxXxXxXxXxXxXxXxXxXxXxXxXlXT T T T T R #.s.].hXxXxXxXcXcXcXcXcXcXcXcXcXcXcXcXcXcXcXxXxXxXxXxXxXlXlX",
"xXxXxXxXxXxXxXxXxXxXcXcXxXxXxXxXcXxXxXxXxXxXxXxXxXxXlX~.T.].dXgXaXhXlXxXxXxXxXxXcXxXcXcXcXcXcXcXcXcXcXcXcXcXcXcXxXxXxXxXxXlXlXlX",
"xXxXxXxXxXxXcXxXcXxXxXxXxXxXxXxXxXxXxXxXxXxXxXxXxXxXxXxXxXxXxXxXxXxXxXxXxXxXxXcXcXxXcXcXcXcXcXcXcXcXcXcXcXcXcXcXcXxXxXxXxXlXlXlX",
"xXxXxXxXxXxXxXxXxXxXxXcXcXcXxXxXxXxXxXxXxXxXxXxXxXxXxXxXxXxXxXxXxXxXcXxXxXxXxXcXcXcXcXcXcXxXcXcXcXcXcXcXcXcXcXcXcXxXxXxXxXlXlXlX",
"xXxXxXxXxXxXxXxXxXxXxXxXxXxXxXxXxXxXxXxXxXxXxXcXxXxXxXxXxXxXxXxXcXxXxXcXcXxXxXcXxXcXcXcXcXcXcXcXcXcXcXcXcXcXcXcXcXcXxXxXlXlXlXlX",
"xXxXxXxXxXxXxXxXxXxXxXxXxXxXxXxXxXxXxXxXxXxXxXxXxXxXxXxXxXxXxXxXxXxXxXxXxXxXxXcXcXcXcXcXcXcXcXcXcXcXcXcXcXcXcXcXcXcXxXxXlXlXlXlX",
"xXxXlXxXxXxXxXxXxXxXxXxXxXxXxXxXxXxXxXxXxXxXxXxXxXxXxXxXxXcXxXxXxXxXxXxXxXxXxXxXcXcXcXcXxXcXcXcXcXcXcXcXcXcXcXcXxXxXxXxXlXlXlXlX",
"xXlXxXxXxXxXxXxXxXxXxXxXxXxXxXxXxXdXY.Y.U.Y.(.*XhXlXxXxXxXxXxXxXxXxXxXxXxXxXxX`.9XxXcXcXcXcXcXcXcXcXcXcXcXcXcXcXxXxXxXxXlXlXlXlX",
"xXlXlXxXxXxXxXxXxXxXxXxXxXxXxXhXY.T U.XXoXOX.X XW.).aXlXxXxXxXxXxXxXxXxXxXxX`.r C.xXcXcXcXcXcXcXcXcXcXcXcXcXcXcXcXxXxXxXxXlXlXlX",
"lXlXlXlXxXxXxXxXxXxXxXxXxXxX8X;.P Y.{.XX:X>X,X,X>X.XE.R.6XdXxXxXxXxXxXxXxX=Xe 5 K.cXcXcXcXcXcXcXcXcXcXcXcXcXcXcXcXxXxXxXxXlXlXlX",
"zXkXxXlXlXxXxXxXxXxXxXxXxXiX%.P e.{.XX:X,XeX2XeXrXeXeX1X.XE.R.$XlXxXxXlX}.u y -XxXcXcXcXcXcXcXcXcXcXcXcXcXcXcXcXcXxXxXxXxXxXlXlX",
"kXkXlXlXxXxXxXxXxXxXxXxXhX7.! *.).{.:X>X,X2XeXeXeXrXrXeXeX>X].B._.gX8X}.,.J.sXcXcXcXcXxXcXcXcXcXcXcXcXcXcXcXcXcXcXxXxXxXxXlXlXlX",
"lXkXkXlXxXxXxXxXxXxXxXzX].=.U u.[.oX1X2X,XqX4XrXeXeXtXtXtX7X].<.:.,.,.1.0XxXxXcXcXxXsXgXcXcXcXcXcXcXcXcXcXcXcXcXcXxXxXxXlXlXlXlX",
"kXkXxXxXxXxXxXxXxXxXkX9X;.=.&.|.[.oX,X{.}.qXtXeXyXrXtXtXtX,XXX2.. 6 Z.hXxXxXxXgXaXaXdXlXcXcXcXcXcXcXcXcXcXcXcXcXcXxXxXxXxXxXlXlX",
"kXkXzXlXxXxXxXxXxXlXlX6.T &.G.|.{.:X9.H.wX}.fXfXyXtXtXqXeXqX<XE.w n._.%X6X8X6X0XaXgXlXxXxXcXcXcXcXcXcXcXcXcXcXcXxXxXxXxXxXxXlXlX",
"kXzXzXlXxXxXxXxXxXkX6X6 9 ,.y.Q.|.}.}.}.2XyXfXyXfXtXeXqXqXqX>XE.o.S._.%X-X0XdXxXxXxXcXcXcXcXcXcXcXcXcXcXcXcXcXcXxXxXxXxXxXlXlXlX",
"kXkXkXkXxXxXxXzXlXlXK.  o.@.t.G.[.3X2X}.=X`.eXrXeXqXeXfXtX5XOXW.>.D.%XdXlXxXcXxXcXcXcXcXcXcXcXcXcXcXcXcXcXcXcXcXxXxXxXxXxXlXlXlX",
"kXkXkXkXxXxXlXlXxXlXM.5 H @.t.G.}.:XXXH.}./.yXrXyXyXjXeXeX1XOXr.n.@X0XxXxXcXcXcXcXxXcXcXcXcXcXcXcXcXcXcXcXcXcXxXcXxXxXxXxXxXxXlX",
"kXkXkXxXlXlXxXxXxXlX~.A U %.u.Q.[.}.oX,X,XeXeXeXrXjXrX4X2XOXE.>.F.$XhXxXcXcXcXcXcXcXcXcXcXcXcXcXcXcXcXcXcXcXcXxXxXxXxXxXxXxXxXxX",
"lXkXkXlXkXxXxXxXxXlXgXX.W W u.Q.[.}.}.oX,XqXeX4X4XrXeX1XOX.Xq.F.&XgXxXcXcXcXcXcXcXcXcXcXcXcXcXcXcXcXcXcXcXcXcXcXxXcXxXxXlXxXxXxX",
"kXkXlXxXxXxXxXxXlXlXkX].*.j.&.[.[.>X>X>X,X2XqXeXeXrX1XOX.XW.S._.iXxXcXcXxXcXcXcXcXcXcXcXcXcXcXcXcXcXcXcXcXcXcXcXcXcXxXxXxXxXxXxX",
"zXkXlXxXlXlXxXlXxXlXlXzXU.OXa.e.}.XX,X,X>XwXtXtXrXrX+X.XE.S._.iXxXxXcXcXcXcXcXcXcXcXcXcXcXcXcXcXcXcXcXcXcXcXcXcXcXxXxXxXxXxXxXxX",
"kXlXlXxXlXxXxXxXxXxXxXxXwXx.7.F e.oX:X,XqX7X7X,XeX5X>XY.A.%X9XxXxXxXcXcXcXcXcXcXcXcXcXcXcXcXcXcXcXcXcXcXcXcXcXcXxXxXxXxXxXxXxXxX",
"lXlXlXlXxXlXxXxXlXxXxXxXxX9Xe.n 4 K U.).<X7X,X,X:X(.S.D.`.`.sXxXxXxXcXcXcXcXcXcXcXcXcXcXcXcXcXcXcXcXcXcXcXcXcXcXcXxXxXxXxXxXxXxX",
"lXkXlXxXlXxXxXxXxXxXxXxXkXkXhX#X0.H k k A +.3.9.S.D._.$X/.H.<.lXxXxXcXcXcXcXcXcXcXcXcXcXcXcXcXcXcXcXcXcXcXcXcXcXcXxXcXxXxXxXxXxX",
"kXlXxXlXlXxXlXxXxXxXxXxXxXlXlXlXhX6X~.A.Z.D.D.^.`.#X6XaX*X/.2.6XxXxXcXcXcXxXxXcXcXcXcXcXcXcXcXcXcXcXcXcXcXcXcXcXcXxXxXxXxXxXxXlX",
"kXlXlXxXxXxXxXxXxXlXxXxXxXxXxXlXlXlXhX8X$X$X$X6X8XgXhXxXxXaX%XaXxXxXcXcXxXxXxXcXxXxXcXcXcXcXcXcXcXcXcXcXcXcXcXcXxXxXxXxXxXxXlXlX",
"zXlXxXlXxXxXxXxXxXxXxXxXxXxXxXxXxXxXxXlXlXhXhXhXlXxXxXxXxXxXxXxXxXxXcXcXxXcXxXcXcXcXxXcXxXcXxXcXcXcXcXcXcXcXcXcXcXxXxXgXkXxXxXcX"
};
